<?xml version="1.0" standalone="no"?>
<!DOCTYPE svg PUBLIC "-//W3C//DTD SVG 1.1//EN" "http://www.w3.org/Graphics/SVG/1.1/DTD/svg11.dtd" >
<svg xmlns="http://www.w3.org/2000/svg">
<metadata>
Created by FontPrep 20130207 at Wed Jul  1 19:49:08 2015
 By Nikhil Damle
(c) 2005, Indian Institute of Science,Bangalore.Distributed under the GNU General Public License (GPL) .
</metadata>
<defs>
<font id="8a2384f90dd216fcb00ee1e966ad4666" horiz-adv-x='1024' >
  <font-face 
    font-family="KedageBold"
    font-weight="700"
    font-stretch="normal"
    units-per-em="2048"
    panose-1="0 0 7 0 0 0 0 0 0 0"
    ascent="1638"
    descent="-410"
    bbox="-1190 -1200 3785 2142"
    underline-thickness="64"
    underline-position="-288"
    unicode-range="U+0020-0CEF"
  />
<missing-glyph horiz-adv-x="1024" 
d="M256 128h512v1792h-512v-1792zM128 0v2048h768v-2048h-768z" />
    <glyph glyph-name=".notdef" horiz-adv-x="1024" 
d="M256 128h512v1792h-512v-1792zM128 0v2048h768v-2048h-768z" />
    <glyph glyph-name=".null" horiz-adv-x="0" 
 />
    <glyph glyph-name="nonmarkingreturn" horiz-adv-x="600" 
 />
    <glyph glyph-name="space" unicode=" " horiz-adv-x="600" 
 />
    <glyph glyph-name="glyph4" unicode="!" horiz-adv-x="719" 
d="M523 -2q-63 0 -103 41t-41 115t43 118t103 43q59 0 102 -43q43 -44 43 -118t-42 -115t-105 -41zM530 1473q52 -1 89 -41t32 -95l-80 -950h-90l-71 950q-5 55 32 95q36 40 88 41z" />
    <glyph glyph-name="u0C08" unicode="&#x22;" horiz-adv-x="625" 
d="M291 984q-1 -77 -41 -120t-97 -43t-100 48t-43 139q0 270 238 419l61 -61q-150 -116 -162 -250q51 5 97 -25t47 -107z" />
    <glyph glyph-name="u0C09" unicode="$" 
 />
    <glyph glyph-name="multiply" unicode="%" horiz-adv-x="1665" 
d="M680 1104q0 35 -10 63q-54 17 -75 39t-32 21q-85 0 -167 -155q-82 -154 -83 -272q0 -118 84 -118q107 0 195 134t88 288zM1454 508q0 56 -29 94t-73 37q-116 0 -199 -185q-66 -144 -66 -250t91 -106q108 0 192 140t84 270zM894 1126q-64 0 -91 7q2 -11 2 -39
q0 -190 -128 -372t-323 -181q-97 0 -173 67q-97 84 -97 250t142 335t327 169q106 0 167 -56q62 -56 160 -55q98 0 158 34t136 104h155l-809 -1452h-180l676 1206q-58 -17 -122 -17zM1581 522q-1 -196 -127 -378t-309 -181q-150 0 -223 96q-62 80 -62 215q0 176 146 341
t319 165q256 0 256 -258z" />
    <glyph glyph-name="Oslash" unicode="'" horiz-adv-x="625" 
d="M571 1184q0 -274 -231 -420l-66 61q44 33 76 70q78 88 88 180q-143 -12 -143 139q0 72 40 115t96 43t98 -48t42 -140z" />
    <glyph glyph-name="u0C02" unicode="(" horiz-adv-x="793" 
d="M252 368q0 -496 305 -909l-45 -51q-126 107 -216 242q-216 322 -216 725t214 735q89 139 214 252l59 -29q-315 -469 -315 -965z" />
    <glyph glyph-name="u0C03" unicode=")" horiz-adv-x="793" 
d="M737 375q0 -403 -215 -725q-89 -135 -215 -242l-45 51q305 413 305 909t-317 965l59 29q125 -113 214 -252q214 -332 214 -735z" />
    <glyph glyph-name="u0C0A" unicode="*" horiz-adv-x="999" 
d="M901 772q1 -50 -31 -80t-78 -30t-116 77t-118 111q5 -84 29 -154q25 -68 25 -98t-32 -68t-78 -38t-80 31t-33 69q0 38 28 118q28 81 30 136q-46 -31 -98 -90q-52 -60 -76 -75q-25 -15 -73 -15t-74 32t-26 66q0 79 99 105q150 40 194 69q-57 26 -175 65q-118 38 -118 111
q0 42 32 74t76 31q46 0 106 -73t129 -111q-4 68 -26 136q-22 67 -22 103q0 115 109 115q52 -1 80 -39t28 -68t-26 -111t-29 -136q50 39 120 113q71 75 111 75t76 -26t35 -83q0 -79 -81 -98q-147 -36 -208 -74l-41 21q65 -41 233 -90q99 -29 99 -101zM422 924l2 -2zM545 858
q-14 8 -27 14z" />
    <glyph glyph-name="glyph12" unicode="+" horiz-adv-x="1126" 
d="M1104 401h-436v-438h-209v438h-436v209h436v439h209v-439h436v-209z" />
    <glyph glyph-name="glyph13" unicode="," horiz-adv-x="625" 
d="M575 88q0 -274 -247 -416q-11 5 -11 97q113 87 113 233q0 -1 -44 1t-78 26q-34 25 -34 93t44 112t106 43q61 0 106 -49t45 -140z" />
    <glyph glyph-name="u0C0C" unicode="-" 
 />
    <glyph glyph-name="u0C0E" unicode="." horiz-adv-x="625" 
d="M229 135q0 67 42 104t101 37q60 0 104 -37t44 -103t-42 -101t-107 -35q-142 0 -142 135z" />
    <glyph glyph-name="glyph16" unicode="/" horiz-adv-x="625" 
d="M582 1309l-402 -1454h-100l385 1454h117z" />
    <glyph glyph-name="u0C05" unicode="0" horiz-adv-x="999" 
d="M723 656q0 236 -23 352q-48 254 -200 254t-201 -254q-23 -116 -23 -352t23 -350q49 -243 201 -243t200 244q23 113 23 349zM989 660q0 -257 -99 -458q-131 -268 -390 -268t-391 268q-99 201 -99 458t99 459q133 270 391 270t390 -270q99 -202 99 -459z" />
    <glyph glyph-name="u0C06" unicode="1" horiz-adv-x="999" 
d="M825 -37h-628v103q117 5 144 17q46 22 46 101v908q0 33 -1 36q-6 19 -24 19t-178 -57v102l396 201l55 -19v-1227q-1 -51 35 -65t155 -14v-105z" />
    <glyph glyph-name="glyph19" unicode="2" horiz-adv-x="999" 
d="M23 -37v78l364 387q250 265 250 490q0 92 -47 158q-64 91 -186 91t-187 -86q-36 -48 -88 -182l-109 29q90 461 465 461q160 -1 280 -111t120 -287q0 -238 -264 -512l-279 -289h393q50 0 83 24t91 118l90 -35l-135 -334h-841z" />
    <glyph glyph-name="glyph20" unicode="3" horiz-adv-x="999" 
d="M899 432q0 -226 -167 -362t-425 -136q-75 0 -151 30q-109 42 -109 120q0 109 119 109q40 1 130 -55t155 -56q111 0 170 81t59 169t-36 154q-36 64 -110 103q-73 39 -266 32v92q330 107 330 311q0 66 -48 118t-144 52q-95 0 -174 -80q-40 -41 -95 -137l-92 22
q113 390 436 390q191 0 284 -119q66 -85 66 -189q0 -156 -149 -272q217 -113 217 -377z" />
    <glyph glyph-name="glyph21" unicode="4" horiz-adv-x="999" 
d="M981 297h-205v-334h-229v334h-559v178l645 914h143v-889h205v-203zM547 500v528l-369 -528h369z" />
    <glyph glyph-name="glyph22" unicode="5" horiz-adv-x="999" 
d="M754 1126h-369l-53 -104q316 -54 442 -207q70 -85 92 -155t23 -209q1 -217 -161 -367t-413 -150q-134 0 -211 46t-77 112q0 115 118 115q65 -1 151 -63t138 -62q96 0 168 84t72 235q0 200 -192 302q-141 75 -343 83q-50 3 -50 49q0 14 5 29l228 498h442q39 0 86 65
l72 -51l-88 -205q-10 -45 -80 -45z" />
    <glyph glyph-name="glyph23" unicode="6" horiz-adv-x="999" 
d="M717 356q0 371 -232 371q-104 0 -166 -55q-26 -24 -26 -160q-1 -222 67 -334t177 -112q180 0 180 290zM973 434q0 -173 -87 -309q-123 -191 -378 -191q-205 0 -341 164t-136 488q1 324 251 566t646 255l10 -102q-235 -39 -380 -167t-196 -296q94 51 205 51
q179 1 293 -121t113 -338z" />
    <glyph glyph-name="u0C15" unicode="7" horiz-adv-x="999" 
d="M305 1137q-77 -1 -115 -35t-98 -135l-102 43l100 239l43 113h805l-6 -76l-430 -1339h-209l395 1190h-383z" />
    <glyph glyph-name="u0C16" unicode="8" horiz-adv-x="999" 
d="M700 254q0 88 -63 157q-37 40 -209 167q-125 -103 -125 -265q0 -105 57 -176q58 -71 148 -71t141 50t51 138zM672 1077q0 75 -48 127t-136 53q-88 0 -134 -49t-45 -114q0 -129 215 -273q148 102 148 256zM928 292q0 -121 -80 -218q-114 -140 -356 -140q-196 0 -306 108
t-110 240t51 204t188 182q-131 116 -179 188t-48 186q0 159 126 253t296 94q170 1 272 -93t103 -229q0 -200 -238 -330q169 -128 225 -226t56 -219z" />
    <glyph glyph-name="u0C12" unicode="9" horiz-adv-x="999" 
d="M688 709v77q0 186 -23 277q-51 194 -208 194q-174 0 -174 -313q0 -346 217 -346q101 0 168 61q20 19 20 50zM954 793q0 -350 -231 -600t-639 -277l-12 111q311 50 485 292q59 83 93 170q-94 -51 -230 -51q-201 0 -309 148q-88 120 -88 284q1 222 125 370t328 149
q204 0 341 -167t137 -429z" />
    <glyph glyph-name="u0C17" unicode=":" horiz-adv-x="649" 
d="M180 307q0 74 42 116t101 42q58 0 101 -42t43 -115q0 -72 -41 -112t-104 -40q-142 0 -142 151zM467 829q1 -147 -143 -147t-144 147q0 77 44 117t102 41q59 0 100 -42t41 -116z" />
    <glyph glyph-name="u0C14" unicode=";" horiz-adv-x="625" 
d="M575 104q0 -285 -247 -436q-11 8 -11 105q113 89 113 245h-9q-12 -1 -22 -1q-125 0 -125 120q0 74 44 118t104 44t107 -50q46 -50 46 -145zM281 732q1 74 43 118t101 43q59 1 103 -43t43 -117q0 -73 -42 -113t-105 -40t-103 40q-40 38 -40 112z" />
    <glyph glyph-name="u0C13" unicode="=" horiz-adv-x="1249" 
d="M1190 410h-1131v133h1131v-133zM1190 709h-1131v135h1131v-135z" />
    <glyph glyph-name="u0C07" unicode="&#x3e;" horiz-adv-x="688" 
d="M465 -113l-152 140v1263l152 -141v-1262z" />
    <glyph glyph-name="u0C0F" unicode="?" horiz-adv-x="1249" 
d="M944 131q0 -63 -42 -107t-100 -44t-102 44t-43 107q0 62 42 108q43 46 103 46t101 -46t41 -108zM463 1147q1 151 103 229t252 78t248 -104q99 -104 99 -242t-88 -239q-34 -39 -164 -142q-88 -69 -88 -117q0 -127 25 -243h-90q-58 112 -58 239q0 58 69 140t135 160
q71 100 71 194q-1 94 -51 155q-50 62 -150 62q-100 -1 -159 -59q-60 -58 -60 -119q0 -15 18 -52q33 74 85 74q52 1 84 -33t32 -94t-26 -86t-101 -26q-186 0 -186 225z" />
    <glyph glyph-name="percent" unicode="&#xc82;" horiz-adv-x="1008" 
d="M821 547q-1 121 -97 223t-214 102t-210 -97q-93 -97 -93 -235q-1 -138 89 -220t218 -82t218 76t89 233zM111 556q1 262 103 404t300 142t304 -141q104 -141 104 -405t-104 -416t-302 -152t-302 153t-103 415z" />
    <glyph glyph-name="ampersand" unicode="&#xc83;" horiz-adv-x="625" 
d="M434 227q0 78 -108 78t-109 -78q1 -67 109 -67t108 67zM434 856q0 72 -108 72t-109 -72q1 -72 109 -72t108 72zM510 224q0 -110 -54 -170q-54 -62 -128 -62t-132 65t-59 167q0 102 49 172t135 69q85 1 137 -65t52 -176zM510 850q0 -109 -52 -169t-128 -60q-75 0 -134 63
t-59 165q0 101 49 171t135 70q85 0 137 -66t52 -174z" />
    <glyph glyph-name="quotesingle" unicode="&#xc85;" horiz-adv-x="1540" 
d="M514 879q0 71 -82 71t-123 -53q12 -111 107 -111q44 0 71 30t27 63zM1142 950q-48 0 -74 -26t-26 -60q0 -78 95 -78q42 0 79 22t41 56q-24 41 -30 47q-37 39 -85 39zM1419 651q0 -306 -216 -492q-194 -167 -457 -167t-443 179t-180 511q-1 173 85 319t230 146
q89 0 138 -67q49 -66 49 -172t-60 -193q-59 -87 -143 -88t-137 59t-68 145q-1 -32 6 -163q13 -217 160 -327t373 -110t384 108q185 127 185 363q0 64 -20 111q1 -146 -35 -213h-611v215h291q-2 20 -2 44q0 106 37 186q47 102 137 102q143 0 220 -147t77 -349z" />
    <glyph glyph-name="parenleft" unicode="&#xc86;" horiz-adv-x="1540" 
d="M1225 975q-95 0 -95 -95q0 -12 3 -24q29 -23 85 -23q97 0 97 66q0 76 -90 76zM510 874q0 76 -76 76t-102 -51q-8 -45 16 -77t70 -31q92 0 92 83zM1423 893q0 -195 -125 -279q56 -63 56 -186q0 -194 -174 -318t-438 -124q-265 0 -430 159q-189 183 -189 533q0 178 76 313
q86 156 229 156q98 1 148 -67t49 -174q0 -106 -64 -194q-63 -89 -151 -89t-133 53t-52 119q2 -47 2 -111q0 -234 158 -352q133 -101 349 -101t358 65q142 66 143 180q0 114 -35 128h-555v217h379q-37 74 -37 149q-1 75 49 126t156 51q106 -1 168 -73t63 -181z" />
    <glyph glyph-name="parenright" unicode="&#xc87;" horiz-adv-x="1520" 
d="M1024 575q-40 0 -66 -16q-53 -32 -2 -85q26 -28 64 -28q84 0 145 76q-42 53 -141 53zM1065 174q-1 22 33 102t39 103q-26 -21 -51 -42q-54 -38 -105 -38q-105 -1 -167 63t-62 134t64 124t166 54t174 -42t67 -44q25 10 43 48t18 79q0 87 -68 155t-170 68t-165 -54
q-40 -33 -117 -155q0 31 -64 103q-96 106 -247 106q-97 0 -161 -48t-65 -114q0 -133 215 -133q19 -44 19 -81q0 -75 -82 -75q-123 0 -194 94q-71 95 -73 229t84 236t242 101q92 -1 160 -53t108 -112t39 -67q81 134 145 183t189 49q126 -1 220 -105t94 -270q0 -105 -52 -214
q-3 -6 -57 -95q8 -20 8 -46t-30 -90t-31 -101q0 -37 29 -37q45 0 45 59q0 3 40 -5t39 -14l2 -69q0 -71 -46 -110q-46 -40 -112 -42t-114 42t-49 124z" />
    <glyph glyph-name="asterisk" unicode="&#xc88;" horiz-adv-x="1974" 
d="M1432 842q0 106 56 160t142 53q88 0 161 -75t73 -221t-114 -209q-34 -19 -38 -18q143 -143 143 -294q0 -106 -60 -178t-140 -72q-107 0 -148 141q89 1 133 59t43 155q0 97 -96 142h-278q-1 -204 -165 -358t-352 -154t-344 144q-155 144 -167 342h-189v155h217
q0 136 158 260h-184v220h698q59 0 112 40t54 89q2 101 -78 143q38 48 82 90q65 -34 103 -114t38 -173q0 -190 -159 -280q56 -33 105 -111t52 -162q136 -1 201 0q-59 120 -59 226zM790 207q118 -1 226 67t121 185h-684q11 -117 115 -185t222 -67zM1780 784q0 47 -34 75
t-79 28q-45 -1 -80 -31t-35 -93t37 -124q191 0 191 145zM804 897q-164 0 -261 -91q-79 -73 -90 -167h686q-10 99 -79 167q-92 91 -256 91z" />
    <glyph glyph-name="plus" unicode="&#xc89;" horiz-adv-x="2124" 
d="M541 822q-1 42 -37 83t-84 41t-84 -26t-37 -58q4 -133 139 -133q47 0 75 26q28 25 28 67zM1114 940q-82 0 -142 -85t-59 -209q0 -50 21 -147t21 -200q0 -313 -310 -313q-232 0 -383 227q-135 204 -135 465q0 196 72 324q80 145 225 145q94 0 154 -99q60 -100 61 -218
t-55 -202t-154 -85q-89 0 -180 229q-12 -44 -12 -143q0 -398 362 -398q239 0 239 217q-1 60 -19 146t-18 167q0 179 85 285t222 105q137 0 227 -125t89 -355q0 -73 -6 -123t-6 -67q0 -103 70 -177t179 -73t182 77t73 198t-97 253q-111 153 -300 208q-2 2 -2 33t23 78
q33 70 102 70q31 0 69 -15q148 -59 230 -241t83 -388t-107 -362t-285 -156t-257 139q-64 111 -64 288l12 189q0 150 -64 244t-146 94z" />
    <glyph glyph-name="comma" unicode="&#xc8a;" horiz-adv-x="2722" 
d="M545 822q0 42 -37 83q-36 41 -96 41t-91 -41q-11 -21 -22 -43q6 -133 143 -133q47 0 75 26q28 25 28 67zM1122 940q-82 0 -142 -84t-60 -207q0 -51 20 -141t20 -188q0 -334 -333 -334q-245 0 -382 225q-118 194 -118 467q0 195 78 332t223 137q96 -1 156 -99t59 -217
q0 -119 -56 -203t-155 -85q-89 0 -180 229q-14 -52 -14 -143q0 -398 366 -398q240 0 240 213q0 62 -18 146t-19 163q0 182 90 290q89 108 227 108t224 -122t86 -349q0 -78 -7 -134t-7 -82q0 -100 50 -166t146 -67q178 0 178 188q0 46 -12 114t-11 139q0 216 105 346t248 129
q178 0 320 -169t143 -442q0 -274 -99 -412q-100 -138 -222 -138t-212 94t-90 237q0 310 227 310q83 0 143 -46t60 -116q0 -71 -40 -107t-88 -36q-50 0 -84 28t-34 70q0 71 67 83l23 5q0 6 -49 6t-87 -38t-38 -102q0 -66 53 -104t141 -39t164 75q75 76 75 230t-112 268
q-113 114 -235 114t-200 -96t-78 -269q0 -65 10 -127t11 -112q-1 -158 -85 -243t-192 -85q-295 0 -295 403l12 208q0 151 -64 247t-147 96z" />
    <glyph glyph-name="hyphen" unicode="&#xc8b;" horiz-adv-x="2517" 
d="M457 342q0 80 -64 80q-29 0 -51 -32t-16 -64q7 -43 69 -43t62 59zM446 780q0 62 -68 62q-18 0 -40 -4q-5 -20 -5 -43q0 -86 60 -86q53 0 53 71zM1952 1110q155 0 318 -187t163 -415t-94 -374q-94 -148 -277 -148q-245 0 -327 305q-43 -157 -149 -233t-226 -76t-248 110
t-190 307q-21 -121 -69 -209q-116 -208 -353 -208q-144 0 -230 98t-86 206t52 171t146 63q93 0 142 -54t49 -124q0 -72 -42 -122q-41 -50 -109 -50t-100 33q15 -51 62 -85t101 -34q130 0 205 149q64 126 64 291q0 500 -252 500q-142 0 -193 -102q35 24 101 24t122 -46
t56 -132t-54 -132t-136 -44q-82 4 -148 68t-66 182q0 116 104 198t242 82q183 0 302 -121q145 -147 145 -436q105 -327 348 -327q99 0 159 57t59 154q0 97 -84 214t-255 220h-229v207h446q86 0 128 44t42 106q0 60 -69 120q53 49 80 80q129 -129 129 -254q1 -125 -65 -214
t-177 -89h-107q375 -217 375 -416q0 -35 -4 -51q42 -187 326 -187q102 -1 183 65t81 185q0 289 -401 404q-107 30 -107 116q0 43 33 77t84 34z" />
    <glyph glyph-name="slash" unicode="&#xc8e;" horiz-adv-x="1520" 
d="M1376 371q0 -157 -79 -271t-226 -114q-212 0 -321 256q-115 -256 -320 -256q-155 0 -234 110t-79 254q0 146 75 220q74 74 170 75q96 -1 161 -53t65 -122t-44 -104t-102 -34q13 54 13 74q0 67 -103 67q-50 0 -88 -25t-39 -73q0 -144 187 -144q240 0 313 224h47
q63 -224 287 -224q95 1 153 71t58 187q0 157 -187 295t-423 138q-66 0 -106 -8t-57 -8q-108 0 -108 104q0 53 60 95t178 42q241 0 464 -172q285 -222 285 -604z" />
    <glyph glyph-name="zero" unicode="&#xc8f;" horiz-adv-x="1520" 
d="M536 1008q132 0 132 131q0 64 -23 118q340 0 549 -257q184 -225 184 -515q0 -213 -89 -355t-257 -142q-191 0 -284 243q-99 -243 -293 -243q-166 0 -254 116t-88 258t80 221t173 75q92 -4 154 -59t62 -140t-50 -131t-112 -47q-60 0 -60 51q86 17 86 106q0 76 -104 76
q-51 0 -89 -30t-38 -85q1 -168 215 -168t297 215h45q58 -215 275 -215q229 0 229 310q0 208 -128 378q-145 193 -376 193q19 -66 19 -86q0 -89 -72 -160t-164 -71q-135 0 -219 99t-84 294v72h98q0 -120 60 -186q62 -66 126 -66z" />
    <glyph glyph-name="one" unicode="&#xc90;" horiz-adv-x="1520" 
d="M1372 487q0 -209 -90 -355t-258 -146t-274 231q-119 -231 -312 -231q-146 0 -234 121t-87 260q0 139 79 215t174 77q94 1 154 -49t60 -136t-58 -132t-98 -45q-41 0 -66 35q91 30 91 111t-121 81q-45 0 -75 -32t-30 -86q0 -175 205 -175q228 0 297 211l43 13
q10 -30 30 -78t78 -97t168 -49t171 81q61 80 61 218t-77 257q-90 141 -245 141q-210 0 -288 -189q-70 189 -260 189q-70 0 -127 -50t-57 -127q0 -11 1 -22q-37 0 -81 40t-44 124q0 120 87 187t206 67q236 0 275 -232q0 40 50 115q80 117 220 117q238 0 347 -216
q85 -168 85 -444z" />
    <glyph glyph-name="two" unicode="&#xc92;" horiz-adv-x="1520" 
d="M1169 600q110 0 170 -78t60 -200q0 -120 -88 -228t-234 -108q-214 0 -317 229q-132 -229 -322 -229q-133 0 -225 88t-92 212q0 125 86 222q2 1 161 143q87 76 87 146q0 153 -115 153t-115 -110q0 -99 88 -152q-35 -10 -49 -10q-72 0 -134 54t-62 164t69 180q69 71 185 71
q116 -1 196 -77t80 -194t-82 -200q-77 -66 -153 -131q-82 -79 -82 -169t64 -123q41 -19 142 -21t182 85q48 53 68 111q45 -82 79 -115q86 -84 204 -82t184 52t66 112q0 117 -164 117q-3 4 -3 19q0 69 66 69z" />
    <glyph glyph-name="three" unicode="&#xc93;" horiz-adv-x="1520" 
d="M68 897q0 142 98 215q-96 69 -96 178q0 174 215 174q72 0 139 -41l-12 -47q-152 -2 -152 -108q0 -73 49 -111h8q121 0 201 -78q80 -77 80 -195t-82 -202q-77 -67 -153 -134q-82 -80 -82 -177q0 -135 196 -140q115 -2 195 83q57 61 65 116q45 -84 85 -121q82 -78 200 -78
q118 -1 182 51q66 52 66 117q0 115 -164 115q-3 5 -3 19q0 71 66 71q110 0 170 -78t60 -200t-88 -231t-234 -109q-224 0 -317 229q-137 -229 -322 -229q-133 0 -225 88t-92 214t86 225q81 72 165 147t83 147q0 149 -115 149t-115 -108q0 -68 88 -156l-49 -8q-72 0 -134 55
t-62 158z" />
    <glyph glyph-name="four" unicode="&#xc94;" horiz-adv-x="1520" 
d="M68 910q0 117 79 190v100h330q37 0 37 48t-29 65q-30 4 -338 0v190h838q213 0 323 -132t111 -304q1 -173 -89 -287t-246 -114t-238 94t-82 209q0 116 66 193t170 77q106 0 160 -66q54 -67 54 -145t-40 -126t-105 -48q-137 0 -137 115q0 43 27 75t73 31q28 0 74 -63
q0 46 -26 81t-81 35t-91 -52t-36 -113q0 -62 56 -106t163 -44q107 1 173 75t65 172q0 98 -80 180q-80 84 -180 85l-498 4q62 -66 62 -133q0 -95 -103 -129q68 -77 68 -189t-82 -196q-77 -67 -153 -134q-82 -80 -82 -177q0 -140 195 -140t261 199q51 -88 78 -115
q85 -84 205 -84q120 -1 185 51t65 117q0 115 -164 115q-3 5 -3 19q0 71 66 71q111 0 171 -78t61 -200q-1 -122 -87 -232q-86 -108 -224 -108t-224 78q-87 78 -106 159q-22 -81 -116 -159t-216 -78t-215 88q-92 88 -92 215t86 224q81 72 165 147t83 147q0 151 -115 151
t-115 -110q0 -68 88 -156l-45 -8q-74 0 -137 54t-63 172z" />
    <glyph glyph-name="five" unicode="&#xc95;" horiz-adv-x="975" 
d="M338 400q0 -86 60 -132t144 -45q84 -1 144 45q59 46 59 134t-54 144q-54 58 -145 58q-92 0 -150 -58q-58 -60 -58 -146zM950 582h-164q103 -98 103 -256q-1 -158 -103 -249t-244 -91t-241 90q-100 90 -100 249q0 158 98 257h-176v180h391q27 20 27 54t-27 67h-391v207
h514q182 0 182 145q0 59 -67 115q4 0 40 37t35 40q123 -122 123 -243q0 -283 -282 -301q14 -39 14 -68t-10 -53h278v-180z" />
    <glyph glyph-name="six" unicode="&#xc96;" horiz-adv-x="1657" 
d="M424 432q-176 0 -176 -106q0 -35 28 -65t80 -30q112 0 231 31t113 37q4 0 -40 37q-112 96 -236 96zM1581 510q0 -239 -98 -371q-114 -153 -338 -153q-111 0 -202 78t-140 159q-175 -237 -397 -237q-133 0 -206 90t-73 198q0 106 76 184t239 79q105 0 213 -72
q46 -38 93 -76q73 90 73 260q0 115 -67 203t-183 88q-182 0 -182 -113q0 -56 68 -79q-2 6 -2 39q1 33 35 61t80 27q114 0 114 -121q0 -68 -48 -108t-116 -40q-122 0 -184 74t-62 177q0 104 61 183q73 97 212 97q175 0 286 -165q99 -146 99 -334t-70 -296q28 -37 94 -74
t156 -37q183 -1 273 85t90 214q0 230 -104 400t-252 170t-148 107q0 52 35 81t87 29q121 0 214 -70q125 -94 199 -296t75 -441z" />
    <glyph glyph-name="seven" unicode="&#xc97;" horiz-adv-x="1206" 
d="M1133 2h-215q0 452 -66 658q-70 223 -234 223t-234 -215t-71 -666h-213q0 376 56 545t215 336h-269v207h717q182 0 182 145q0 59 -67 115q4 0 40 37t36 40q123 -122 123 -243q0 -285 -283 -301q170 -175 226 -338t57 -543z" />
    <glyph glyph-name="eight" unicode="&#xc98;" horiz-adv-x="1587" 
d="M860 -283q0 -61 -41 -99t-97 -38t-94 37t-38 98t129 353q141 -289 141 -351zM1563 582q0 -129 -142 -129q-50 0 -96 24q4 -33 4 -98q0 -166 -80 -286q-79 -120 -243 -120t-297 207q-106 -205 -297 -205q-168 0 -258 138q-74 113 -74 259t78 223t174 77t160 -60t65 -168
q0 -64 -57 -104q-58 -40 -118 -40t-60 40q90 24 90 102q0 40 -30 62t-76 22q-44 0 -80 -34t-36 -103q0 -162 216 -162q154 0 228 96q44 57 44 101h49q0 -39 51 -100q81 -97 234 -97q219 0 219 129q0 85 -119 187q-74 63 -74 112t30 75t68 23q38 -2 72 -47t37 -49
q39 -33 117 -33t78 36t-84 143q49 45 63 31q144 -107 144 -252zM850 694q0 -58 -43 -100t-103 -41q-60 -1 -100 41q-41 42 -41 100t41 102q40 42 100 42t103 -42q43 -44 43 -102zM1563 1184q0 -301 -314 -301h-1151v207h1151q183 0 183 145q0 59 -68 115q4 0 40 37t36 40
q123 -122 123 -243z" />
    <glyph glyph-name="nine" unicode="&#xc99;" horiz-adv-x="1487" 
d="M1169 575q110 -1 170 -79t60 -198t-87 -216t-235 -96q-220 0 -317 227q-136 -227 -322 -227q-133 0 -225 88t-92 212q0 125 86 222q2 1 161 143q87 76 87 146q0 153 -115 153t-115 -110q0 -99 88 -152q-35 -10 -49 -10q-72 0 -134 54t-62 164t69 180q69 71 175 71
t184 -56t96 -151q233 207 424 207q192 -1 274 -79t82 -182t-54 -162q-54 -56 -149 -56q45 86 45 139q0 139 -245 139q-211 0 -387 -176q-24 -66 -105 -134q-125 -104 -132 -111q-64 -70 -64 -155t64 -114q40 -18 123 -18q82 0 136 37t92 86t39 49q2 -1 2 -9q6 6 15 6
q10 1 50 -49t94 -85t150 -35t160 37t64 96q0 116 -164 116q-3 5 -3 19q0 69 66 69zM950 702q0 -56 -40 -98q-40 -41 -98 -41q-58 1 -98 41t-40 97t40 97t98 40t98 -40t40 -96z" />
    <glyph glyph-name="colon" unicode="&#xc9a;" horiz-adv-x="1477" 
d="M1423 578h-206q55 -12 119 -83t65 -161q0 -134 -87 -241t-235 -107q-238 0 -319 227q-141 -227 -322 -227q-133 0 -225 88t-92 212q0 125 86 222q2 1 161 143q87 76 87 146q0 153 -115 153t-115 -110q0 -99 88 -152q-35 -10 -45 -10q-74 0 -137 54t-63 164t70 180t185 71
q115 0 195 -77q80 -76 80 -194t-82 -200q-77 -66 -153 -131q-82 -79 -82 -174q0 -140 196 -142q160 -1 260 199q22 -37 44 -75q83 -122 255 -122q104 1 169 51t65 104t-59 124q-59 68 -83 68h-290v215h309q44 0 44 45t-36 45h-311v207h268q182 0 182 145q0 59 -67 115
q3 0 39 37t37 40q120 -122 120 -243q0 -206 -149 -273q48 -65 45 -118h104v-215z" />
    <glyph glyph-name="semicolon" unicode="&#xc9b;" horiz-adv-x="1468" 
d="M541 827q1 74 -89 74t-120 -61q0 -95 92 -95q117 0 117 82zM918 -288q0 -60 -40 -96t-98 -36q-133 0 -133 135q0 57 129 348q142 -291 142 -351zM1100 -27q-187 0 -328 240q-141 -240 -309 -240q-169 -1 -263 175t-94 406t81 383q88 169 237 169q102 0 162 -84t59 -198
q0 -114 -59 -198q-58 -84 -154 -83q-96 0 -134 91q-12 48 -24 95q-67 -79 -67 -209t67 -214t199 -83q204 0 291 246q20 -45 39 -90q80 -156 239 -156q130 0 186 37t56 129q0 266 -201 407q-83 58 -200 87v207h198q183 0 183 145q0 59 -68 115q4 0 40 37t36 40
q123 -122 123 -243q0 -301 -305 -301q125 -78 216 -225q90 -147 88 -301t-80 -269t-214 -115z" />
    <glyph glyph-name="less" unicode="&#xc9c;" horiz-adv-x="1475" 
d="M68 904q0 110 69 182q69 71 180 71q178 0 248 -149q98 -84 127 -104q110 -75 224 -75t190 79q78 79 78 163q0 34 -15 55q156 -18 156 -145q1 -134 -99 -236t-228 -102t-254 81t-146 124q-8 -94 -91 -174q-75 -65 -149 -129q-77 -79 -77 -174q0 -140 196 -140
q124 0 209 80q62 58 76 119q36 -60 72 -121q67 -78 186 -78q118 -1 184 51t66 117q0 115 -164 115q-3 5 -3 19q0 71 66 71q110 0 170 -78t60 -200q0 -124 -88 -232t-234 -108q-215 0 -317 237q-142 -237 -322 -237q-133 0 -225 88t-92 214t86 225q81 72 165 147t83 147
q0 149 -115 149t-115 -108q0 -68 88 -156l-49 -8q-72 0 -134 55t-62 165z" />
    <glyph glyph-name="equal" unicode="&#xc9d;" horiz-adv-x="2548" 
d="M965 552q0 141 -99 236t-241 95t-241 -95q-99 -96 -99 -236t99 -234t241 -95q142 0 241 94t99 235zM1915 -288q0 -60 -43 -96t-98 -36t-92 36t-37 96t129 351q141 -291 141 -351zM1991 1110q155 0 319 -187t164 -415t-94 -374q-94 -148 -279 -148q-243 0 -327 307
q-79 -307 -347 -307q-249 0 -335 329q-54 -145 -182 -235t-285 -90q-208 0 -355 148t-147 358q0 129 54 238t114 149h-168v207h692q182 0 182 145q0 59 -67 115q2 0 38 37t36 40q122 -122 122 -243q0 -204 -176 -301q176 -186 176 -387q0 -40 -6 -80q14 -58 61 -103
q89 -84 263 -84q102 -1 183 65t81 185q0 289 -401 404q-107 30 -107 116q0 43 33 77t84 34q155 0 318 -187t163 -423q0 -31 -4 -84q57 -187 326 -187q100 -1 182 65t82 185q0 289 -404 404q-105 30 -105 116q1 43 33 77t83 34z" />
    <glyph glyph-name="greater" unicode="&#xc9e;" horiz-adv-x="2068" 
d="M1047 575q-91 1 -93 -71t88 -72t162 57q0 14 -46 50t-111 36zM1688 1147q139 0 223 -95q84 -94 84 -226t-74 -231q-73 -99 -163 -99t-90 74q0 33 11 55q101 0 153 47q52 46 52 110t-56 105t-151 41q-171 0 -262 -180q0 -104 -44 -189l-46 -70q8 -21 8 -54
q-1 -33 -37 -120t-36 -135q0 -37 57 -37q21 0 49 27t29 59q80 -8 80 -22v-2q1 5 1 0t1 -35q0 -70 -69 -124t-136 -54t-126 46t-59 116t62 188q-53 -57 -156 -57t-163 55t-60 134q0 80 66 140t182 60q115 0 242 -90q49 92 49 131q-1 85 -77 149t-171 64t-177 -44
q-100 -53 -100 -143q0 28 -66 94q-98 97 -251 97q-95 0 -161 -52t-66 -116q0 -121 215 -121q22 -41 22 -84q0 -72 -82 -72q-125 1 -197 95t-71 228q0 134 85 236t241 101q221 0 307 -209q0 209 309 209q95 -1 191 -55t135 -140q112 195 293 195z" />
    <glyph glyph-name="question" unicode="&#xc9f;" horiz-adv-x="1468" 
d="M393 563q96 0 96 71q1 71 -75 71t-97 -33q-7 -109 76 -109zM1155 752q107 0 173 -114t67 -261t-95 -269t-264 -122q-190 0 -286 215q-102 -215 -288 -215t-279 148q-77 122 -77 292t62 292t160 122q-25 0 -90 42q-92 61 -92 152t64 138t152 47q90 0 119 -50q-1 2 -41 -10
q-40 -13 -74 -45t-34 -94q0 -110 114 -170q144 -63 144 -225q0 -96 -52 -168t-131 -72q-78 0 -123 50t-52 120q-19 -48 -19 -125q1 -76 61 -134t181 -58q193 0 270 204h47q86 -204 270 -204q118 0 183 58t65 134t-57 128t-154 52h-157v176h168q22 0 44 23t23 75
q-1 52 -55 92q-54 42 -136 42t-104 24t-22 72q0 105 159 105q131 0 203 -80t72 -184t-62 -165q-39 -38 -57 -38z" />
    <glyph glyph-name="at" unicode="&#xca0;" horiz-adv-x="1202" 
d="M762 574q0 -56 -40 -96t-98 -40t-96 40t-39 96q0 57 39 96q38 39 96 39t98 -39t40 -96zM965 552q0 141 -99 236t-241 95t-241 -95q-99 -96 -99 -236t99 -234t241 -95q142 0 241 94t99 235zM1126 492q0 -206 -148 -354t-354 -148q-207 0 -354 148t-147 358q0 129 54 238
t114 149h-168v207h692q182 0 182 145q0 59 -67 115q2 0 38 37t36 40q122 -122 122 -243q0 -204 -176 -301q176 -186 176 -391z" />
    <glyph glyph-name="A" unicode="&#xca1;" horiz-adv-x="1444" 
d="M1251 401q0 119 -10 140q-106 -140 -244 -140q-87 0 -139 50t-51 118q-1 68 53 120t146 52t149 -71q0 83 -118 148t-313 65q-194 1 -324 -109t-130 -315q0 -228 215 -228q149 0 254 254q122 -254 287 -254q225 0 225 170zM1056 639q-52 0 -82 -18t-30 -41q0 -50 68 -50
q100 0 139 84q-43 25 -95 25zM1370 360q0 -158 -79 -266t-241 -108t-305 211q-117 -211 -286 -211q-133 0 -235 104t-101 295q0 334 270 498h-248v207h912q182 0 182 145q0 59 -68 115q5 0 41 37t35 40q123 -122 123 -243q0 -280 -272 -301q42 -21 100 -85t53 -120l-2 -43
q29 1 75 -97t46 -178z" />
    <glyph glyph-name="B" unicode="&#xca2;" horiz-adv-x="1444" 
d="M1251 401q0 119 -10 140q-106 -140 -244 -140q-87 0 -139 50t-51 118q-1 68 53 120t146 52t149 -71q0 83 -118 148t-313 65q-194 1 -324 -109t-130 -315q0 -228 215 -228q149 0 254 254q122 -254 287 -254q225 0 225 170zM1056 639q-52 0 -82 -18t-30 -41q0 -50 68 -50
q100 0 139 84q-43 25 -95 25zM750 66q134 -289 137 -350q3 -62 -39 -100t-98 -36t-94 38t-36 95t130 353zM1370 360q0 -158 -79 -266t-241 -108t-305 211q-117 -211 -286 -211q-133 0 -235 104t-101 295q0 334 270 498h-248v207h912q182 0 182 145q0 59 -68 115q5 0 41 37
t35 40q123 -122 123 -243q0 -280 -272 -301q42 -21 100 -85t53 -120l-2 -43q29 1 75 -97t46 -178z" />
    <glyph glyph-name="C" unicode="&#xca3;" horiz-adv-x="1554" 
d="M1479 530q0 -548 -365 -548q-140 0 -237 91t-97 234q0 260 252 260q82 1 140 -49t59 -131q-1 -81 -45 -115t-99 -34q-30 -6 -79 43q92 40 92 90q0 73 -82 73q-113 0 -113 -139q1 -71 65 -119t144 -49q128 1 195 111t67 298t-82 262q-82 75 -227 75q-274 0 -319 -232h-46
q-45 223 -235 223q-89 0 -159 -44t-70 -117q0 -154 225 -201v-47q-225 -36 -225 -215q0 -127 172 -127q64 0 120 67q0 6 25 -6t25 -28q-46 -158 -183 -158t-232 72t-95 198q0 175 157 228q-147 93 -147 307q0 135 100 215t273 80q212 0 276 -211q98 211 348 211
q213 0 316 -178q86 -147 86 -390z" />
    <glyph glyph-name="D" unicode="&#xca4;" horiz-adv-x="1223" 
d="M707 694q-136 0 -150 -78q-5 -22 17 -40t59 -19q148 0 221 105q0 8 -45 20t-102 12zM1147 392q1 -190 -149 -298t-355 -108t-355 104t-151 272q0 138 94 185q19 5 29 -35t10 -66q0 -108 125 -168q107 -53 263 -53t252 51q116 60 116 181q0 44 -41 100
q-141 -172 -346 -172q-113 0 -183 60q-70 59 -69 143q0 84 72 150t219 65q58 0 115 -22t63 -26q2 8 2 16q0 39 -35 75t-84 37h-594v207h689q184 0 184 145q0 59 -68 115q2 0 38 37t36 40q123 -122 123 -243q0 -233 -215 -301q88 -47 88 -213q127 -89 127 -278z" />
    <glyph glyph-name="E" unicode="&#xca5;" horiz-adv-x="1454" 
d="M885 666q0 -56 -42 -98q-43 -42 -99 -42t-95 41t-39 99t39 98q39 41 95 41q56 1 99 -41q42 -42 42 -98zM1219 453q0 165 -114 287q-133 143 -356 143q-223 -1 -349 -135t-126 -295q0 -97 48 -159t138 -63q88 -1 144 43t86 96t51 93q43 -93 74 -133q79 -99 183 -99t163 64
q58 64 58 158zM887 -288q0 -60 -42 -96t-97 -36q-56 0 -94 36t-38 96t132 351q139 -291 139 -351zM1378 344q0 -146 -83 -252t-236 -106q-179 0 -314 217q-93 -217 -301 -217q-163 0 -248 106t-85 260q-1 154 77 303q78 148 213 228h-278v207h944q182 0 182 145
q0 59 -67 115q4 0 40 37t35 40q121 -122 121 -243q0 -270 -266 -301q126 -96 196 -244t70 -295z" />
    <glyph glyph-name="F" unicode="&#xca6;" horiz-adv-x="1454" 
d="M1219 453q0 165 -114 287q-133 143 -356 143q-223 -1 -349 -135t-126 -295q0 -97 48 -159t138 -63q88 -1 144 43t86 96t51 93q43 -93 74 -133q79 -99 183 -99t163 64q58 64 58 158zM1378 344q0 -146 -83 -252t-236 -106q-179 0 -314 217q-93 -217 -301 -217
q-163 0 -248 106t-85 260q-1 154 77 303q78 148 213 228h-278v207h944q182 0 182 145q0 59 -67 115q4 0 40 37t35 40q121 -122 121 -243q0 -270 -266 -301q126 -96 196 -244t70 -295z" />
    <glyph glyph-name="G" unicode="&#xca7;" horiz-adv-x="1454" 
d="M1219 453q0 165 -114 287q-133 143 -356 143q-223 -1 -349 -135t-126 -295q0 -97 48 -159t138 -63q88 -1 144 43t86 96t51 93q43 -93 74 -133q79 -99 183 -99t163 64q58 64 58 158zM887 -288q0 -60 -42 -96t-97 -36q-56 0 -94 36t-38 96t132 351q139 -291 139 -351z
M1378 344q0 -146 -83 -252t-236 -106q-179 0 -314 217q-93 -217 -301 -217q-163 0 -248 106t-85 260q-1 154 77 303q78 148 213 228h-278v207h944q182 0 182 145q0 59 -67 115q4 0 40 37t35 40q121 -122 121 -243q0 -270 -266 -301q126 -96 196 -244t70 -295z" />
    <glyph glyph-name="H" unicode="&#xca8;" horiz-adv-x="1247" 
d="M1171 367q-1 -181 -87 -283t-214 -102t-205 113q-28 43 -98 222q-43 111 -172 111q-72 0 -127 -38t-55 -99q0 -89 65 -136q14 -10 120 -57q65 -28 65 -71q-1 -84 -99 -84t-177 129q-79 128 -83 268t60 222t198 83q204 0 267 -225q52 -189 245 -189q75 1 128 57t53 150
q0 158 -107 275q-79 87 -241 170h-590v207h743q182 0 182 145q0 59 -67 115q3 0 39 37t35 40q122 -122 122 -243q0 -282 -274 -301q274 -183 274 -516z" />
    <glyph glyph-name="I" unicode="&#xcaa;" horiz-adv-x="1454" 
d="M1050 -14q-168 0 -305 209q-98 -209 -290 -209q-169 0 -259 141q-73 113 -73 257t76 218q77 74 173 76t162 -58q66 -58 66 -163q0 -64 -56 -104t-117 -40q-60 0 -60 39q0 -8 44 20t44 73t-32 69t-71 23q-121 0 -121 -136q0 -170 215 -170q155 0 229 100q44 59 44 107h49
q0 -45 46 -105q77 -102 235 -102q202 0 219 179q10 110 -60 180t-70 122t32 79q32 28 59 28q141 0 149 -366q4 -193 -78 -330t-250 -137zM887 702q-1 -58 -43 -98t-101 -41q-59 0 -101 41q-42 40 -42 98t42 100t100 42t102 -42q43 -42 43 -100zM1378 1184q0 -301 -311 -301
h-924v207h924q182 0 182 145q0 59 -67 115q4 0 40 37t35 40q121 -122 121 -243z" />
    <glyph glyph-name="J" unicode="&#xcab;" horiz-adv-x="1454" 
d="M899 -290q0 -62 -42 -98t-99 -36t-94 36t-37 97t127 350q145 -287 145 -349zM1050 -14q-168 0 -305 209q-98 -209 -290 -209q-169 0 -259 141q-73 113 -73 257t76 218q77 74 173 76t162 -58q66 -58 66 -163q0 -64 -56 -104t-117 -40q-60 0 -60 39q0 -8 44 20t44 73
t-32 69t-71 23q-121 0 -121 -136q0 -170 215 -170q155 0 229 100q44 59 44 107h49q0 -45 46 -105q77 -102 235 -102q202 0 219 179q10 110 -60 180t-70 122t32 79q32 28 59 28q141 0 149 -366q4 -193 -78 -330t-250 -137zM887 702q-1 -58 -43 -98t-101 -41q-59 0 -101 41
q-42 40 -42 98t42 100t100 42t102 -42q43 -42 43 -100zM1378 1184q0 -301 -311 -301h-924v207h924q182 0 182 145q0 59 -67 115q4 0 40 37t35 40q121 -122 121 -243z" />
    <glyph glyph-name="K" unicode="&#xcac;" horiz-adv-x="1485" 
d="M751 991q0 109 115 109q248 0 396 -185t147 -469q0 -196 -87 -328t-253 -132q-197 0 -315 231q-133 -231 -316 -231q-133 0 -225 88t-92 212q0 125 86 222q2 1 161 143q87 76 87 146q0 153 -115 153t-115 -110q0 -99 88 -152q-35 -10 -49 -10q-72 0 -134 54t-62 164
t69 180q69 71 185 71q116 -1 196 -77t80 -194t-82 -200q-77 -66 -153 -131q-82 -79 -82 -174q0 -140 196 -140q177 0 260 236h49q0 -43 48 -119q72 -117 198 -117q126 -1 196 97t70 226t-76 226q-76 99 -214 99l-154 -5q-46 0 -74 36t-29 81z" />
    <glyph glyph-name="L" unicode="&#xcad;" horiz-adv-x="1499" 
d="M899 -286q0 -62 -41 -98t-96 -36t-94 37t-39 96t131 353q139 -290 139 -352zM1423 453q-1 -210 -81 -345t-242 -135q-206 0 -338 240q-137 -240 -324 -240q-133 1 -225 89t-92 214t86 225q81 71 165 147t83 149q0 149 -115 149t-115 -106t88 -158q-35 -10 -45 -10
q-74 0 -137 56t-63 166q0 112 70 182t186 71q116 0 195 -77q79 -78 79 -196t-82 -202q-77 -66 -153 -132q-82 -81 -82 -173t64 -123q41 -19 132 -19q119 0 201 112q59 80 59 116h49q0 -42 54 -116q81 -112 219 -112q266 0 266 242q-1 181 -69 299t-146 117h-203v207h205
q182 0 182 145q0 59 -67 115q3 0 39 37t37 40q120 -122 120 -243q0 -216 -163 -277q61 -48 112 -194t51 -260z" />
    <glyph glyph-name="M" unicode="&#xcae;" horiz-adv-x="2132" 
d="M1575 1110q153 0 317 -188t164 -414t-94 -374t-279 -148q-223 0 -313 264q-26 -116 -108 -190t-207 -74q-182 0 -293 239q-100 -239 -305 -239q-145 0 -237 126t-93 266q0 138 75 208t172 71q98 0 162 -58t64 -153q0 -65 -58 -105t-118 -40q-62 0 -62 39q93 27 93 92
q0 98 -93 98q-46 0 -84 -40t-38 -105q0 -154 217 -154q168 0 241 106q39 57 39 109h45q47 -215 267 -215q99 1 153 55t54 140q0 127 -114 258t-321 199h-708v207h952q182 0 182 145q0 59 -67 115q3 0 38 37t35 40q123 -122 123 -243q0 -301 -311 -301q139 -80 219 -205
t94 -262q50 -187 324 -187q100 -1 182 65t82 185q0 289 -401 404q-107 30 -107 116q0 45 33 78t84 33z" />
    <glyph glyph-name="N" unicode="&#xcaf;" horiz-adv-x="2441" 
d="M889 522q0 171 -97 268t-227 97q-131 0 -221 -86q-90 -85 -90 -229t84 -242t242 -99q158 0 243 100q66 78 66 191zM1884 1110q156 0 318 -187t163 -415q0 -228 -94 -374q-94 -148 -276 -148q-222 0 -316 262q-27 -118 -119 -192t-235 -74q-239 0 -371 309
q-103 -309 -350 -309q-210 0 -330 184t-119 410q0 226 96 376t271 150q239 0 373 -233q102 -177 102 -367q72 -271 306 -271q108 -1 164 65t56 166q-1 155 -115 288t-296 133h-70v207h336q185 0 185 145q0 59 -68 115q3 0 39 37t35 40q123 -122 123 -243q0 -293 -297 -301
q92 -67 145 -130q123 -144 148 -333q6 -52 52 -100q87 -91 271 -91q102 -1 183 65t81 185q0 289 -401 404q-106 30 -106 116q0 43 32 77t84 34z" />
    <glyph glyph-name="O" unicode="&#xcb0;" horiz-adv-x="1202" 
d="M965 552q0 141 -99 236t-241 95t-241 -95q-99 -96 -99 -236t99 -234t241 -95q142 0 241 94t99 235zM1126 492q0 -206 -148 -354t-354 -148q-207 0 -354 148t-147 358q0 129 54 238t114 149h-168v207h692q182 0 182 145q0 59 -67 115q2 0 38 37t36 40q122 -122 122 -243
q0 -204 -176 -301q176 -186 176 -391z" />
    <glyph glyph-name="P" unicode="&#xcb1;" horiz-adv-x="1487" 
d="M1217 625h-959q-2 60 -8 123q-61 -76 -61 -204q1 -128 67 -220t194 -93q128 0 209 97q58 68 58 100h47q0 -31 58 -101q80 -96 207 -96q127 1 195 83t68 188t-32 190q-43 -47 -43 -67zM401 922q-39 0 -63 -40t-23 -67q7 -70 70 -70q45 0 72 30t27 68q0 79 -83 79z
M1008 837q0 -37 26 -65t64 -27q38 0 64 17q28 17 28 53t-29 68t-74 32q-79 0 -79 -78zM1090 1120q134 0 210 -156t76 -385q0 -230 -92 -400q-103 -191 -280 -191t-259 207q-104 -209 -281 -209t-276 191q-88 169 -88 399t76 385t209 155q203 0 203 -340q32 -3 170 -3t147 3
l-2 66q0 278 187 278z" />
    <glyph glyph-name="Q" unicode="&#xcb2;" horiz-adv-x="1450" 
d="M657 821q0 86 -127 86q-50 0 -84 -10q-22 -45 -22 -78q0 -84 96 -84q52 0 94 23t43 63zM1386 592q0 -276 -186 -440t-457 -164q-270 0 -450 157t-180 447q0 246 113 384t259 138q113 0 191 -76t78 -211q0 -134 -68 -207t-156 -73t-150 64t-63 180q1 6 3 19t2 17
q-97 -96 -97 -237q0 -187 150 -279q131 -82 366 -82q235 1 389 95t154 254t-82 244q-82 85 -166 85q-50 -1 -78 31t-29 76q1 44 31 76t87 32q143 0 241 -152t98 -378z" />
    <glyph glyph-name="R" unicode="&#xcb3;" horiz-adv-x="1237" 
d="M797 250q0 101 -113 112q-42 -4 -68 -38t-26 -76q0 -101 102 -101q43 0 74 28t31 75zM504 864q0 68 -92 68q-60 0 -84 -23q-6 -38 0 -55q8 -47 92 -47t84 57zM1161 642q1 -108 -81 -184t-191 -87q-36 -4 -94 -4q123 -55 123 -144q0 -115 -73 -183t-167 -67
q-94 -1 -164 59t-70 169q0 69 50 108t63 39q-93 0 -125 8q-153 39 -229 127q-76 89 -76 267q1 178 85 270t194 92q80 0 137 -56t57 -165q0 -107 -54 -165t-125 -58q-69 0 -125 52t-48 120q-21 -49 -21 -111q0 -91 90 -125q27 -10 149 -30t164 -32q44 -14 95 -53
q68 52 113 58q78 19 141 71t63 100t-26 95q-26 48 -58 70h-286v207h178q182 0 182 145q0 59 -67 115q3 0 39 37t36 40q121 -122 121 -243q0 -200 -143 -266q143 -168 143 -276z" />
    <glyph glyph-name="S" unicode="&#xcb5;" horiz-adv-x="1454" 
d="M1378 348q0 -172 -94 -268q-94 -94 -229 -94q-182 0 -293 239q-100 -239 -305 -239q-145 0 -237 126t-93 266q0 138 75 208t172 71q98 0 162 -58t64 -153q0 -65 -58 -105t-118 -40q-62 0 -62 39q93 27 93 92q0 98 -93 98q-46 0 -84 -40t-38 -105q0 -154 217 -154
q168 0 241 106q39 57 39 109h45q47 -215 267 -215q99 1 153 55t54 140q0 127 -114 258t-321 199h-708v207h952q182 0 182 145q0 59 -67 115q3 0 38 37t35 40q123 -122 123 -243q0 -301 -311 -301q145 -83 229 -223t84 -312z" />
    <glyph glyph-name="T" unicode="&#xcb6;" horiz-adv-x="1231" 
d="M262 332q0 -129 260 -129q260 -1 370 73q109 74 109 282t-241 306q53 -78 53 -162q0 -124 -86 -204q-85 -80 -225 -80t-169 -6q-71 -15 -71 -80zM1157 478q0 -255 -181 -380q-162 -112 -454 -112q-186 0 -301 78t-115 237q0 158 128 203q59 20 270 20q90 0 140 57t50 127
q1 70 -43 122q-43 52 -111 53q-68 -1 -106 -37t-39 -82q0 -46 33 -72q32 -26 64 -25q32 0 49 7q-110 0 -110 82q-1 36 25 62t66 26q113 0 113 -107q0 -61 -43 -107t-123 -46t-134 52t-54 124t32 123h-186v207h717q182 0 182 145q0 59 -68 115q4 0 40 37t36 40
q123 -122 123 -243q0 -258 -233 -297q233 -154 233 -409z" />
    <glyph glyph-name="U" unicode="&#xcb7;" horiz-adv-x="1462" 
d="M1467 -22q0 -38 -37 -70q-21 -14 -55 -14q-33 0 -63 30t-93 107q-76 -49 -170 -49q-160 0 -301 208q-106 -208 -284 -208t-268 141q-73 114 -73 258q1 143 77 219t172 78t162 -58q66 -59 66 -165q0 -64 -56 -104t-117 -40q-60 0 -60 39q88 24 88 103q1 36 -31 59t-72 23
q-121 0 -121 -136q0 -168 215 -168q154 0 229 99q44 59 44 102h51q0 -40 55 -103q86 -100 246 -98q-32 40 -242 277l78 49l299 -285q66 45 66 141q0 95 -65 155t-65 111t31 83t56 31q78 0 120 -97q42 -96 37 -260t-61 -276q115 -115 125 -119q17 -25 17 -63zM887 700
q0 -58 -42 -100q-42 -43 -100 -43q-57 0 -99 43q-42 42 -42 100t42 99t98 41q58 0 100 -41t43 -99zM1386 1184q0 -301 -311 -301h-948v207h948q182 0 182 145q0 59 -67 115q2 0 38 37t36 40q122 -122 122 -243z" />
    <glyph glyph-name="V" unicode="&#xcb8;" horiz-adv-x="1212" 
d="M1137 382q0 -136 -72 -266t-172 -130q-58 0 -88 93q-45 137 -70 172q-67 93 -229 93t-236 -108q-51 -73 -51 -182q0 -38 4 -56q-96 60 -96 202q-1 142 99 254t264 113q164 0 247 -89q50 -54 83 -154t54 -101q56 -1 86 67t29 188q0 120 -49 327q81 0 139 -143
q58 -144 58 -280zM649 716q0 -48 -33 -80q-32 -32 -80 -32t-81 32t-33 80t33 80t80 33q47 -1 81 -33t33 -80zM1137 1184q0 -301 -312 -301h-680v207h680q183 0 183 145q0 59 -68 115q2 0 38 37t36 40q123 -122 123 -243z" />
    <glyph glyph-name="W" unicode="&#xcb9;" horiz-adv-x="1544" 
d="M477 606q-99 0 -151 -58t-52 -137q0 -80 54 -139t158 -59t188 89q61 65 61 91q-70 213 -258 213zM1298 406q0 78 -54 136t-163 58t-177 -98q-44 -63 -44 -101q38 -194 234 -194q96 0 150 60t54 139zM1094 707q182 0 278 -101t96 -246q0 -146 -100 -260t-266 -114
q-198 0 -316 184q-97 -184 -323 -184q-169 0 -263 110t-94 256t94 252t247 105q153 0 237 -97q55 -64 55 -92q1 34 -39 119t-93 139t-169 105h-344v207h1061q182 0 182 145q0 59 -67 115q3 0 38 37t35 40q123 -122 123 -243q0 -301 -311 -301h-555q94 1 172 -127t78 -215
q0 20 53 80q76 86 191 86z" />
    <glyph glyph-name="X" unicode="&#xcbe;" horiz-adv-x="799" 
d="M143 1090q239 0 411 -195t171 -411t-101 -358q-100 -144 -272 -144t-251 123q-60 95 -60 237q1 142 71 213q70 70 169 70t147 -58q48 -57 49 -125q0 -68 -36 -108t-97 -41t-92 33t-29 80q4 90 86 90q33 0 51 -31q4 19 -14 37t-66 18q-46 0 -92 -44t-45 -109
q0 -189 213 -189q128 0 198 84t71 203q1 153 -121 285t-285 133h-698v207h622z" />
    <glyph glyph-name="Y" unicode="&#xcbf;" horiz-adv-x="14" 
d="M-385 1440q-90 0 -90 -70q-8 -67 90 -67q76 0 86 75q0 14 -22 38t-64 24zM-397 1149q-87 0 -131 64q-44 63 -41 157t59 169t154 75t153 -71q100 -129 10 -371q-45 -118 -100 -175h-137q38 68 98 170q-37 -18 -65 -18z" />
    <glyph glyph-name="Z" unicode="&#xcc0;" horiz-adv-x="827" 
d="M-385 1440q-90 0 -90 -70q-8 -67 90 -67q76 0 86 75q0 14 -22 38t-64 24zM598 838q0 94 -121 94q-41 0 -110 -31q0 -162 122 -162q47 -1 78 29t31 70zM-397 1149q-87 0 -131 64q-44 63 -41 157t59 169t154 75t153 -71q100 -129 10 -371q-45 -118 -100 -175h-137
q38 68 98 170q-37 -18 -65 -18zM111 633q0 197 90 338t245 141q126 0 188 -78t60 -192q-2 -112 -62 -200t-160 -89q-100 0 -151 81t-51 193q-21 -13 -37 -75t-16 -129q0 -183 130 -354q149 -196 405 -269h-346q-144 96 -220 266t-75 367z" />
    <glyph glyph-name="x" unicode="&#xcc1;" horiz-adv-x="684" 
d="M127 1110q155 0 319 -187t164 -415t-89 -366q-99 -156 -290 -156t-287 210q-57 125 -57 214l43 10q10 -25 19 -50q29 -57 101 -99t189 -42q117 -1 199 65t82 185q0 289 -403 404q-106 30 -106 116q1 43 33 77t83 34z" />
    <glyph glyph-name="backslash" unicode="&#xcc2;" horiz-adv-x="1417" 
d="M807 1147q226 0 380 -178t154 -461q1 -282 -93 -404t-294 -122q-143 0 -231 126t-88 271q0 144 63 207q63 64 146 66t141 -46q57 -48 57 -120t-37 -108q-37 -34 -85 -34t-83 30q-34 30 -34 71q0 42 24 75q-35 0 -63 -28t-29 -91q-1 -62 65 -118t164 -56q98 1 189 79
q92 78 92 194q-1 218 -121 334t-299 116q-137 0 -234 -100t-97 -249q0 -37 20 -157q20 -119 21 -159q-1 -125 -69 -211t-202 -86q-164 0 -278 147q-97 125 -97 248q112 -156 312 -156q109 0 161 32t52 121q0 36 -14 106t-13 157q-1 232 119 368t301 136z" />
    <glyph glyph-name="bracketright" unicode="&#xcc3;" horiz-adv-x="356" 
d="M-170 -360q76 0 76 60t-66 60q-34 0 -61 -22t-29 -45q28 -53 80 -53zM283 -223q0 -211 -77 -338q-89 -148 -265 -148q-144 0 -225 101t-81 217t57 190q58 74 140 74t125 -46t43 -112t-42 -120t-104 -54t-95 53q-21 35 -21 50q0 -92 53 -146t121 -55q126 1 190 105t64 264
q0 289 -174 514q42 41 76 41q95 0 162 -259q53 -201 53 -331z" />
    <glyph glyph-name="asciicircum" unicode="&#xcc4;" horiz-adv-x="283" 
d="M-610 -481q-60 0 -82 -56q30 -53 76 -53q71 0 69 60q-3 49 -63 49zM190 -399q0 61 -77 102q-28 3 -78 12q-36 -48 -37 -112q-4 -111 94 -111t98 109zM-27 -133q153 0 231 -80q78 -81 77 -191q1 -110 -61 -193t-152 -83t-136 61q-45 61 -45 161t88 196h-352
q160 -108 162 -389q1 -131 -69 -217t-210 -86t-224 100q-82 100 -84 220t50 195q52 74 136 74q84 1 124 -49t39 -129q0 -157 -157 -157q-49 0 -92 34q37 -127 194 -127q90 1 142 51t51 128q0 217 -205 331q-2 41 0 150h493z" />
    <glyph glyph-name="underscore" unicode="&#xcc6;" horiz-adv-x="84" 
d="M-406 1270q0 86 60 134t152 48q90 0 158 -72t69 -208q0 -136 -91 -213q-91 -76 -192 -76h-156v207h156q158 0 158 127q0 65 -36 101t-87 36q-111 0 -111 -84q0 -38 35 -47q-6 18 -6 30q0 62 55 62q76 0 76 -91t-117 -91q-123 0 -123 137z" />
    <glyph glyph-name="grave" unicode="&#xcc7;" horiz-adv-x="827" 
d="M598 838q0 94 -121 94q-41 0 -110 -31q0 -162 122 -162q47 -1 78 29t31 70zM111 633q0 197 90 338t245 141q126 0 188 -78t60 -192q-2 -112 -62 -200t-160 -89q-100 0 -151 81t-51 193q-21 -13 -37 -75t-16 -129q0 -183 130 -354q149 -196 405 -269h-346
q-144 96 -220 266t-75 367zM-406 1270q0 86 60 134t152 48q90 0 158 -72t69 -208q0 -136 -91 -213q-91 -76 -192 -76h-156v207h156q158 0 158 127q0 65 -36 101t-87 36q-111 0 -111 -84q0 -38 35 -47q-6 18 -6 30q0 62 55 62q76 0 76 -91t-117 -91q-123 0 -123 137z" />
    <glyph glyph-name="a" unicode="&#xcc8;" horiz-adv-x="326" 
d="M18 -313q0 23 -20 43t-50 20q-29 0 -56 -20t-27 -42t27 -35t49 -13q77 0 77 47zM319 -400q-1 -130 -69 -238q-68 -107 -198 -107q-130 1 -206 111q-77 110 -77 234q1 124 49 198t127 75q79 0 118 -51q39 -52 39 -122t-42 -122t-115 -51q-29 0 -62 48t-33 54
q0 -91 51 -159t121 -68t128 71q59 71 59 167q0 170 -160 330q-49 48 -53 48q60 84 64 162t-33 182q73 -4 113 -56t40 -126q0 -132 -78 -194q4 1 56 -38q161 -126 161 -348zM-406 1270q0 86 60 134t152 48q90 0 158 -72t69 -208q0 -136 -91 -213q-91 -76 -192 -76h-156v207
h156q158 0 158 127q0 65 -36 101t-87 36q-111 0 -111 -84q0 -38 35 -47q-6 18 -6 30q0 62 55 62q76 0 76 -91t-117 -91q-123 0 -123 137z" />
    <glyph glyph-name="b" unicode="&#xcca;" horiz-adv-x="1417" 
d="M-406 1270q0 86 60 134t152 48q90 0 158 -72t69 -208q0 -136 -91 -213q-91 -76 -192 -76h-156v207h156q158 0 158 127q0 65 -36 101t-87 36q-111 0 -111 -84q0 -38 35 -47q-6 18 -6 30q0 62 55 62q76 0 76 -91t-117 -91q-123 0 -123 137zM807 1147q226 0 380 -178
t154 -461q1 -282 -93 -404t-294 -122q-143 0 -231 126t-88 271q0 144 63 207q63 64 146 66t141 -46q57 -48 57 -120t-37 -108q-37 -34 -85 -34t-83 30q-34 30 -34 71q0 42 24 75q-35 0 -63 -28t-29 -91q-1 -62 65 -118t164 -56q98 1 189 79q92 78 92 194q-1 218 -121 334
t-299 116q-137 0 -234 -100t-97 -249q0 -37 20 -157q20 -119 21 -159q-1 -125 -69 -211t-202 -86q-164 0 -278 147q-97 125 -97 248q112 -156 312 -156q109 0 161 32t52 121q0 36 -14 106t-13 157q-1 232 119 368t301 136z" />
    <glyph glyph-name="c" unicode="&#xccb;" horiz-adv-x="2208" 
d="M1978 838q0 94 -118 94q-42 0 -111 -31q0 -162 123 -162q46 -1 76 29t30 70zM-406 1270q0 86 60 134t152 48q90 0 158 -72t69 -208q0 -136 -91 -213q-91 -76 -192 -76h-156v207h156q158 0 158 127q0 65 -36 101t-87 36q-111 0 -111 -84q0 -38 35 -47q-6 18 -6 30
q0 62 55 62q76 0 76 -91t-117 -91q-123 0 -123 137zM807 1147q226 0 380 -178t154 -461q1 -282 -93 -404t-294 -122q-143 0 -231 126t-88 271q0 144 63 207q63 64 146 66t141 -46q57 -48 57 -120t-37 -108q-37 -34 -85 -34t-83 30q-34 30 -34 71q0 42 24 75q-35 0 -63 -28
t-29 -91q-1 -62 65 -118t164 -56q98 1 189 79q92 78 92 194q-1 218 -121 334t-299 116q-137 0 -234 -100t-97 -249q0 -37 20 -157q20 -119 21 -159q-1 -125 -69 -211t-202 -86q-164 0 -278 147q-97 125 -97 248q112 -156 312 -156q109 0 161 32t52 121q0 36 -14 106t-13 157
q-1 232 119 368t301 136zM1491 632q0 196 91 338t247 142q125 0 187 -78t60 -191t-63 -201t-161 -89q-100 0 -150 81t-51 193q-20 -13 -36 -75t-16 -129q0 -183 140 -367t395 -256h-348q-143 96 -219 266t-76 366z" />
    <glyph glyph-name="d" unicode="&#xccc;" horiz-adv-x="1120" 
d="M1044 760q0 -296 -126 -496t-281 -201q-204 0 -315 149q-99 131 -99 331q0 151 83 243t212 93q79 -1 149 -79t70 -198q-1 -70 -47 -120t-98 -48t-84 32t-33 77t29 75t69 27q39 0 72 -20q-7 161 -127 161q-84 0 -146 -72t-63 -178q1 -106 79 -196q78 -92 220 -92t249 132
q106 132 106 335q0 333 -185 476q-150 116 -440 116q-291 5 -291 0q-1 -193 -93 -309t-253 -115h-283v207h336q195 0 195 172q0 26 -6 51h-439v209h844q316 0 506 -192t190 -570z" />
    <glyph glyph-name="e" unicode="&#xccd;" horiz-adv-x="844" 
d="M332 688q120 0 120 88q0 42 -40 74t-113 33h-104q-6 -67 15 -117q33 -78 122 -78zM776 1067q0 -86 -88 -72q0 47 -58 93t-174 45q-116 0 -186 -43q308 -26 308 -314q0 -124 -72 -202t-170 -78t-174 92q-74 92 -74 276v19h-522v207h555q7 112 105 170t225 57
q127 0 226 -70t99 -180z" />
    <glyph glyph-name="f" unicode="&#xcd5;" horiz-adv-x="827" 
d="M598 838q0 94 -121 94q-41 0 -110 -31q0 -162 122 -162q47 -1 78 29t31 70zM111 633q0 197 90 338t245 141q126 0 188 -78t60 -192q-2 -112 -62 -200t-160 -89q-100 0 -151 81t-51 193q-21 -13 -37 -75t-16 -129q0 -183 130 -354q149 -196 405 -269h-346
q-144 96 -220 266t-75 367z" />
    <glyph glyph-name="g" unicode="&#xcd6;" horiz-adv-x="344" 
d="M-33 -313q0 63 -71 63q-26 0 -53 -19t-27 -42t26 -36t47 -13q78 0 78 47zM270 -400q0 -130 -69 -238t-198 -107t-207 111t-79 234t49 198t128 75t119 -51q40 -52 40 -122t-42 -122t-115 -51q-39 0 -97 102q1 -91 51 -159t120 -68t130 71t60 165q0 203 -215 380
q63 86 65 162t-33 182q73 -4 113 -56t39 -126q0 -129 -76 -194q3 2 55 -38q162 -127 162 -348z" />
    <glyph glyph-name="h" unicode="&#xcde;" horiz-adv-x="1475" 
d="M420 893q-38 0 -66 -28t-28 -52q13 -59 80 -59q44 0 70 22t25 53q0 64 -81 64zM1190 815q0 35 -32 57t-68 21q-76 0 -76 -62q0 -71 88 -71t88 55zM1094 1100q135 0 220 -152t85 -378t-93 -392q-106 -190 -294 -190t-267 194q-95 -196 -269 -196t-278 204q-92 182 -92 406
t81 363q81 138 219 139q96 1 148 -69q52 -69 51 -175q0 -106 -58 -191t-146 -85t-116 71q-6 38 -13 76q-59 -77 -59 -203q-1 -126 63 -208q64 -83 193 -83q203 0 258 211h49q0 -47 38 -107q66 -104 210 -104q270 0 270 283q0 79 -26 156q-60 -78 -152 -78t-154 87
q-60 87 -60 189t49 168q49 64 143 64z" />
    <glyph glyph-name="i" unicode="&#xce0;" horiz-adv-x="3262" 
d="M457 342q0 80 -64 80q-29 0 -51 -32t-16 -64q7 -43 69 -43t62 59zM446 780q0 62 -68 62q-18 0 -40 -4q-5 -20 -5 -43q0 -86 60 -86q53 0 53 71zM2654 1147q225 -1 380 -179t155 -460t-94 -404t-293 -122q-144 0 -233 127t-89 271t64 206q64 64 146 66t140 -46t58 -120
t-38 -108q-36 -34 -84 -34t-84 30q-34 30 -34 71q0 42 25 75q-34 0 -63 -28q-30 -28 -30 -91q0 -62 66 -118t164 -56q98 1 189 79t91 194q0 218 -120 334t-299 116q-137 0 -234 -102t-97 -250q0 -42 21 -158t21 -155q0 -125 -68 -211t-208 -86t-238 105t-123 229
q-34 -146 -133 -242q-98 -96 -234 -98t-266 108q-130 112 -190 309q-21 -121 -69 -209q-116 -208 -353 -208q-144 0 -230 98t-86 206t52 171t146 63q93 0 142 -54t49 -124q0 -72 -42 -122q-41 -50 -109 -50t-100 33q15 -51 62 -85t101 -34q130 0 205 149q64 126 64 291
q0 500 -252 500q-142 0 -193 -102q35 24 101 24t122 -46t56 -132t-54 -132t-136 -44q-82 4 -148 68t-66 182q0 116 104 198t242 82q183 0 302 -121q145 -147 145 -436q105 -327 348 -327q99 0 159 57t59 154q0 97 -84 214t-255 220h-229v207h446q86 0 128 44t42 106
q0 60 -69 120q53 49 80 80q129 -129 129 -254q1 -125 -65 -214t-177 -89h-107q119 -35 247 -173t128 -268l-6 -80q109 -135 295 -135q110 0 162 32t52 120q0 37 -14 107t-13 157q-1 232 119 368t302 136z" />
    <glyph glyph-name="j" unicode="&#xce6;" horiz-adv-x="1249" 
d="M1020 545q0 127 -93 233q-115 131 -304 131q-189 1 -295 -113t-105 -262q0 -148 116 -240t276 -93q161 -1 283 91t122 253zM604 1122q240 0 376 -168t136 -420q0 -254 -150 -400t-350 -146q-201 0 -347 152t-146 402t140 414q140 166 341 166z" />
    <glyph glyph-name="k" unicode="&#xce7;" horiz-adv-x="1249" 
d="M1180 524q0 -190 -114 -358t-177 -168q-119 0 -119 94q0 -4 89 73t160 176t71 204q0 153 -140 240t-326 87t-324 -87t-138 -240q0 -181 236 -385q83 -72 83 -68q0 -94 -125 -94q-60 0 -170 168t-110 358q0 270 162 420t388 150t390 -150t164 -420z" />
    <glyph glyph-name="l" unicode="&#xce8;" horiz-adv-x="1249" 
d="M770 1122q185 0 288 -150t103 -377q0 -228 -103 -399q-117 -194 -319 -194h-655v229h692q125 0 199 112t74 247t-78 222t-226 87q-92 0 -142 -41t-50 -96q0 -94 96 -94q76 0 76 47q0 23 -41 106h76q44 0 74 -40q30 -41 30 -105t-52 -116t-152 -52q-101 0 -154 74t-53 197
q-1 123 85 233t232 110z" />
    <glyph glyph-name="m" unicode="&#xce9;" horiz-adv-x="1249" 
d="M399 416q-73 0 -115 -31t-42 -76q0 -80 138 -80t212 113q-80 74 -193 74zM463 741q0 -131 -148 -131q-69 0 -133 60t-65 169q0 111 80 197t186 86q141 0 259 -136t118 -376q0 -68 -20 -156t-25 -102q25 -15 90 -88q37 -54 71 -67t90 -13t83 64q10 16 10 47l45 12
q0 7 11 -26t11 -105t-58 -130t-136 -58q-139 0 -213 168q-20 45 -51 94q-126 -209 -301 -209q-129 0 -195 65q-66 64 -66 164t80 180t207 80q128 0 236 -86q22 77 22 138q0 325 -274 325q-152 0 -152 -92q0 -33 23 -55t51 -23q39 -1 39 37t-6 43l35 33q24 -8 49 -15
q47 -28 47 -94z" />
    <glyph glyph-name="n" unicode="&#xcea;" horiz-adv-x="1249" 
d="M793 252q0 104 -125 137q-88 -48 -88 -147q0 -41 32 -68t72 -27q42 -1 76 27t33 78zM1161 776q0 -224 -204 -316q-84 -39 -203 -48q143 -61 143 -175q0 -113 -66 -179t-157 -66q-92 0 -160 60t-68 166q0 108 99 157h-58q-171 1 -278 85t-107 267t82 291t211 108
q101 0 177 -80t77 -190q0 -110 -56 -164t-128 -55q-72 0 -121 43t-49 118t100 124q0 -64 30 -98t67 -33q61 0 61 59q0 90 -111 90q-87 0 -163 -59t-76 -160t61 -139q60 -38 186 -37q126 0 218 -47q98 4 171 33q171 68 171 233q0 102 -62 140q-19 11 -116 32q-62 14 -62 59
q0 71 19 95q30 38 140 38t171 -111t61 -241z" />
    <glyph glyph-name="o" unicode="&#xceb;" horiz-adv-x="1249" 
d="M213 242q0 -82 96 -82q50 0 141 80q121 107 121 264q-18 -3 -51 -8q-137 -18 -222 -84t-85 -170zM1067 797q-1 61 -41 93t-94 32q-119 0 -119 -135t76 -160q178 30 178 170zM932 1126q89 0 161 -84t72 -210t-123 -206q-85 -55 -120 -55q85 -55 160 -171t75 -212t-45 -150
q-45 -52 -108 -52t-104 54t-34 62q92 36 92 149t-20 172t-107 130q-45 -21 -153 -23q0 -251 -113 -390t-256 -142q-93 -2 -159 56t-66 159q0 141 152 249t335 107q7 31 7 66q0 151 -80 224q-62 59 -142 59t-128 -31q-46 -31 -46 -71t29 -69q29 -28 72 -28q89 0 79 110
q107 -35 107 -79q1 -70 -49 -120t-128 -50t-143 66t-65 190t76 206q76 84 193 84t221 -148t104 -394q12 -4 51 -4t74 22q-94 136 -94 260t67 194t156 70z" />
    <glyph glyph-name="p" unicode="&#xcec;" horiz-adv-x="1249" 
d="M610 610q0 34 -42 58t-100 24t-116 -24q15 -127 148 -127q110 0 110 69zM121 995q1 55 39 85t96 30t108 -45q48 -45 48 -125q0 -36 -38 -92t-32 -94q0 3 38 32t79 29q115 0 178 -59q63 -58 63 -138t-56 -141t-146 -61q-180 0 -238 184q-55 -68 -55 -161q-1 -93 55 -151
t168 -57h684v-229h-649q-177 0 -269 114t-92 293q0 180 140 326q-1 34 18 96t19 76q0 36 -63 36l-71 -3q-6 0 -15 18t-9 37z" />
    <glyph glyph-name="q" unicode="&#xced;" horiz-adv-x="1249" 
d="M1137 2h-828q-225 0 -225 221q0 143 140 230q129 62 259 125q140 76 140 194q0 48 -35 75t-80 27q-98 0 -98 -94q0 -38 104 -98l-86 -25q-154 40 -154 209q0 112 70 176t169 62q99 -1 175 -72t76 -194q0 -168 -136 -267q-16 -12 -252 -129q-136 -67 -136 -157
q0 -54 73 -54h824v-229z" />
    <glyph glyph-name="r" unicode="&#xcee;" horiz-adv-x="1249" 
d="M543 795q0 112 -168 116q-27 -48 -27 -97t28 -77t66 -28q39 -1 70 23t31 63zM1128 874h-200q-88 0 -88 -53q0 -45 96 -141t113 -120q73 -94 73 -189q0 -173 -137 -279t-343 -106t-360 153q-178 176 -178 488q0 231 90 354t194 123t172 -84t69 -216q-1 -131 -61 -197
t-136 -66q-76 -1 -128 55t-52 164q0 47 2 67q-51 -86 -51 -198q0 -204 126 -315q125 -111 279 -111q154 -1 252 63t98 176q0 84 -63 154q-58 60 -117 120q-63 78 -63 176q1 98 55 148t137 50h221v-216z" />
    <glyph glyph-name="s" unicode="&#xcef;" horiz-adv-x="1249" 
d="M453 514q147 0 147 72t-134 71q-134 0 -212 -92q6 -11 59 -31t140 -20zM1122 874h-727q-64 0 -123 -46t-59 -106t16 -97q45 56 64 71q77 64 187 64t172 -60t63 -141q0 -81 -65 -142t-173 -61q-152 0 -254 107q-10 -27 -10 -57q-1 -102 65 -156t147 -55q81 0 167 30
q47 -48 47 -98q0 -49 -62 -95t-145 -46q-123 0 -221 88t-98 249q0 162 43 224q-58 99 -58 198q0 145 110 245t292 100h622v-216z" />
    <glyph glyph-name="glyph32" horiz-adv-x="1548" 
d="M229 135q0 67 42 104t101 37q60 0 104 -37t44 -103t-42 -101t-107 -35q-142 0 -142 135zM958 135q0 -135 -144 -135t-144 135q0 67 42 104t101 37t102 -37t43 -104zM1110 135q0 67 42 104t100 37q59 0 103 -37t44 -103q-1 -66 -43 -101t-107 -35q-139 0 -139 135z" />
    <glyph glyph-name="glyph33" horiz-adv-x="1374" 
d="M1298 791l-141 -154h-1057l140 154h1058z" />
    <glyph glyph-name="exclam" horiz-adv-x="2623" 
d="M2548 791l-142 -154h-2306l140 154h2308z" />
    <glyph glyph-name="quotedbl" horiz-adv-x="1231" 
d="M473 98q-1 66 41 104t101 38t103 -38t44 -103q0 -66 -42 -101t-108 -35q-139 0 -139 135zM1157 401h-1081v209h1081v-209zM473 907q-1 67 41 105t101 37q59 1 103 -37t44 -104t-42 -101t-108 -35q-139 0 -139 135z" />
    <glyph glyph-name="numbersign" horiz-adv-x="999" 
d="M924 791l-142 -154h-682l140 154h684z" />
    <glyph glyph-name="dollar" horiz-adv-x="1126" 
d="M1020 195l-148 -146l-309 311l-311 -311l-146 148l310 311l-312 309l148 148l311 -314l309 312l146 -148l-309 -307z" />
    <glyph glyph-name="period" 
 />
    <glyph glyph-name="bracketleft" horiz-adv-x="281" 
d="M205 322q0 -266 -101 -460q-118 -229 -342 -229q-146 0 -266 121t-174 295q205 -205 393 -205q153 0 257 132t104 327q0 245 -178 494q-21 28 -21 65q1 38 27 66t69 28q91 0 161 -184t71 -450z" />
    <glyph glyph-name="t" 
 />
    <glyph glyph-name="u" horiz-adv-x="692" 
d="M612 485q0 -218 -94 -367t-286 -149q-190 0 -286 211q-57 125 -57 215l43 11q10 -26 19 -52q30 -56 102 -98t189 -41q116 0 198 65t82 185q0 194 -160 321q-123 97 -215 97h-100v207h408v-207q57 -47 107 -165t50 -233z" />
    <glyph glyph-name="v" horiz-adv-x="281" 
d="M205 322q0 -266 -101 -460q-118 -229 -342 -229q-146 0 -266 121t-174 295q205 -205 393 -205q153 0 257 132t104 327q0 245 -178 494q-21 28 -21 65q1 38 27 66t69 28q91 0 161 -184t71 -450z" />
    <glyph glyph-name="w" 
 />
    <glyph glyph-name="y" horiz-adv-x="1036" 
d="M963 446q-1 -226 -103 -348t-235 -123q-167 0 -250 147q-66 115 -66 284q1 112 75 178t157 67q83 0 141 -47q58 -46 57 -128q1 -82 -33 -110t-92 -28t-88 33q-29 33 -29 76q0 69 54 85h-46q-31 0 -65 -29t-34 -93t52 -128t142 -63q256 0 256 240q0 205 -120 346t-269 141
q-121 0 -211 -101t-90 -282q0 -87 26 -235t25 -248q1 -195 -123 -326t-276 -131q-152 -1 -292 107q-139 108 -200 315q55 -62 137 -116q141 -91 271 -91t248 108t118 244q0 54 -22 168t-23 234q0 276 104 414t263 139q203 0 372 -196t169 -503z" />
    <glyph glyph-name="z" horiz-adv-x="1546" 
d="M889 1090q239 0 411 -195t173 -411q-1 -216 -101 -358q-100 -144 -272 -144t-253 123q-61 95 -61 237t72 212t170 71q98 -1 148 -59t49 -125q0 -67 -37 -107t-98 -41q-62 -1 -92 33t-29 80q1 90 88 90q30 0 49 -31q4 19 -14 37t-64 18t-93 -44q-46 -44 -46 -109
q0 -189 215 -189q128 0 198 84t70 203q0 153 -121 285t-284 133h-512q57 -47 107 -165t50 -233q0 -218 -94 -367t-286 -149q-190 0 -286 211q-57 125 -57 215l43 11q10 -26 19 -52q30 -56 102 -98t189 -41q116 0 198 65t82 185q0 194 -160 321q-123 97 -215 97h-100v207h842
z" />
    <glyph glyph-name="braceleft" 
 />
    <glyph glyph-name="bar" horiz-adv-x="356" 
d="M-170 -360q76 0 76 60t-66 60q-34 0 -61 -22t-29 -45q28 -53 80 -53zM283 -223q0 -211 -77 -338q-89 -148 -265 -148q-144 0 -225 101t-81 217t57 190q58 74 140 74t125 -46t43 -112t-42 -120t-104 -54t-95 53q-21 35 -21 50q0 -92 53 -146t121 -55q126 1 190 105t64 264
q0 289 -174 514q42 41 76 41q95 0 162 -259q53 -201 53 -331z" />
    <glyph glyph-name="braceright" horiz-adv-x="283" 
d="M-610 -481q-60 0 -82 -56q30 -53 76 -53q71 0 69 60q-3 49 -63 49zM190 -399q0 61 -77 102q-28 3 -78 12q-36 -48 -37 -112q-4 -111 94 -111t98 109zM-27 -133q153 0 231 -80q78 -81 77 -191q1 -110 -61 -193t-152 -83t-136 61q-45 61 -45 161t88 196h-352
q160 -108 162 -389q1 -131 -69 -217t-210 -86t-224 100q-82 100 -84 220t50 195q52 74 136 74q84 1 124 -49t39 -129q0 -157 -157 -157q-49 0 -92 34q37 -127 194 -127q90 1 142 51t51 128q0 217 -205 331q-2 41 0 150h493z" />
    <glyph glyph-name="asciitilde" horiz-adv-x="84" 
d="M174 582q0 -129 -139 -129q-87 0 -174 49v155q40 -32 116 -32t76 35t-84 143q47 43 64 31q141 -105 141 -252zM-406 1270q0 86 60 134t152 48q90 0 158 -72t69 -208q0 -136 -91 -213q-91 -76 -192 -76h-156v207h156q158 0 158 127q0 65 -36 101t-87 36q-111 0 -111 -84
q0 -38 35 -47q-6 18 -6 30q0 62 55 62q76 0 76 -91t-117 -91q-123 0 -123 137z" />
    <glyph glyph-name="glyph128" horiz-adv-x="395" 
d="M18 -313q0 23 -20 43t-50 20q-29 0 -56 -20t-27 -42t27 -35t49 -13q77 0 77 47zM319 -400q-1 -130 -69 -238q-68 -107 -198 -107q-130 1 -206 111q-77 110 -77 234q1 124 49 198t127 75q79 0 118 -51q39 -52 39 -122t-42 -122t-115 -51q-29 0 -62 48t-33 54
q0 -91 51 -159t121 -68t128 71q59 71 59 167q0 170 -160 330q-49 48 -53 48q60 84 64 162t-33 182q73 -4 113 -56t40 -126q0 -132 -78 -194q4 1 56 -38q161 -126 161 -348zM174 582q0 -129 -139 -129q-87 0 -174 49v155q40 -32 116 -32t76 35t-84 143q47 43 64 31
q141 -105 141 -252zM-406 1270q0 86 60 134t152 48q90 0 158 -72t69 -208q0 -136 -91 -213q-91 -76 -192 -76h-156v207h156q158 0 158 127q0 65 -36 101t-87 36q-111 0 -111 -84q0 -38 35 -47q-6 18 -6 30q0 62 55 62q76 0 76 -91t-117 -91q-123 0 -123 137z" />
    <glyph glyph-name="glyph129" horiz-adv-x="1417" 
d="M174 582q0 -129 -139 -129q-87 0 -174 49v155q40 -32 116 -32t76 35t-84 143q47 43 64 31q141 -105 141 -252zM-406 1270q0 86 60 134t152 48q90 0 158 -72t69 -208q0 -136 -91 -213q-91 -76 -192 -76h-156v207h156q158 0 158 127q0 65 -36 101t-87 36q-111 0 -111 -84
q0 -38 35 -47q-6 18 -6 30q0 62 55 62q76 0 76 -91t-117 -91q-123 0 -123 137zM807 1147q226 0 380 -178t154 -461q1 -282 -93 -404t-294 -122q-143 0 -231 126t-88 271q0 144 63 207q63 64 146 66t141 -46q57 -48 57 -120t-37 -108q-37 -34 -85 -34t-83 30q-34 30 -34 71
q0 42 24 75q-35 0 -63 -28t-29 -91q-1 -62 65 -118t164 -56q98 1 189 79q92 78 92 194q-1 218 -121 334t-299 116q-137 0 -234 -100t-97 -249q0 -37 20 -157q20 -119 21 -159q-1 -125 -69 -211t-202 -86q-164 0 -278 147q-97 125 -97 248q112 -156 312 -156q109 0 161 32
t52 121q0 36 -14 106t-13 157q-1 232 119 368t301 136z" />
    <glyph glyph-name="O_e.rphf" horiz-adv-x="1206" 
d="M1133 874h-717q-64 0 -116 -42t-52 -86q0 -46 30 -82t74 -35h336v-219h-317q-53 0 -93 -38t-40 -87q0 -82 96 -82q60 0 92 -33q32 -32 31 -74t-33 -73t-94 -31t-142 72q-82 72 -82 190q0 186 168 270q-163 82 -163 271q0 115 96 211t221 96h705v-228z" />
    <glyph glyph-name="glyph131" horiz-adv-x="995" 
d="M338 400q0 -86 60 -132t144 -45q84 -1 144 45q59 46 59 134t-54 144q-54 58 -145 58q-92 0 -150 -58q-58 -60 -58 -146zM950 582h-164q103 -98 103 -256q-1 -158 -103 -249t-244 -91t-241 90q-100 90 -100 249q0 158 98 257h-176v180h391q27 20 27 54t-27 67h-391v207
h612v-207h-67q14 -39 14 -68t-10 -53h278v-180z" />
    <glyph glyph-name="glyph132" horiz-adv-x="1763" 
d="M424 432q-176 0 -176 -106q0 -35 28 -65t80 -30q112 0 231 31t113 37q4 0 -40 37q-112 96 -236 96zM1581 506q0 -235 -98 -367q-114 -153 -338 -153q-111 0 -202 78t-140 159q-175 -237 -397 -237q-133 0 -206 90t-73 198q0 106 76 184t239 79q105 0 213 -72
q46 -38 93 -76q73 90 73 260q0 115 -67 203t-183 88q-182 0 -182 -113q0 -56 68 -79q-2 6 -2 39q1 33 35 61t80 27q114 0 114 -121q0 -68 -48 -108t-130 -40q-80 0 -156 78t-76 178t61 178q73 97 212 97q175 0 286 -165q99 -146 99 -334t-70 -296q28 -37 94 -74t156 -37
q183 -1 273 85t90 226q-1 140 -103 240t-244 101h-174v207h557v-207h-55q125 -142 125 -377z" />
    <glyph glyph-name="glyph133" horiz-adv-x="1231" 
d="M1133 2h-215q0 452 -66 658q-70 223 -234 223t-234 -215t-71 -666h-213q0 376 56 545t215 336h-269v207h803v-207h-55q170 -175 226 -338t57 -543z" />
    <glyph glyph-name="glyph134" horiz-adv-x="1749" 
d="M860 -283q0 -61 -41 -99t-97 -38t-94 37t-38 98t129 353q141 -289 141 -351zM1330 392q0 -172 -72 -284q-86 -135 -251 -135t-298 207q-106 -205 -297 -205q-168 0 -258 138q-74 113 -74 259t77 222t174 77q97 0 161 -60t65 -167q0 -64 -57 -104q-58 -40 -118 -40t-60 40
q90 24 90 102q0 38 -30 62t-75 23q-45 0 -81 -35t-36 -103q0 -162 216 -162q154 0 228 96q44 57 44 101h49q0 -39 51 -100q81 -97 234 -97q102 0 160 35t59 94q0 85 -119 187q-74 63 -74 112t30 75t68 23q38 -2 72 -47t37 -49q40 -33 117 -33t77 38t-83 141q49 45 63 31
q143 -110 143 -254q0 -126 -141 -127q-50 -1 -96 24q5 -42 5 -85zM850 694q0 -58 -43 -100t-103 -41q-60 -1 -100 41q-41 42 -41 100t41 102q40 42 100 42t103 -42q43 -44 43 -102zM1487 883h-1389v207h1389v-207z" />
    <glyph glyph-name="glyph135" horiz-adv-x="1487" 
d="M1169 575q110 -1 170 -79t60 -198t-87 -216t-235 -96q-220 0 -317 227q-136 -227 -322 -227q-133 0 -225 88t-92 212q0 125 86 222q2 1 161 143q87 76 87 146q0 153 -115 153t-115 -110q0 -99 88 -152q-35 -10 -49 -10q-72 0 -134 54t-62 164t69 180q69 71 175 71
t184 -56t96 -151q233 207 424 207q192 -1 274 -79t82 -182t-54 -162q-54 -56 -149 -56q45 86 45 139q0 139 -245 139q-211 0 -387 -176q-24 -66 -105 -134q-125 -104 -132 -111q-64 -70 -64 -155t64 -114q40 -18 123 -18q82 0 136 37t92 86t39 49q2 -1 2 -9q6 6 15 6
q10 1 50 -49t94 -85t150 -35t160 37t64 96q0 116 -164 116q-3 5 -3 19q0 69 66 69zM950 702q0 -56 -40 -98q-40 -41 -98 -41q-58 1 -98 41t-40 97t40 97t98 40t98 -40t40 -96z" />
    <glyph glyph-name="glyph136" horiz-adv-x="1487" 
d="M1423 578h-206q46 -18 115 -88t69 -156q0 -134 -87 -241t-235 -107q-238 0 -319 227q-141 -227 -322 -227q-133 0 -225 88t-92 212q0 125 86 222q2 1 161 143q87 76 87 146q0 153 -115 153t-115 -110q0 -99 88 -152q-35 -10 -45 -10q-74 0 -137 54t-63 164t70 180t185 71
q115 0 195 -77q80 -76 80 -194t-82 -200q-77 -66 -153 -131q-82 -79 -82 -174q0 -140 196 -142q160 -1 260 199q22 -37 44 -75q83 -122 255 -122q104 1 169 51t65 104t-59 124q-59 68 -83 68h-290v206h309q44 0 44 50t-36 49h-311v207h254q70 -53 133 -125q95 -108 88 -181
h104v-206z" />
    <glyph glyph-name="glyph137" horiz-adv-x="1487" 
d="M541 827q1 74 -89 74t-120 -61q0 -95 92 -95q117 0 117 82zM918 -288q0 -60 -40 -96t-98 -36q-133 0 -133 135q0 57 129 348q142 -291 142 -351zM1100 -27q-187 0 -328 240q-141 -240 -309 -240q-169 -1 -263 175t-94 406t81 383q88 169 237 169q102 0 162 -84t59 -198
q0 -114 -59 -198q-58 -84 -154 -83q-96 0 -134 91q-12 48 -24 95q-67 -79 -67 -209t67 -214t199 -83q204 0 291 246q20 -45 39 -90q80 -156 239 -156q130 0 186 37t56 129q0 266 -201 407q-83 58 -200 87v207h325v-207h-118q125 -78 216 -225q90 -147 88 -301t-80 -269
t-214 -115z" />
    <glyph glyph-name="glyph138" horiz-adv-x="1475" 
d="M68 904q0 110 70 182t192 71q124 1 196 -89t72 -220l-6 -43q80 -51 172 -51q237 0 237 129h-229v207h416v-207q0 -148 -96 -232t-244 -84t-305 140q-83 -73 -165 -145q-97 -90 -97 -191q0 -140 196 -140q124 0 209 80q62 58 76 119q36 -60 72 -121q67 -78 186 -78
q118 -1 184 51t66 117q0 115 -164 115q-3 5 -3 19q0 71 66 71q110 0 170 -78t60 -200q0 -124 -88 -232t-234 -108q-215 0 -317 237q-142 -237 -322 -237q-133 0 -225 88t-92 214t86 225q81 72 165 147t83 147q0 149 -115 149t-115 -108q0 -68 88 -156l-49 -8q-72 0 -134 55
t-62 165z" />
    <glyph glyph-name="glyph139" horiz-adv-x="2548" 
d="M965 552q0 141 -99 236t-241 95t-241 -95q-99 -96 -99 -236t99 -234t241 -95q142 0 241 94t99 235zM1915 -288q0 -60 -43 -96t-98 -36t-92 36t-37 96t129 351q141 -291 141 -351zM2478 485q0 -218 -89 -358q-100 -158 -284 -158q-141 0 -234 115q-66 83 -97 209
q-79 -307 -347 -307q-249 0 -335 329q-54 -145 -182 -235t-285 -90q-208 0 -355 148t-147 358q0 129 54 238t114 149h-168v207h692q182 0 182 145q0 59 -67 115q2 0 38 37t36 40q122 -122 122 -243q0 -204 -176 -301q176 -186 176 -387q0 -40 -6 -80q14 -58 61 -103
q89 -84 263 -84q102 -1 183 65t81 185q0 289 -401 404q-107 30 -107 116q0 43 33 77t84 34q155 0 318 -187t163 -423q0 -31 -4 -84q90 -201 330 -201q102 0 183 65t81 185q0 194 -160 321q-122 97 -215 97h-98v207h405v-207q58 -47 108 -164t50 -234z" />
    <glyph glyph-name="glyph140" horiz-adv-x="2068" 
d="M1047 575q-91 1 -93 -71t88 -72t162 57q0 14 -46 50t-111 36zM1688 1147q139 0 223 -95q84 -94 84 -226t-74 -231q-73 -99 -163 -99t-90 74q0 33 11 55q101 0 153 47q52 46 52 110t-56 105t-151 41q-171 0 -262 -180q0 -104 -44 -189l-46 -70q8 -21 8 -54
q-1 -33 -37 -120t-36 -135q0 -37 57 -37q21 0 49 27t29 59q80 -8 80 -22v-2q1 5 1 0t1 -35q0 -70 -69 -124t-136 -54t-126 46t-59 116t62 188q-53 -57 -156 -57t-163 55t-60 134q0 80 66 140t182 60q115 0 242 -90q49 92 49 131q-1 85 -77 149t-171 64t-177 -44
q-100 -53 -100 -143q0 28 -66 94q-98 97 -251 97q-95 0 -161 -52t-66 -116q0 -121 215 -121q22 -41 22 -84q0 -72 -82 -72q-125 1 -197 95t-71 228q0 134 85 236t241 101q221 0 307 -209q0 209 309 209q95 -1 191 -55t135 -140q112 195 293 195z" />
    <glyph glyph-name="glyph141" horiz-adv-x="1487" 
d="M393 557q96 1 96 73t-83 72q-64 0 -89 -34q-7 -111 76 -111zM1190 729q95 0 152 -114q57 -113 57 -259q1 -146 -95 -258t-241 -112q-193 0 -322 233q-93 -233 -277 -233t-278 144q-78 118 -80 288t62 295q62 125 160 125q-33 0 -109 38q-113 57 -113 149t64 143t151 51
q88 0 125 -58q-2 1 -42 -11t-72 -44t-33 -94q0 -111 143 -162q31 0 79 -52q69 -72 69 -174t-54 -172q-54 -69 -130 -69q-77 -1 -126 53t-49 142q-18 -49 -18 -136q0 -204 242 -204q196 0 258 200h47q84 -200 307 -200t223 168q0 76 -49 131t-137 55h-176v190h178q33 0 33 22
q-1 22 -33 50t-59 29h-332v207h362q240 -216 240 -269q0 -92 -127 -92zM446 1161z" />
    <glyph glyph-name="glyph142" horiz-adv-x="1202" 
d="M762 574q0 -56 -40 -96t-98 -40t-96 40t-39 96q0 57 39 96q38 39 96 39t98 -39t40 -96zM965 552q0 141 -99 236t-241 95t-241 -95q-99 -96 -99 -236t99 -234t241 -95q142 0 241 94t99 235zM1126 492q0 -206 -148 -354t-354 -148q-207 0 -354 148t-147 358q0 129 54 238
t114 149h-168v207h876v-207h-49q176 -186 176 -391z" />
    <glyph glyph-name="glyph143" horiz-adv-x="1444" 
d="M1251 401q0 119 -10 140q-106 -140 -244 -140q-87 0 -139 50t-51 118q-1 68 53 120t146 52t149 -71q0 83 -118 148t-313 65q-194 1 -324 -109t-130 -315q0 -228 215 -228q149 0 254 254q122 -254 287 -254q225 0 225 170zM1056 639q-52 0 -82 -18t-30 -41q0 -50 68 -50
q100 0 139 84q-43 25 -95 25zM1370 360q0 -158 -79 -266t-241 -108t-305 211q-117 -211 -286 -211q-133 0 -235 104t-101 295q0 334 270 498h-248v207h1080v-207h-127q42 -21 100 -85t53 -120l-2 -43q29 1 75 -97t46 -178z" />
    <glyph glyph-name="glyph144" horiz-adv-x="1444" 
d="M1251 401q0 119 -10 140q-106 -140 -244 -140q-87 0 -139 50t-51 118q-1 68 53 120t146 52t149 -71q0 83 -118 148t-313 65q-194 1 -324 -109t-130 -315q0 -228 215 -228q149 0 254 254q122 -254 287 -254q225 0 225 170zM1056 639q-52 0 -82 -18t-30 -41q0 -50 68 -50
q100 0 139 84q-43 25 -95 25zM750 66q134 -289 137 -350q3 -62 -39 -100t-98 -36t-94 38t-36 95t130 353zM1370 360q0 -158 -79 -266t-241 -108t-305 211q-117 -211 -286 -211q-133 0 -235 104t-101 295q0 334 270 498h-248v207h1080v-207h-127q42 -21 100 -85t53 -120
l-2 -43q29 1 75 -97t46 -178z" />
    <glyph glyph-name="glyph145" horiz-adv-x="1563" 
d="M1069 844q187 0 287 -130t100 -307t-96 -299t-250 -122t-231 88q-76 88 -76 199q-1 111 59 185t163 74t159 -62t57 -138q0 -154 -127 -154q-28 0 -96 64q92 0 92 77q0 33 -24 57t-70 25q-46 0 -78 -31q-32 -32 -33 -84q0 -52 52 -96t160 -45q107 -1 175 71t68 172
t-82 178q-82 77 -237 77q-154 0 -240 -79q-56 -51 -56 -83h-49q0 27 -62 83q-89 79 -216 79q-127 -1 -127 -95t155 -132v-49q-165 -43 -165 -136q-1 -35 31 -56t77 -19q164 5 164 28h47v-55q0 -63 -66 -103t-164 -40q-100 0 -188 69t-88 158q0 141 129 188q-121 65 -121 174
t77 187t210 78q247 0 324 -174q109 178 356 178zM1169 883h-1067v207h1067v-207z" />
    <glyph glyph-name="glyph146" horiz-adv-x="1223" 
d="M707 694q-136 0 -150 -78q-5 -22 17 -40t59 -19q148 0 221 105q0 8 -45 20t-102 12zM1147 392q1 -190 -149 -298t-355 -108t-355 104t-151 272q0 138 94 185q19 5 29 -35t10 -66q0 -108 125 -168q107 -53 263 -53t252 51q116 60 116 181q0 44 -41 100
q-141 -172 -346 -172q-113 0 -183 60q-70 59 -69 143q0 84 72 150t219 65q58 0 115 -22t63 -26q2 8 2 16q0 39 -35 75t-84 37h-594v207h869v-207h-82q88 -47 88 -213q127 -89 127 -278z" />
    <glyph glyph-name="glyph147" horiz-adv-x="1454" 
d="M885 666q0 -56 -42 -98q-43 -42 -99 -42t-95 41t-39 99t39 98q39 41 95 41q56 1 99 -41q42 -42 42 -98zM1219 453q0 165 -114 287q-133 143 -356 143q-223 -1 -349 -135t-126 -295q0 -97 48 -159t138 -63q88 -1 144 43t86 96t51 93q43 -93 74 -133q79 -99 183 -99t163 64
q58 64 58 158zM887 -288q0 -60 -42 -96t-97 -36q-56 0 -94 36t-38 96t132 351q139 -291 139 -351zM1378 344q0 -146 -83 -252t-236 -106q-179 0 -314 217q-93 -217 -301 -217q-163 0 -248 106t-85 260q-1 154 77 303q78 148 213 228h-278v207h1036v-207h-47
q126 -96 196 -244t70 -295z" />
    <glyph glyph-name="glyph148" horiz-adv-x="1454" 
d="M1219 453q0 165 -114 287q-133 143 -356 143q-223 -1 -349 -135t-126 -295q0 -97 48 -159t138 -63q88 -1 144 43t86 96t51 93q43 -93 74 -133q79 -99 183 -99t163 64q58 64 58 158zM1378 344q0 -146 -83 -252t-236 -106q-179 0 -314 217q-93 -217 -301 -217
q-163 0 -248 106t-85 260q-1 154 77 303q78 148 213 228h-278v207h1036v-207h-47q126 -96 196 -244t70 -295z" />
    <glyph glyph-name="glyph149" horiz-adv-x="1454" 
d="M1219 453q0 165 -114 287q-133 143 -356 143q-223 -1 -349 -135t-126 -295q0 -97 48 -159t138 -63q88 -1 144 43t86 96t51 93q43 -93 74 -133q79 -99 183 -99t163 64q58 64 58 158zM887 -288q0 -60 -42 -96t-97 -36q-56 0 -94 36t-38 96t132 351q139 -291 139 -351z
M1378 344q0 -146 -83 -252t-236 -106q-179 0 -314 217q-93 -217 -301 -217q-163 0 -248 106t-85 260q-1 154 77 303q78 148 213 228h-278v207h1036v-207h-47q126 -96 196 -244t70 -295z" />
    <glyph glyph-name="glyph150" horiz-adv-x="1247" 
d="M1171 367q-1 -181 -87 -283t-214 -102t-205 113q-28 43 -98 222q-43 111 -172 111q-72 0 -127 -38t-55 -99q0 -89 65 -136q14 -10 120 -57q65 -28 65 -71q-1 -84 -99 -84t-177 129q-79 128 -83 268t60 222t198 83q204 0 267 -225q52 -189 245 -189q75 1 128 57t53 150
q0 158 -107 275q-79 87 -241 170h-590v207h833v-207h-53q274 -183 274 -516z" />
    <glyph glyph-name="glyph151" horiz-adv-x="1487" 
d="M1050 -14q-168 0 -305 209q-98 -209 -290 -209q-169 0 -259 141q-73 113 -73 257t76 218q77 74 173 76t162 -58q66 -58 66 -163q0 -64 -56 -104t-117 -40q-60 0 -60 39q0 -8 44 20t44 73t-32 69t-71 23q-121 0 -121 -136q0 -170 215 -170q155 0 229 100q44 59 44 107h49
q0 -45 46 -105q77 -102 235 -102q202 0 219 179q10 110 -60 180t-70 122t32 79q32 28 59 28q141 0 149 -366q4 -193 -78 -330t-250 -137zM887 702q-1 -58 -43 -98t-101 -41q-59 0 -101 41q-42 40 -42 98t42 100t100 42t102 -42q43 -42 43 -100zM1110 883h-967v207h967v-207z
" />
    <glyph glyph-name="glyph152" horiz-adv-x="1487" 
d="M899 -290q0 -62 -42 -98t-99 -36t-94 36t-37 97t127 350q145 -287 145 -349zM1050 -14q-168 0 -305 209q-98 -209 -290 -209q-169 0 -259 141q-73 113 -73 257t76 218q77 74 173 76t162 -58q66 -58 66 -163q0 -64 -56 -104t-117 -40q-60 0 -60 39q0 -8 44 20t44 73
t-32 69t-71 23q-121 0 -121 -136q0 -170 215 -170q155 0 229 100q44 59 44 107h49q0 -45 46 -105q77 -102 235 -102q202 0 219 179q10 110 -60 180t-70 122t32 79q32 28 59 28q141 0 149 -366q4 -193 -78 -330t-250 -137zM887 702q-1 -58 -43 -98t-101 -41q-59 0 -101 41
q-42 40 -42 98t42 100t100 42t102 -42q43 -42 43 -100zM1110 883h-967v207h967v-207z" />
    <glyph glyph-name="glyph153" horiz-adv-x="1499" 
d="M1423 453q-1 -210 -81 -345t-242 -135q-206 0 -338 240q-137 -240 -324 -240q-133 1 -225 89t-92 214t86 225q81 71 165 147t83 149q0 149 -115 149t-115 -106t88 -158q-35 -10 -45 -10q-74 0 -137 56t-63 166q0 112 70 182t186 71q116 0 195 -77q79 -78 79 -196
t-82 -202q-77 -66 -153 -132q-82 -81 -82 -173t64 -123q41 -19 132 -19q119 0 201 112q59 80 59 116h49q0 -42 54 -116q81 -112 219 -112q266 0 266 242q-1 181 -69 299t-146 117h-203v207h387v-207h-10q49 -53 94 -188t45 -242z" />
    <glyph glyph-name="glyph154" horiz-adv-x="1499" 
d="M899 -286q0 -62 -41 -98t-96 -36t-94 37t-39 96t131 353q139 -290 139 -352zM1423 453q-1 -210 -81 -345t-242 -135q-206 0 -338 240q-137 -240 -324 -240q-133 1 -225 89t-92 214t86 225q81 71 165 147t83 149q0 149 -115 149t-115 -106t88 -158q-35 -10 -45 -10
q-74 0 -137 56t-63 166q0 112 70 182t186 71q116 0 195 -77q79 -78 79 -196t-82 -202q-77 -66 -153 -132q-82 -81 -82 -173t64 -123q41 -19 132 -19q119 0 201 112q59 80 59 116h49q0 -42 54 -116q81 -112 219 -112q266 0 266 242q-1 181 -69 299t-146 117h-203v207h387
v-207h-10q49 -53 94 -188t45 -242z" />
    <glyph glyph-name="glyph155" horiz-adv-x="2132" 
d="M2062 485q0 -218 -94 -367t-278 -149q-212 0 -320 281q-26 -116 -108 -190t-207 -74q-182 0 -293 239q-100 -239 -305 -239q-145 0 -237 126t-93 266q0 138 75 208t172 71q98 0 162 -58t64 -153q0 -65 -58 -105t-118 -40q-62 0 -62 39q93 27 93 92q0 98 -93 98
q-46 0 -84 -40t-38 -105q0 -154 217 -154q168 0 241 106q39 57 39 109h45q47 -215 267 -215q99 1 153 55t54 140q0 127 -114 258t-321 199h-708v207h952q182 0 182 145q0 59 -67 115q3 0 38 37t35 40q123 -122 123 -243q0 -301 -311 -301q139 -80 219 -205t94 -262
q77 -199 328 -201q102 -1 184 65t82 185q0 194 -160 321q-123 97 -215 97h-100v207h408v-207q57 -47 107 -165t50 -233z" />
    <glyph glyph-name="glyph156" horiz-adv-x="2441" 
d="M889 522q0 171 -97 268t-227 97q-131 0 -221 -86q-90 -85 -90 -229t84 -242t242 -99q158 0 243 100q66 78 66 191zM2372 485q0 -218 -89 -358q-100 -158 -284 -158q-133 0 -224 102q-66 73 -96 177q-27 -118 -119 -192t-235 -74q-239 0 -371 309q-103 -309 -350 -309
q-210 0 -330 184t-119 410q0 226 96 376t271 150q239 0 373 -233q102 -177 102 -367q72 -271 306 -271q108 -1 164 65t56 166q-1 155 -115 288t-296 133h-70v207h336q185 0 185 145q0 59 -68 115q3 0 39 37t35 40q123 -122 123 -243q0 -293 -297 -301q92 -67 145 -130
q123 -144 148 -333q55 -205 329 -205q101 0 183 65t81 185q0 194 -160 321q-122 97 -214 97h-101v207h408v-207q58 -47 108 -165t50 -233z" />
    <glyph glyph-name="glyph157" horiz-adv-x="1202" 
d="M965 552q0 141 -99 236t-241 95t-241 -95q-99 -96 -99 -236t99 -234t241 -95q142 0 241 94t99 235zM1126 492q0 -206 -148 -354t-354 -148q-207 0 -354 148t-147 358q0 129 54 238t114 149h-168v207h864v-207h-37q176 -186 176 -391z" />
    <glyph glyph-name="glyph158" horiz-adv-x="1487" 
d="M1217 625h-959q-2 60 -8 123q-61 -76 -61 -204q1 -128 67 -220t194 -93q128 0 209 97q58 68 58 100h47q0 -31 58 -101q80 -96 207 -96q127 1 195 83t68 188t-32 190q-43 -47 -43 -67zM401 922q-39 0 -63 -40t-23 -67q7 -70 70 -70q45 0 72 30t27 68q0 79 -83 79z
M1008 837q0 -37 26 -65t64 -27q38 0 64 17q28 17 28 53t-29 68t-74 32q-79 0 -79 -78zM1090 1120q134 0 210 -156t76 -385q0 -230 -92 -400q-103 -191 -280 -191t-259 207q-104 -209 -281 -209t-276 191q-88 169 -88 399t76 385t209 155q203 0 203 -340q32 -3 170 -3t147 3
l-2 66q0 278 187 278z" />
    <glyph glyph-name="glyph159" horiz-adv-x="1487" 
d="M657 821q0 86 -127 86q-50 0 -84 -10q-22 -45 -22 -78q0 -84 96 -84q52 0 94 23t43 63zM1386 592q0 -276 -186 -440t-457 -164q-270 0 -450 157t-180 447q0 246 113 384t259 138q113 0 191 -76t78 -211q0 -134 -68 -207t-156 -73t-150 64t-63 180q1 6 3 19t2 17
q-97 -96 -97 -237q0 -187 150 -279q131 -82 366 -82q235 1 389 95t154 256t-94 232q-94 71 -236 71v207h303v-207q129 -98 129 -291z" />
    <glyph glyph-name="glyph160" horiz-adv-x="1249" 
d="M797 250q0 101 -113 112q-42 -4 -68 -38t-26 -76q0 -101 102 -101q43 0 74 28t31 75zM504 864q0 68 -92 68q-60 0 -84 -23q-6 -38 0 -55q8 -47 92 -47t84 57zM1161 645q1 -111 -81 -187t-191 -87q-36 -4 -94 -4q123 -55 123 -144q0 -115 -73 -183t-167 -67
q-94 -1 -164 59t-70 169q0 69 50 108t63 39q-93 0 -125 8q-153 39 -229 127q-76 89 -76 267q1 178 85 270t194 92q80 0 137 -56t57 -165q0 -107 -54 -165t-125 -58q-69 0 -125 52t-48 120q-21 -49 -21 -111q0 -91 90 -125q27 -10 149 -30t164 -32q44 -14 95 -53
q68 52 113 58q78 19 141 71t63 100t-26 95q-26 48 -58 70h-286v207h166q323 -276 323 -445z" />
    <glyph glyph-name="glyph161" horiz-adv-x="1454" 
d="M1378 348q0 -172 -94 -268q-94 -94 -229 -94q-182 0 -293 239q-100 -239 -305 -239q-145 0 -237 126t-93 266q0 138 75 208t172 71q98 0 162 -58t64 -153q0 -65 -58 -105t-118 -40q-62 0 -62 39q93 27 93 92q0 98 -93 98q-46 0 -84 -40t-38 -105q0 -154 217 -154
q168 0 241 106q39 57 39 109h45q47 -215 267 -215q99 1 153 55t54 140q0 127 -114 258t-321 199h-708v207h966v-207h-14q145 -83 229 -223t84 -312z" />
    <glyph glyph-name="exclamdown" horiz-adv-x="1231" 
d="M262 332q0 -129 260 -129q260 -1 370 73q109 74 109 282t-241 306q53 -78 53 -162q0 -124 -86 -204q-85 -80 -225 -80t-169 -6q-71 -15 -71 -80zM1157 476q0 -253 -181 -378q-162 -112 -454 -112q-186 0 -301 78t-115 237q0 158 128 203q59 20 270 20q90 0 140 57t50 127
q1 70 -43 122q-43 52 -111 53q-68 -1 -106 -37t-39 -82q0 -46 33 -72q32 -26 64 -25q32 0 49 7q-110 0 -110 82q-1 36 25 62t66 26q113 0 113 -107q0 -61 -43 -107t-123 -46t-134 52t-54 124t32 123h-186v207h805v-207h-8q233 -154 233 -407z" />
    <glyph glyph-name="cent" horiz-adv-x="1462" 
d="M1467 -22q0 -38 -37 -70q-21 -14 -55 -14q-33 0 -63 30t-93 107q-76 -49 -170 -49q-160 0 -301 208q-106 -208 -284 -208t-268 141q-73 114 -73 258q1 143 77 219t172 78t162 -58q66 -59 66 -165q0 -64 -56 -104t-117 -40q-60 0 -60 39q88 24 88 103q1 36 -31 59t-72 23
q-121 0 -121 -136q0 -168 215 -168q154 0 229 99q44 59 44 102h51q0 -40 55 -103q86 -100 246 -98q-32 40 -242 277l78 49l299 -285q66 45 66 141q0 95 -65 155t-65 111t31 83t56 31q78 0 120 -97q42 -96 37 -260t-61 -276q115 -115 125 -119q17 -25 17 -63zM887 700
q0 -58 -42 -100q-42 -43 -100 -43q-57 0 -99 43q-42 42 -42 100t42 99t98 41q58 0 100 -41t43 -99zM1100 883h-973v207h973v-207z" />
    <glyph glyph-name="sterling" horiz-adv-x="1212" 
d="M1137 382q0 -136 -72 -266t-172 -130q-58 0 -88 93q-45 137 -70 172q-67 93 -229 93t-236 -108q-51 -73 -51 -182q0 -38 4 -56q-96 60 -96 202q-1 142 99 254t264 113q164 0 247 -89q50 -54 83 -154t54 -101q56 -1 86 67t29 188q0 120 -49 327q81 0 139 -143
q58 -144 58 -280zM649 716q0 -48 -33 -80q-32 -32 -80 -32t-81 32t-33 80t33 80t80 33q47 -1 81 -33t33 -80zM850 883h-705v207h705v-207z" />
    <glyph glyph-name="currency" horiz-adv-x="1544" 
d="M477 606q-99 0 -151 -58t-52 -137q0 -80 54 -139t158 -59t188 89q61 65 61 91q-70 213 -258 213zM1298 406q0 78 -54 136t-163 58t-177 -98q-44 -63 -44 -101q38 -194 234 -194q96 0 150 60t54 139zM1094 707q182 0 278 -101t96 -246q0 -146 -100 -260t-266 -114
q-198 0 -316 184q-97 -184 -323 -184q-169 0 -263 110t-94 256t94 252t247 105q153 0 237 -97q55 -64 55 -92q1 34 -39 119t-93 139t-169 105h-344v207h1110v-207h-604q94 1 172 -127t78 -215q0 20 53 80q76 86 191 86z" />
    <glyph glyph-name="yen" horiz-adv-x="1487" 
d="M420 893q-38 0 -66 -28t-28 -52q13 -59 80 -59q44 0 70 22t25 53q0 64 -81 64zM1190 815q0 35 -32 57t-68 21q-76 0 -76 -62q0 -71 88 -71t88 55zM1094 1100q135 0 220 -152t85 -378t-93 -392q-106 -190 -294 -190t-267 194q-95 -196 -269 -196t-278 204q-92 182 -92 406
t81 363q81 138 219 139q96 1 148 -69q52 -69 51 -175q0 -106 -58 -191t-146 -85t-116 71q-6 38 -13 76q-59 -77 -59 -203q-1 -126 63 -208q64 -83 193 -83q203 0 258 211h49q0 -47 38 -107q66 -104 210 -104q270 0 270 283q0 79 -26 156q-60 -78 -152 -78t-154 87
q-60 87 -60 189t49 168q49 64 143 64z" />
    <glyph glyph-name="brokenbar" horiz-adv-x="354" 
d="M-111 -360q-1 -57 39 -91t94 -34q54 1 92 35t38 92t-39 96q-39 37 -91 37t-93 -39q-40 -39 -40 -96zM352 -260h-143q50 -60 51 -137q2 -118 -68 -182t-166 -64t-166 66t-69 178q0 75 39 139h-127v160h272q72 77 72 194t-72 203h68q52 0 106 -52t52 -139t-97 -206h248
v-160z" />
    <glyph glyph-name="section" horiz-adv-x="350" 
d="M-513 -481q-108 0 -108 -56q0 -43 112 -43t175 50q-71 49 -179 49zM-432 -229q2 5 41 5q52 0 52 -50q1 -30 -25 -54t-73 -24t-75 37t-29 90q0 125 154 125q85 0 158 -60t73 -152t-47 -200q81 -68 171 -68t146 77q57 77 58 197t-57 266t-156 196q36 73 98 73
q37 0 127 -172q90 -173 90 -353t-66 -310t-194 -129q-128 0 -266 137q-93 -137 -256 -137q-106 0 -166 52t-61 121q1 69 63 122t171 53t216 -66q31 68 31 127q0 123 -139 123q-32 0 -39 -26z" />
    <glyph glyph-name="dieresis" horiz-adv-x="295" 
d="M270 -647h-202q0 172 -57 301q-67 153 -185 153q-225 0 -225 -454h-193q0 209 104 367q118 180 320 180t320 -161t118 -386z" />
    <glyph glyph-name="copyright" horiz-adv-x="305" 
d="M-264 -717q0 -43 -26 -71t-62 -29q-36 1 -63 27t-27 73q0 12 86 197q92 -187 92 -197zM-127 -637q-136 0 -225 184q-85 -184 -228 -184q-80 0 -126 65q-46 66 -46 148t46 140t115 57q69 1 103 -35t35 -86q3 -62 -72 -78q-31 -7 -75 -4q50 40 50 71t-34 31q-57 0 -65 -69
q0 -80 92 -80q68 -1 136 67q69 68 81 68t23 -10q32 -125 161 -125q55 -1 85 37t30 92q0 103 -76 174q-24 22 -24 50q-1 48 49 48t84 -56t51 -69q13 -26 57 -26q60 0 60 61q0 42 -26 98t-66 56l-13 47q30 12 49 12q60 1 105 -73t45 -152q0 -160 -127 -160q-35 0 -72 19l2 -48
q0 -109 -44 -189t-140 -81z" />
    <glyph glyph-name="ordfeminine" horiz-adv-x="305" 
d="M43 -715q-146 0 -225 133q-81 -131 -248 -131q-77 0 -143 55t-66 132t72 114q127 66 127 130t-58 63q-42 0 -45 -33t17 -60t22 -26q-20 -15 -47 -15q-94 0 -94 117q-1 68 45 102t107 34t105 -38t46 -104q129 127 297 127q112 0 187 -45t75 -114q0 -91 -114 -91
q-26 0 -50 5q14 30 14 54q0 75 -137 75q-102 0 -164 -35t-137 -105q-38 -30 -77 -63t-39 -78q0 -59 98 -59t242 176q-1 -61 51 -111t132 -59q80 -8 91 22q6 16 6 33q0 48 -51 88q90 0 140 -50t50 -116q0 -64 -66 -96q-68 -32 -163 -31zM-92 -381q-58 1 -58 59t58 58
q66 0 61 -62q-3 -55 -61 -55zM-504 -338z" />
    <glyph glyph-name="guillemotleft" horiz-adv-x="455" 
d="M406 -542q0 -74 -48 -128q-48 -53 -137 -53q-148 0 -260 201q0 -83 -79 -144q-80 -61 -174 -61t-159 46q-65 47 -65 117t100 153t99 149q-1 39 -48 53q-43 0 -43 -44t19 -63t21 -18q-21 -15 -53 -15q-107 0 -107 118q0 61 42 96t103 35q60 0 109 -42t49 -116
q-1 -74 -65 -138q-64 -62 -64 -106t24 -60t84 -16q62 0 124 48t61 100q1 -12 69 -80t146 -68q106 0 106 101q0 74 -96 139h-154v123h137q21 41 21 125q0 67 -88 67q7 105 96 105q119 0 119 -152q0 -68 -66 -145h170v-123h-75q82 -130 82 -204zM-368 -334h1h-1z" />
    <glyph glyph-name="logicalnot" horiz-adv-x="254" 
d="M-156 -807q0 -44 -28 -70t-63 -26q-85 0 -85 100q0 15 80 203q96 -197 96 -207zM172 -285q0 -192 -29 -275q-45 -128 -179 -128t-216 188q-79 -182 -225 -182q-87 0 -149 64t-62 146q0 80 48 140t126 60q123 0 123 -118q0 -87 -51 -87q-8 102 -82 102q-60 0 -60 -53
q0 -96 138 -96q127 0 172 202h45q43 -202 180 -202q119 0 119 250q0 126 -34 258t-79 182q40 20 60 20t28 -4q127 -60 127 -467z" />
    <glyph glyph-name="less_e.blwf" horiz-adv-x="371" 
d="M319 -555q0 -154 -159 -154t-269 197q0 -83 -78 -144q-77 -61 -171 -61t-164 47q-70 48 -70 116t104 153t103 133q0 48 -47 61q-43 0 -43 -43t19 -63t22 -19q-21 -15 -59 -15q-37 -1 -71 29t-34 90t44 94t99 34q99 0 140 -70q108 -59 243 -59q174 0 174 105q0 33 -18 77
q165 -38 166 -138q1 -69 -74 -119q-127 -84 -366 -13q-88 26 -103 45q-5 -60 -67 -121t-62 -105q0 -71 115 -71q56 1 117 49t61 98q29 -42 60 -71q75 -74 153 -76q109 -4 109 73q0 27 -87 88q120 0 166 -46t47 -101zM-434 -332z" />
    <glyph glyph-name="registered" horiz-adv-x="655" 
d="M-543 -360q1 -60 45 -90t104 -29q60 -1 103 29t43 84t-40 90t-107 36q-148 0 -148 -120zM303 -780q0 -36 -32 -66t-66 -28q-34 0 -57 29t-23 69q0 11 82 188q96 -181 96 -192zM440 -236q-106 0 -106 67t104 67t158 -76t60 -181q4 -106 -60 -192t-190 -86t-201 135
q-63 -135 -213 -135q-115 0 -189 123q-64 -123 -204 -123q-111 0 -173 78t-62 187q0 108 64 190t192 82t187 -109q35 -65 35 -141q13 -129 154 -129q70 0 107 37t37 88t-34 88t-92 37q-88 1 -88 65t98 64t162 -104q52 -82 52 -150q0 -24 44 -74t124 -51q80 0 120 37
q42 37 40 86q-2 48 -36 84t-90 36z" />
    <glyph glyph-name="overscore" horiz-adv-x="313" 
d="M-174 -465q0 9 -38 21t-105 12q-103 0 -103 -45t98 -45q56 0 102 24t46 33zM162 -475q-17 0 -51 16l12 41q72 0 72 58q0 36 -27 68t-68 32q-72 0 -116 -55t-50 -129q35 -50 35 -107q1 -57 -39 -100t-86 -43q-18 0 -32 18t-14 24q0 8 1 9q65 26 68 86q1 19 -12 39
q1 -5 -49 -57t-138 -52q-88 1 -138 45q-52 44 -52 102t53 102t149 44t164 -39q0 45 -41 79t-90 34q-81 0 -180 -100q0 100 -145 100q-49 0 -78 -24t-29 -56q0 -57 68 -57q5 -5 5 -22q0 -50 -48 -50q-70 0 -108 47q-38 46 -38 122t58 138t160 62q100 0 180 -117
q79 117 180 117q127 0 190 -107q72 107 172 107t152 -60t53 -138q3 -76 -37 -126t-106 -51z" />
    <glyph glyph-name="degree" horiz-adv-x="356" 
d="M-344 -248q0 33 -50 33t-61 -16q-1 -62 55 -62t56 45zM326 -380q0 -120 -74 -204t-185 -84t-202 103q-67 -103 -195 -103t-196 98t-68 212q0 116 54 187t138 71t123 -42t39 -104q0 -60 -44 -110t-112 -50q-70 0 -102 74v-28q0 -68 44 -108t104 -40q133 0 221 236
q64 -236 205 -236q67 0 105 40t38 97q0 114 -201 219q164 100 164 252q0 88 -92 207q114 1 175 -81t61 -169q0 -139 -119 -215q119 -102 119 -222z" />
    <glyph glyph-name="plusminus" horiz-adv-x="127" 
d="M-172 -368q0 -38 -26 -64q-26 -27 -64 -27q-36 0 -61 27q-25 26 -25 64t25 62t61 25q36 -1 64 -25q26 -24 26 -62zM-76 -374q0 78 -54 132t-132 54t-130 -54q-54 -54 -54 -132t54 -132t130 -53q78 -1 132 53t54 132zM45 -402q-1 -125 -91 -214t-216 -89q-126 1 -214 89
t-87 214q-1 126 87 214t214 88t216 -88t91 -214z" />
    <glyph glyph-name="twosuperior" horiz-adv-x="408" 
d="M162 -553q64 0 100 43t35 91q0 48 -8 100q-23 -154 -144 -154q-65 1 -105 47t-40 107q0 108 145 116q-76 13 -234 13q-159 0 -255 -75t-96 -169q0 -50 31 -84t83 -35q120 0 248 221q110 -221 240 -221zM195 -313q0 19 -15 43q-18 2 -28 2q-64 0 -64 -54t57 -53
q50 0 50 62zM219 -205q81 0 131 -76t49 -171q0 -96 -61 -170t-168 -74q-164 0 -248 172q-83 -172 -250 -172q-106 0 -170 72t-61 173q4 141 124 246q119 105 337 105t296 -78q27 -27 21 -27z" />
    <glyph glyph-name="threesuperior" horiz-adv-x="408" 
d="M162 -553q64 0 100 43t35 91q0 48 -8 100q-23 -154 -144 -154q-65 1 -105 47t-40 107q0 108 145 116q-76 13 -234 13q-159 0 -255 -75t-96 -169q0 -50 31 -84t83 -35q120 0 248 221q110 -221 240 -221zM195 -313q0 19 -15 43q-18 2 -28 2q-64 0 -64 -54t57 -53
q50 0 50 62zM8 -799q0 -40 -26 -67t-60 -27t-59 27t-25 67q0 12 82 197q88 -185 88 -197zM219 -205q81 0 131 -76t49 -171q0 -96 -61 -170t-168 -74q-164 0 -248 172q-83 -172 -250 -172q-106 0 -170 72t-61 173q4 141 124 246q119 105 337 105t296 -78q27 -27 21 -27z" />
    <glyph glyph-name="acute" horiz-adv-x="330" 
d="M2 -100q148 0 226 -98t77 -228q0 -130 -74 -220q-73 -90 -191 -91q-118 0 -176 65t-59 149q0 85 46 139q45 54 125 54t122 -45t43 -104q0 -111 -92 -111q-21 0 -41 6l4 43q31 0 31 35q0 24 -19 46t-51 22q-82 0 -82 -70q-1 -42 37 -72t116 -30t126 50t47 120
q1 70 -59 126q-60 54 -178 54t-205 -111h-49q-93 111 -205 111q-84 0 -84 -62q0 -90 108 -90l4 -47q-120 -52 -120 -90q0 -51 79 -51q113 0 113 16h47l2 -41q4 -49 -50 -81t-130 -31q-76 -1 -142 51q-67 52 -67 127t84 119q-78 42 -78 130t59 147t162 59q156 0 246 -142
q100 146 248 146z" />
    <glyph glyph-name="mu1" horiz-adv-x="254" 
d="M143 -313q-1 35 -25 61t-65 27q-94 0 -94 -101q0 -27 23 -84h71q90 0 90 97zM36 -49q88 0 145 -79q57 -78 57 -188t-68 -189t-195 -79h-755v174h667q-39 70 -37 156t50 145q48 60 136 60z" />
    <glyph glyph-name="paragraph" horiz-adv-x="281" 
d="M-143 -293q0 -29 -21 -49t-50 -20t-49 20t-20 49q0 68 70 68t70 -68zM145 -430q0 96 -94 172q-95 76 -265 76t-266 -77t-95 -171q1 -54 33 -92t91 -37q126 0 234 158q132 -158 250 -158q53 -1 83 37t29 92zM-125 -793q0 -96 -86 -96q-30 1 -55 27t-25 69q0 12 80 189
q86 -179 86 -189zM254 -463q0 -100 -60 -171t-157 -71q-152 0 -248 173q-73 -173 -252 -173q-101 1 -163 71t-62 171q0 143 121 253t357 110t361 -119q103 -99 103 -244z" />
    <glyph glyph-name="middot" horiz-adv-x="281" 
d="M145 -430q0 96 -94 172q-95 76 -265 76t-266 -77t-95 -171q1 -54 33 -92t91 -37q126 0 234 158q132 -158 250 -158q53 -1 83 37t29 92zM254 -463q0 -100 -60 -171t-157 -71q-152 0 -248 173q-73 -173 -252 -173q-101 1 -163 71t-62 171q0 143 121 253t357 110t361 -119
q103 -99 103 -244z" />
    <glyph glyph-name="cedilla" horiz-adv-x="281" 
d="M145 -430q0 96 -94 172q-95 76 -265 76t-266 -77t-95 -171q1 -54 33 -92t91 -37q126 0 234 158q132 -158 250 -158q53 -1 83 37t29 92zM-125 -793q0 -96 -86 -96q-30 1 -55 27t-25 69q0 12 80 189q86 -179 86 -189zM254 -463q0 -100 -60 -171t-157 -71q-152 0 -248 173
q-73 -173 -252 -173q-101 1 -163 71t-62 171q0 143 121 253t357 110t361 -119q103 -99 103 -244z" />
    <glyph glyph-name="onesuperior" horiz-adv-x="254" 
d="M-270 -190q-158 0 -158 -78q0 -34 38 -63t99 -29q123 0 207 65q-72 105 -186 105zM303 -532q-1 -52 -45 -97t-110 -45t-135 48q-68 48 -68 147q0 16 -2 26q-113 -71 -245 -71t-202 70q-71 70 -71 152t70 142t196 60q185 0 284 -123q39 67 39 198q0 82 -77 185
q210 -50 210 -219q-1 -68 -27 -163t-61 -145q25 -27 25 -112q0 -35 98 -35q56 0 56 115q65 -81 65 -133z" />
    <glyph glyph-name="ordmasculine" horiz-adv-x="254" 
d="M172 -285q0 -192 -29 -275q-45 -128 -179 -128t-216 188q-79 -182 -225 -182q-87 0 -149 64t-62 146q0 80 48 140t126 60q123 0 123 -118q0 -87 -51 -87q-8 102 -82 102q-60 0 -60 -53q0 -96 138 -96q127 0 172 202h45q43 -202 180 -202q119 0 119 250q0 126 -34 258
t-79 182q40 20 60 20t28 -4q127 -60 127 -467z" />
    <glyph glyph-name="guillemotright" horiz-adv-x="254" 
d="M-156 -807q0 -42 -27 -68t-63 -26q-86 0 -86 98q0 15 80 203q96 -197 96 -207zM172 -285q0 -192 -29 -275q-45 -128 -179 -128t-216 188q-79 -182 -225 -182q-87 0 -149 64t-62 146q0 80 48 140t126 60q123 0 123 -118q0 -87 -51 -87q-8 102 -82 102q-60 0 -60 -53
q0 -96 138 -96q127 0 172 202h45q43 -202 180 -202q119 0 119 250q0 126 -34 258t-79 182q40 20 60 20t28 -4q127 -60 127 -467z" />
    <glyph glyph-name="onequarter" horiz-adv-x="504" 
d="M455 -348q0 -340 -209 -340q-138 0 -206 106q-40 62 -40 103q0 -67 -58 -138t-168 -71q-108 0 -174 49t-65 131q0 60 100 128q99 68 93 116t-50 49q-44 0 -45 -39q0 -39 50 -49q-1 -33 -45 -33t-74 25t-29 81q0 56 45 94q44 36 102 36t99 -40t41 -116t-68 -126
q-68 -48 -69 -88q0 -40 28 -50q18 -6 72 -6q81 0 143 87q49 67 52 111q22 -56 55 -97q78 -99 194 -101q138 -4 138 204t-185 472q-5 11 17 35t65 24q85 0 138 -170t53 -387z" />
    <glyph glyph-name="onehalf" horiz-adv-x="504" 
d="M102 -809q0 -92 -94 -92q-84 0 -84 98q0 12 80 201q98 -197 98 -207zM455 -348q0 -340 -209 -340q-138 0 -206 106q-40 62 -40 103q0 -67 -58 -138t-168 -71q-108 0 -174 49t-65 131q0 60 100 128q99 68 93 116t-50 49q-44 0 -45 -39q0 -39 50 -49q-1 -33 -45 -33t-74 25
t-29 81q0 56 45 94q44 36 102 36t99 -40t41 -116t-68 -126q-68 -48 -69 -88q0 -40 28 -50q18 -6 72 -6q81 0 143 87q49 67 52 111q22 -56 55 -97q78 -99 194 -101q138 -4 138 204t-185 472q-5 11 17 35t65 24q85 0 138 -170t53 -387z" />
    <glyph glyph-name="threequarters" horiz-adv-x="524" 
d="M65 -160q-141 0 -141 -6q0 -117 158 -117q123 0 127 70q-3 53 -144 53zM71 -672q-193 0 -309 85t-116 237q0 99 74 170q49 46 110 67q4 21 30 61t25 86q0 46 -55 99q54 37 92 37t66 -34q30 -34 30 -78t-22 -73t-43 -55q67 15 125 15q122 0 188 -50q66 -51 66 -117
t-64 -122t-169 -55t-175 59t-92 125q-80 -46 -80 -107q0 -192 324 -192q146 0 242 58q120 72 120 218l66 -90q0 -170 -120 -257t-313 -87z" />
    <glyph glyph-name="questiondown" horiz-adv-x="350" 
d="M182 0q0 45 -65 45q-58 0 -58 -69q1 -69 63 -170t122 -199q65 -122 65 -223q0 -144 -90 -224t-229 -80q-138 0 -240 74t-102 211q0 87 53 132q50 31 102 63t52 96q-1 84 -91 84t-90 -55q0 -35 35 -131q-57 2 -103 62t-48 123t50 112t149 49t157 -60t59 -157
q0 -119 -147 -226q-41 -20 -41 -80q0 -59 61 -93t146 -34q86 0 138 44t52 139t-120 289t-119 284t51 146t118 55q68 1 120 -45q53 -46 53 -110q1 -64 -27 -108t-72 -44q-8 0 -16 2q12 35 12 98zM170 -98z" />
    <glyph glyph-name="Agrave" horiz-adv-x="272" 
d="M197 -27q0 -289 -213 -454q-188 -146 -453 -146q-265 1 -455 127t-190 338q0 41 31 79q4 4 65 63v-109q0 -155 166 -243q148 -79 372 -79t396 113t172 311q0 69 -14 119t-19 58l45 22q13 -4 34 -12t42 -52t21 -135z" />
    <glyph glyph-name="Aacute" horiz-adv-x="76" 
d="M-670 -283q51 -1 51 49t-51 50q-31 0 -48 -18t-17 -27q23 -54 65 -54zM-45 -356q0 14 -2 22q-45 -49 -111 -49q-32 0 -68 21t-38 34h-311q-11 -13 -21 -26q-26 -23 -84 -23t-100 55q-2 -8 -2 -20q0 -68 48 -119t107 -51q118 0 215 145q84 -145 215 -145q51 0 101 47
t51 109zM-158 -184q-52 0 -53 -54q0 -54 53 -53q26 -1 48 17t22 43q-18 47 -70 47zM-158 -100q96 0 152 -78t55 -191q0 -112 -65 -199t-185 -87t-215 147q-96 -147 -222 -147q-126 -1 -186 77t-59 190q-1 112 61 200t150 88q117 0 146 -125h227q6 45 42 85t99 40z" />
    <glyph glyph-name="Acircumflex" horiz-adv-x="438" 
d="M141 -203q137 1 205 -75t68 -176t-52 -168q-52 -70 -139 -70q-149 0 -149 192q67 -71 114 -71q115 0 115 92q1 42 -37 73t-106 31q-164 0 -203 -71h-51q-36 69 -205 69q-65 1 -102 -33t-37 -79q0 -82 110 -82q48 0 129 57q0 -92 -30 -135q-31 -43 -119 -43t-142 74
t-53 172q0 98 62 170t172 73q167 0 239 -119q73 119 211 119z" />
    <glyph glyph-name="Atilde" horiz-adv-x="397" 
d="M-147 -567q0 -47 51 -47t51 46t-43 60q-23 0 -41 -18t-18 -41zM-314 -215q0 -35 33 -35q28 0 29 31q2 44 -57 29q-5 -14 -5 -25zM-289 -348q-66 0 -98 57v-2q0 -86 180 -86q50 0 74 -23t45 -44q68 12 136 25q153 49 153 319q-1 140 -19 202t-80 119l82 6q60 1 96 -89
t37 -214q0 -405 -284 -418q16 -28 16 -86q-1 -58 -43 -98t-101 -39q-59 0 -103 39q-44 38 -44 94t11 74q-101 -5 -177 46t-77 153q0 213 186 213q71 0 109 -36t37 -86q0 -50 -35 -88t-101 -38z" />
    <glyph glyph-name="Adieresis" horiz-adv-x="559" 
d="M483 -475q1 -114 -61 -192t-168 -78q-125 0 -199 163q-74 -163 -211 -163q-103 -1 -169 93t-66 196q1 102 55 152q54 52 123 52t117 -44t49 -102q0 -56 -38 -84t-90 -28t-52 47q61 27 61 43q0 64 -55 64q-31 0 -53 -27t-23 -70q0 -106 141 -106q105 0 154 65
q35 46 35 111q28 -52 57 -103q55 -67 162 -67q137 0 137 135q-1 86 -79 174t-216 133h-125v166h297q111 0 111 101q0 36 -43 71q42 40 63 66q86 -87 86 -178t-46 -159t-126 -69h-22q194 -136 194 -362z" />
    <glyph glyph-name="Aring" horiz-adv-x="254" 
d="M195 -385q0 43 -22 87t-34 48v-14q0 -158 -278 -158q-99 0 -99 -53q0 -109 179 -109q100 0 177 52t77 147zM291 -410q0 -152 -99 -236q-99 -83 -228 -83q-130 0 -222 64t-92 176q0 157 200 157t199 113v18q-32 16 -98 21q8 -14 8 -43q0 -88 -88 -88q-94 0 -94 98
q0 111 176 111q66 0 106 -15q11 71 11 121q0 171 -103 223q38 43 74 43q63 0 99 -90t36 -190t-16 -164q131 -84 131 -236z" />
    <glyph glyph-name="AE" horiz-adv-x="209" 
d="M217 -543q-1 -69 -23 -87t-67 -19q-104 0 -104 176q0 17 1 32q-20 -43 -62 -77q-73 -60 -165 -60q-143 0 -213 140q-65 -140 -221 -140q-97 0 -155 78t-58 160t42 132t114 50q147 0 147 -127q0 -102 -100 -100v47q11 0 11 21q0 57 -66 57q-20 0 -32 -24t-11 -44
q-1 -94 107 -94t166 41q27 19 66 76q77 -122 205 -117q65 4 107 58t41 139q0 144 -125 391q65 -5 133 -16q262 -567 262 -693z" />
    <glyph glyph-name="Ccedilla" horiz-adv-x="254" 
d="M184 -203q0 -411 -215 -411q-55 0 -99 50t-44 118q0 151 -203 151q-83 -1 -144 -45t-61 -110t27 -160q-41 0 -87 48t-46 142q0 136 86 216t213 79q125 0 215 -59t90 -189q0 -90 59 -90q49 0 65 72q9 43 9 149q0 495 -63 613q-4 3 15 17t34 13q47 0 98 -207t51 -397z" />
    <glyph glyph-name="Egrave" horiz-adv-x="563" 
d="M-471 -438q0 -74 48 -130q47 -56 135 -56q88 -2 142 56t54 134t-54 128t-138 52q-84 -2 -136 -56t-51 -128zM408 -436q0 76 -52 132t-145 54q-177 -3 -182 -201q-2 -76 55 -125t140 -49q84 1 134 57t50 132zM524 -464q0 -122 -82 -213t-234 -91t-239 109
q-87 -114 -241 -111t-237 94q-83 90 -83 212t80 208t233 88q154 4 244 -111q85 119 239 117t237 -90q83 -90 83 -212z" />
    <glyph glyph-name="Eacute" horiz-adv-x="76" 
d="M-670 -283q51 -1 51 49t-51 50q-31 0 -48 -18t-17 -27q23 -54 65 -54zM-158 -184q-52 0 -53 -54q0 -54 53 -53q26 -1 48 17t22 43q-18 47 -70 47zM-158 -100q96 0 152 -78t55 -191q0 -112 -65 -199t-185 -87t-215 147q-96 -147 -222 -147q-126 -1 -186 77t-59 190
q-1 112 61 200t142 88t118 -46q36 -46 36 -108q0 -123 -144 -123q-67 0 -110 55q-2 -8 -2 -20q0 -68 48 -119t107 -51q118 0 215 195q84 -195 215 -195q51 0 101 47t51 109q0 14 -2 22q-45 -49 -101 -49q-56 1 -102 35q-47 34 -47 94q0 154 139 154z" />
    <glyph glyph-name="Ecircumflex" horiz-adv-x="285" 
d="M113 -702q0 40 -29 68t-70 28q-42 0 -68 -28t-26 -71q0 -94 96 -94t97 97zM18 -938q-78 0 -134 55t-56 130t27 118l-93 6v129l211 2q58 62 58 150t-68 164h70q42 0 85 -42t42 -111q-1 -68 -68 -161l184 -2l7 -135h-105q26 -49 29 -100q5 -95 -53 -149t-136 -54z" />
    <glyph glyph-name="Edieresis" horiz-adv-x="281" 
d="M-404 -737q-82 0 -81 -37q0 -31 75 -31t134 35q-46 33 -128 33zM41 -166q30 0 104 -136t74 -282q0 -144 -55 -249t-155 -105t-212 107q-67 -107 -198 -107q-87 0 -137 44t-50 100t51 100q51 43 134 43t174 -51q20 68 20 96q0 86 -106 86q-13 0 -17 -4h6q7 1 13 1
q48 0 48 -46q0 -68 -79 -68q-90 1 -90 107t125 106q69 0 129 -50t59 -124q0 -74 -37 -154q67 -53 132 -53q64 0 108 61q92 128 3 352q-50 125 -126 163q31 63 82 63z" />
    <glyph glyph-name="Igrave" horiz-adv-x="72" 
d="M53 -938h-170q-1 134 -49 244t-141 110q-170 0 -170 -354h-160q0 168 87 303t249 135t258 -129t96 -309z" />
    <glyph glyph-name="Iacute" horiz-adv-x="246" 
d="M-205 -864q-1 -38 -23 -62t-52 -24t-52 24q-24 24 -24 62q0 9 71 170q80 -161 80 -170zM205 -440q0 -131 -107 -131q-32 0 -51 12v-31q-1 -88 -37 -152t-114 -65q-109 0 -177 139q-62 -139 -178 -139q-67 0 -105 53t-36 121t38 114t103 46q100 0 105 -98q3 -79 -138 -72
q50 40 50 63q0 15 -21 15q-33 0 -47 -45q0 -60 62 -60t118 52q55 52 64 51q9 0 16 -8q64 -95 123 -95q86 0 86 99q0 79 -61 129q-19 19 -19 44q0 46 51 46q36 0 65 -48t40 -55q0 -18 41 -18t41 43q0 32 -20 74t-50 41l-12 45q30 12 45 12q47 0 86 -60t39 -122z" />
    <glyph glyph-name="Icircumflex" horiz-adv-x="80" 
d="M-133 -938q-120 0 -176 104q-64 -100 -195 -100q-64 0 -118 45t-54 107t62 92q96 46 96 100q0 41 -41 41q-29 0 -29 -18q-4 -28 10 -50t15 -22q-16 -13 -39 -13q-78 0 -78 97q0 55 38 83t89 28q108 0 123 -105q100 92 227 92q93 -1 154 -37t61 -94q0 -69 -90 -69
q-26 0 -51 6q10 21 10 38q0 54 -100 54q-131 0 -234 -107q-30 -22 -61 -46t-31 -60q0 -41 72 -41t195 151q-13 12 -13 37q0 50 56 50t51 -50t-56 -50q-21 0 -34 9q3 -54 39 -94q37 -39 100 -47q59 0 64 12t5 23q0 39 -51 78q85 0 128 -41t44 -94t-55 -81t-133 -28z" />
    <glyph glyph-name="Idieresis" horiz-adv-x="264" 
d="M225 -797q0 -49 -39 -92t-116 -43t-136 74t-59 90q0 -68 -64 -119t-141 -51q-78 0 -130 40t-52 96t80 120q132 109 43 156q-27 0 -27 -34t14 -50t15 -15q-20 -14 -48 -14q-87 0 -87 98q0 53 36 81t85 28t90 -34t41 -94q0 -59 -52 -109t-51 -83q0 -55 82 -55q43 1 91 37
t48 74q0 -9 56 -60t116 -51q80 0 80 72q0 59 -75 108h-119v105h104q15 36 15 90t-66 55q4 86 78 86q102 0 102 -121q0 -43 -47 -110h131v-107h-57q59 -119 59 -168z" />
    <glyph glyph-name="Eth" horiz-adv-x="205" 
d="M-201 -950q-69 0 -69 88q0 9 63 172l86 -174q0 -86 -80 -86zM137 -455q0 -151 -25 -222q-38 -103 -140 -103t-177 141q-58 -135 -174 -135q-71 0 -121 52t-49 120q0 66 38 114t101 48q100 0 100 -93q0 -77 -44 -77q-3 78 -64 78q-39 0 -39 -35q0 -72 103 -72
q95 0 131 158h39q36 -158 139 -158q90 0 90 193q-1 98 -29 202t-69 146q43 20 61 20t25 -4q104 -47 104 -373z" />
    <glyph glyph-name="Ntilde" horiz-adv-x="133" 
d="M92 -805q0 -125 -139 -125q-103 0 -201 139q-12 -59 -72 -103t-132 -44t-128 41t-57 96q0 55 81 121t81 104q0 36 -35 44q-25 0 -25 -32t15 -49q15 -16 16 -16q-18 -14 -47 -14q-92 0 -92 96q0 51 36 79t83 28q83 0 114 -52q77 -51 185 -51q134 0 134 89q0 25 -11 55
q132 -17 135 -109q1 -59 -59 -100t-132 -37q-162 8 -237 55q-5 -41 -51 -86q-46 -44 -46 -78t20 -44t62 -9q44 0 90 36t46 75q26 -32 50 -54q64 -55 134 -57t70 55q0 16 -80 72q192 0 192 -125zM-504 -629z" />
    <glyph glyph-name="Ograve" horiz-adv-x="360" 
d="M-477 -623q47 -1 81 25t34 68t-32 72q-32 28 -85 28q-119 0 -119 -94q0 -99 121 -99zM78 -862q0 -28 -26 -52t-52 -24t-46 24t-20 54q0 9 68 153q76 -146 76 -155zM188 -424q-83 0 -83 52q-1 52 81 53q82 -1 126 -61t48 -144t-47 -154t-151 -70t-162 109
q-54 -109 -170 -109q-88 0 -152 99q-50 -99 -152 -99t-151 64t-49 152t53 152t153 63q100 0 149 -87q28 -52 28 -114q11 -105 125 -105t114 102q0 39 -27 69t-73 30q-71 0 -71 52q1 52 79 53q78 0 124 -75t45 -130q36 -101 143 -101q56 1 88 31t31 69t-27 69t-72 30z" />
    <glyph glyph-name="Oacute" horiz-adv-x="250" 
d="M-145 -764q1 19 -91 19t-92 -27q0 -33 56 -33q56 -1 92 17t35 24zM-266 -899q-70 -1 -112 37t-42 87t43 82q-2 81 -110 81q-76 0 -76 -56q0 -39 43 -39q9 0 9 -26q0 -41 -42 -41q-119 0 -119 137q0 64 46 113t134 49q87 0 140 -88q54 88 148 88t145 -78q59 78 139 78
q80 -1 122 -49t44 -110t-31 -104q-32 -42 -88 -42q-13 0 -47 20l12 37q53 0 53 41q-1 26 -19 48t-60 22t-77 -39q-34 -39 -38 -94q29 -45 29 -89t-34 -80t-62 -36q-30 0 -42 24t-4 27q49 21 51 65q1 8 -10 27q1 -3 -37 -47t-108 -45zM-240 -612q-46 0 -123 -71q87 54 234 1
q-5 30 -35 50t-76 20z" />
    </font>
</defs>
</svg>
