<?xml version="1.0" standalone="no"?>
<!DOCTYPE svg PUBLIC "-//W3C//DTD SVG 1.1//EN" "http://www.w3.org/Graphics/SVG/1.1/DTD/svg11.dtd" >
<svg xmlns="http://www.w3.org/2000/svg">
<metadata>
Created by FontPrep 20130207 at Wed Jul  1 19:48:41 2015
 By Nikhil Damle
(c) 2005, Indian Institute of Science,Bangalore.Distributed under the GNU General Public License (GPL) .
</metadata>
<defs>
<font id="18dfb767d6c46051857fab743f295b70" horiz-adv-x='1024' >
  <font-face 
    font-family="KedageNormal"
    font-weight="400"
    font-stretch="normal"
    units-per-em="2048"
    panose-1="0 0 4 0 0 0 0 0 0 0"
    ascent="1638"
    descent="-410"
    bbox="-1339 -1020 3697 2105"
    underline-thickness="64"
    underline-position="-288"
    unicode-range="U+0020-0CEF"
  />
<missing-glyph horiz-adv-x="1024" 
d="M256 128h512v1792h-512v-1792zM128 0v2048h768v-2048h-768z" />
    <glyph glyph-name=".notdef" horiz-adv-x="1024" 
d="M256 128h512v1792h-512v-1792zM128 0v2048h768v-2048h-768z" />
    <glyph glyph-name=".null" horiz-adv-x="0" 
 />
    <glyph glyph-name="nonmarkingreturn" horiz-adv-x="650" 
 />
    <glyph glyph-name="space" unicode=" " horiz-adv-x="650" 
 />
    <glyph glyph-name="glyph4" unicode="!" horiz-adv-x="709" 
d="M373 127q0 67 42 105q43 38 101 38t100 -38t43 -102q0 -64 -41 -98t-104 -34q-141 0 -141 129zM524 1448q50 0 84 -34q35 -34 31 -79l-88 -942h-62l-83 942q-4 45 32 79t86 34z" />
    <glyph glyph-name="glyph5" unicode="&#x22;" horiz-adv-x="614" 
d="M160 1076q143 0 143 -128q1 -64 -41 -102t-100 -39q-58 1 -104 45t-46 129q0 278 256 420l37 -33q-180 -126 -180 -295q16 3 35 3z" />
    <glyph glyph-name="glyph6" unicode="$" 
 />
    <glyph glyph-name="glyph7" unicode="%" horiz-adv-x="1636" 
d="M553 1243q-95 1 -189 -165t-94 -304t119 -139q119 0 217 143t99 307q0 45 -17 95q-70 18 -96 40t-39 23zM892 1145q-88 0 -151 20q13 -40 13 -88q0 -175 -107 -332q-121 -178 -299 -178q-82 0 -154 67q-72 68 -73 214t127 300t295 155q85 -1 151 -55t171 -54
q107 0 171 36t133 99h76l-756 -1354h-94l686 1221l-4 6q-97 -57 -185 -57zM1329 666q-124 0 -220 -198q-77 -159 -77 -259q0 -150 123 -150q123 1 217 151t94 290q0 70 -38 118t-99 48zM1303 729q217 0 217 -215q0 -180 -114 -347t-280 -167q-243 0 -243 270q1 161 131 310
t289 149z" />
    <glyph glyph-name="glyph8" unicode="'" horiz-adv-x="614" 
d="M565 1169q0 -277 -256 -417l-37 32q181 126 181 295q-16 -2 -36 -2q-143 0 -143 125q0 66 43 106t101 40t102 -46t45 -133z" />
    <glyph glyph-name="glyph9" unicode="(" horiz-adv-x="778" 
d="M221 358q0 -512 334 -919l-18 -21q-133 103 -228 234q-227 316 -227 716t227 726q95 135 228 245l24 -10q-340 -459 -340 -971z" />
    <glyph glyph-name="glyph10" unicode=")" horiz-adv-x="778" 
d="M725 368q0 -400 -226 -716q-95 -131 -227 -234l-22 21q336 407 336 919t-340 971l26 10q132 -110 227 -245q226 -326 226 -726z" />
    <glyph glyph-name="glyph11" unicode="*" horiz-adv-x="983" 
d="M135 752q0 68 101 90q153 35 223 84l-21 12q-43 26 -202 66q-101 26 -101 92q-1 26 19 46t55 21t102 -77t164 -130v25q-1 89 -25 163t-24 109q0 76 70 76t69 -76q-1 -20 -27 -106t-26 -143v-54q77 44 151 129q75 86 113 86q72 0 72 -69q0 -56 -38 -73q-54 -13 -128 -31
t-156 -68q79 -51 230 -82q94 -19 94 -82q0 -72 -72 -72q-44 0 -118 88t-134 113l-14 8v-14q0 -114 26 -190q26 -77 27 -99q-1 -22 -21 -48t-50 -26t-52 22t-22 50t29 112t29 127q0 42 -7 66q-98 -64 -147 -120q-49 -55 -67 -71t-56 -16q-66 0 -66 62z" />
    <glyph glyph-name="glyph12" unicode="+" horiz-adv-x="1108" 
d="M489 563v432h129v-432h431v-131h-431v-432h-129v432h-430v131h430z" />
    <glyph glyph-name="glyph13" unicode="," horiz-adv-x="614" 
d="M565 94q0 -279 -256 -422l-37 33q181 128 181 297h-9q-12 -1 -23 -1q-147 0 -147 124q0 69 42 105t102 36q59 0 103 -45t44 -127z" />
    <glyph glyph-name="glyph14" unicode="-" 
 />
    <glyph glyph-name="glyph15" unicode="." horiz-adv-x="614" 
d="M225 131q1 67 43 104t100 37t99 -38t41 -101q0 -65 -40 -99t-101 -34q-142 0 -142 131z" />
    <glyph glyph-name="glyph16" unicode="/" horiz-adv-x="614" 
d="M573 1286l-430 -1431h-73l426 1431h77z" />
    <glyph glyph-name="glyph17" unicode="0" horiz-adv-x="1229" 
d="M614 25q256 1 256 627t-256 626t-256 -626t256 -627zM1059 650q0 -242 -87 -427q-118 -250 -358 -250t-357 250q-87 185 -87 427t87 427q119 252 357 252t358 -252q87 -185 87 -427z" />
    <glyph glyph-name="glyph18" unicode="1" horiz-adv-x="1229" 
d="M872 0h-542v29q104 5 136 24q50 31 50 129v891q0 92 -65 92q-23 0 -134 -43v29l355 178l14 -4v-1180q0 -70 38 -93t148 -23v-29z" />
    <glyph glyph-name="glyph19" unicode="2" horiz-adv-x="1229" 
d="M182 0v25l348 370q256 273 256 506q0 105 -53 180q-73 103 -227 103q-117 0 -191 -88q-42 -49 -90 -166l-41 8q42 205 156 298t258 93q142 -1 250 -99t108 -255q0 -217 -251 -479l-332 -346h473q60 0 96 22t90 109l25 -11l-109 -270h-766z" />
    <glyph glyph-name="glyph20" unicode="3" horiz-adv-x="1229" 
d="M995 426q1 -206 -153 -330t-391 -123q-70 0 -128 18q-92 29 -92 95t78 66q41 0 131 -54t150 -53q128 -1 195 89t67 212q0 60 -27 123q-39 93 -129 139t-250 41v25q326 108 326 334q0 80 -57 142t-160 62q-176 0 -289 -208l-30 6q98 319 387 319q165 0 248 -102
q59 -73 59 -162q0 -157 -185 -277q107 -48 156 -98q94 -97 94 -264z" />
    <glyph glyph-name="glyph21" unicode="4" horiz-adv-x="1229" 
d="M698 455v667h-6l-467 -667h473zM1053 455v-125h-203v-330h-152v330h-551v125l617 874h86v-874h203z" />
    <glyph glyph-name="glyph22" unicode="5" horiz-adv-x="1229" 
d="M889 1145h-385l-84 -166q170 -31 245 -58q139 -51 211 -139t90 -154t19 -186q-1 -198 -149 -334t-379 -135q-114 0 -180 32t-66 85q0 78 80 78q64 0 148 -62t136 -61q107 -1 190 91t83 259q0 211 -201 323q-150 83 -360 93q-19 1 -13 25l215 467h410q54 0 92 49l17 -13
l-74 -174q-4 -20 -45 -20z" />
    <glyph glyph-name="glyph23" unicode="6" horiz-adv-x="1229" 
d="M864 352q0 400 -264 400q-121 0 -186 -64q-41 -40 -41 -184q-1 -236 79 -356t188 -121q108 1 166 83t58 242zM680 840q162 0 262 -110t100 -284q0 -176 -78 -299q-111 -174 -341 -174q-187 0 -311 153q-124 152 -124 452t231 528t580 237l5 -30q-248 -39 -400 -201
t-182 -360q84 52 130 70t128 18z" />
    <glyph glyph-name="glyph24" unicode="7" horiz-adv-x="1229" 
d="M446 1155q-86 1 -127 -33t-98 -125l-35 15l84 202l33 89h727v-33l-416 -1284h-127l387 1169h-428z" />
    <glyph glyph-name="glyph25" unicode="8" horiz-adv-x="1229" 
d="M848 248q0 102 -59 166q-59 65 -248 200q-72 -57 -103 -105q-55 -83 -55 -202t66 -199t172 -81q107 -1 167 59t60 162zM821 1047q0 101 -57 164q-58 63 -162 63t-158 -60t-53 -137q0 -152 246 -313q83 55 120 101q64 81 64 182zM997 294q0 -112 -72 -198
q-103 -123 -319 -123q-171 1 -272 95t-101 215t63 200q41 52 193 170q-145 129 -194 195t-49 176q0 141 113 223t263 82q150 -1 242 -81t92 -198t-92 -206q-52 -50 -172 -115q185 -131 245 -227t60 -208z" />
    <glyph glyph-name="glyph26" unicode="9" horiz-adv-x="1229" 
d="M836 698v76q0 500 -263 500q-208 0 -208 -344q0 -147 46 -245q64 -134 203 -134q106 0 189 67q33 27 33 80zM1024 778q0 -326 -212 -562t-574 -261l-5 41q300 49 471 297q86 125 123 276l-2 6q-129 -108 -299 -108t-266 133q-78 108 -78 256q0 201 113 337t298 136
t308 -154t123 -397z" />
    <glyph glyph-name="glyph27" unicode=":" horiz-adv-x="545" 
d="M379 82q0 -48 -37 -76q-36 -29 -74 -29q-38 1 -73 29t-35 76t32 82q32 33 76 33q45 1 78 -33t33 -82zM379 788q-1 -48 -37 -76t-74 -28t-74 28q-34 28 -34 76t32 80t76 33q44 0 78 -33q33 -32 33 -80z" />
    <glyph glyph-name="glyph28" unicode=";" horiz-adv-x="545" 
d="M379 788q-1 -48 -37 -76t-74 -28t-74 28q-34 28 -34 76t32 80t76 33q44 0 78 -33q33 -32 33 -80zM158 86q0 115 114 115q53 0 95 -33q63 -49 63 -148q0 -98 -78 -186t-141 -113l-18 37q161 106 161 209q0 29 -26 29l-47 -8q-123 0 -123 98z" />
    <glyph glyph-name="glyph29" unicode="=" horiz-adv-x="1229" 
d="M1171 401h-1110v95h1110v-95zM1171 733h-1110v94h1110v-94z" />
    <glyph glyph-name="glyph30" unicode="&#x3e;" horiz-adv-x="737" 
d="M518 -111l-149 111v1268l149 -111v-1268z" />
    <glyph glyph-name="glyph31" unicode="?" horiz-adv-x="1229" 
d="M913 107q-1 -53 -37 -91t-87 -39q-51 1 -89 39t-38 90t38 92t90 40t87 -39q36 -39 36 -92zM453 1141q1 143 103 215t249 71t245 -99t97 -234q0 -136 -94 -237q-34 -38 -173 -143q-94 -72 -94 -120q0 -133 23 -221h-49q-49 95 -49 219q0 58 72 140t142 161q74 101 74 203
t-60 172q-59 70 -177 71q-118 0 -186 -68t-68 -132t53 -119q14 108 86 108q38 0 64 -28t26 -66q0 -103 -108 -108q-54 -3 -115 50t-61 165z" />
    <glyph glyph-name="numbersign" unicode="&#xc82;" horiz-adv-x="1042" 
d="M864 539q0 133 -106 245t-240 111q-132 -1 -238 -107t-106 -259t102 -245t246 -91t243 85t99 261zM920 555q0 -569 -402 -569q-190 0 -292 152t-103 408t101 395q102 140 292 140q404 0 404 -526z" />
    <glyph glyph-name="dollar" unicode="&#xc83;" horiz-adv-x="614" 
d="M469 209q0 102 -150 102q-59 -1 -101 -27t-42 -74t44 -73t104 -25t102 26q43 26 43 71zM469 850q0 106 -150 106q-59 0 -101 -28t-42 -76t44 -72q44 -26 106 -26q60 0 102 26t41 70zM504 204q0 -100 -52 -156t-126 -56t-132 59t-57 154q0 95 47 159q46 64 132 64t137 -62
t51 -162zM504 848q0 -100 -50 -156t-124 -55q-74 -1 -134 57q-59 58 -59 154t47 160t133 63q87 0 137 -61q50 -62 50 -162z" />
    <glyph glyph-name="percent" unicode="&#xc85;" horiz-adv-x="1511" 
d="M416 973q-103 0 -154 -80q15 -133 133 -133q59 0 93 35t36 77t-27 71q-30 30 -81 30zM1122 973q-42 0 -76 -35t-34 -78q0 -100 121 -100q57 0 103 30t46 74q-38 109 -160 109zM1399 647q0 -307 -213 -491q-190 -164 -450 -164t-436 176t-177 504q-1 172 79 314t220 142
q78 0 119 -63t41 -161t-52 -180t-139 -83q-156 0 -172 186q-43 -84 -43 -172q0 -229 173 -356q152 -113 395 -113t410 117q196 137 196 393q0 73 -21 113q-31 -111 -84 -111v-84h-573v172h307q-12 44 -12 110t33 140q41 92 120 92q136 0 212 -153q67 -133 67 -328z" />
    <glyph glyph-name="ampersand" unicode="&#xc86;" horiz-adv-x="1511" 
d="M518 870q0 103 -100 103q-67 0 -104 -31q-14 -18 -27 -35q-11 -147 110 -147q57 0 89 33t32 77zM1341 870q0 103 -116 103q-123 0 -123 -123q0 -34 18 -64q22 -2 47 -2q174 0 174 86zM1403 889q0 -223 -148 -275q74 -58 74 -204q0 -190 -169 -308t-428 -118t-422 157
q-187 181 -187 527q0 174 70 307q80 153 217 153q88 0 132 -63t44 -162t-57 -183t-137 -83q-80 0 -124 53q-43 53 -43 131q-45 -51 -45 -145q0 -255 169 -382q143 -108 373 -108t382 75t153 198q0 99 -55 157h-547v175h406q-51 86 -51 192q0 53 44 99t117 46q113 0 173 -70
t59 -169z" />
    <glyph glyph-name="quotesingle" unicode="&#xc87;" horiz-adv-x="1495" 
d="M1020 592q-53 0 -86 -26t-33 -58q0 -98 109 -98t178 102q-52 80 -168 80zM1077 1128q119 0 207 -100t88 -260q0 -158 -110 -317q10 -21 10 -49t-32 -94t-32 -107q0 -62 58 -62t63 90l35 -20v-70q0 -61 -39 -95t-95 -36t-102 38q-45 40 -45 110q0 21 36 104t40 107
q-104 -58 -191 -58q-87 -1 -145 55t-59 120q-2 64 60 111q62 48 162 48t176 -43t69 -47q33 11 57 58t23 100q1 97 -77 173t-190 77q-112 -1 -171 -49t-140 -177q-74 226 -299 226q-108 -1 -181 -57t-73 -132q0 -162 242 -162q10 -16 10 -45q0 -63 -72 -63q-114 0 -180 88
t-68 214q0 128 80 226t230 98q95 0 164 -62t108 -134t39 -82q88 145 142 198q84 80 202 80z" />
    <glyph glyph-name="parenleft" unicode="&#xc88;" horiz-adv-x="1942" 
d="M1151 477h-745q0 -141 116 -222t253 -81q136 0 256 81t120 222zM1798 782q0 58 -41 92t-97 35t-96 -37q-42 -38 -42 -111q0 -74 61 -149q215 0 215 170zM1155 612q0 112 -74 196q-100 114 -291 114t-299 -114q-88 -93 -88 -196h752zM1835 764q0 -193 -147 -256
q141 -141 141 -279q1 -97 -53 -163t-125 -66q-101 0 -119 94q80 0 126 68t46 153q0 86 -53 172q-48 -10 -107 -10l-72 1h-128q-21 0 -68 -1q0 -195 -160 -344t-344 -149q-186 0 -338 148t-151 345h-189v135q222 -2 217 0q0 154 217 287h-243v172h682q73 0 132 48t60 108
q2 118 -86 166l55 53q127 -68 127 -270q-1 -112 -57 -194t-154 -83q209 -136 209 -287q76 -1 279 0q-84 102 -84 238q0 86 50 134t129 48q78 0 143 -70t65 -198z" />
    <glyph glyph-name="parenright" unicode="&#xc89;" horiz-adv-x="2089" 
d="M416 700q61 0 94 32t33 84q1 52 -43 104t-110 51q-66 0 -94 -33l-46 -76q6 -162 166 -162zM1098 963q-90 0 -158 -96t-69 -234q-1 -53 21 -152t22 -200q0 -297 -289 -297q-225 0 -363 213t-139 471q-1 190 71 324t207 134q87 0 139 -94t52 -207q0 -112 -48 -191t-136 -79
q-147 0 -207 215q-15 -79 -15 -152q0 -432 396 -432q263 0 263 237q1 67 -19 158t-20 173q0 172 78 274t208 102t212 -123t83 -348q1 -73 -5 -122t-6 -68q0 -117 78 -200t198 -83t200 85t81 219q0 134 -108 285q-108 152 -305 212q-6 1 4 39t36 70t64 32t70 -14
q142 -58 220 -236t79 -383q0 -203 -102 -357t-277 -154q-292 0 -292 411l12 196q0 164 -72 268q-74 104 -164 104z" />
    <glyph glyph-name="asterisk" unicode="&#xc8a;" horiz-adv-x="2677" 
d="M416 700q61 0 94 32t33 84q1 52 -43 104t-110 51q-66 0 -94 -33l-46 -76q6 -162 166 -162zM2105 1128q171 0 305 -168t134 -437q0 -267 -91 -403t-205 -136t-196 88t-82 225q0 295 205 295q70 0 122 -40t52 -101t-31 -91t-71 -30q-85 0 -95 73q-6 47 20 69t46 23
q20 0 27 -1q0 32 -67 32t-113 -45t-46 -124q-1 -79 61 -125t161 -46t181 82t81 253q0 169 -120 295t-252 126q-133 0 -217 -104t-84 -295q0 -71 10 -135t11 -110q1 -150 -77 -232t-179 -82q-274 0 -274 387l13 220q0 164 -72 268t-164 104q-90 0 -158 -96t-69 -234
q0 -53 20 -145t20 -189q0 -315 -307 -315q-234 0 -367 224q-114 192 -114 460q-1 190 71 324t207 134q87 0 139 -94t52 -207q0 -112 -48 -191t-136 -79q-147 0 -207 215q-15 -79 -15 -152q0 -432 396 -432q263 0 263 237q0 55 -19 161t-19 161q0 177 83 281q82 104 212 104
t208 -120t78 -342q0 -76 -6 -134t-7 -84q1 -116 57 -190t165 -74q203 0 203 218l-22 261q0 211 96 337t231 126z" />
    <glyph glyph-name="plus" unicode="&#xc8b;" horiz-adv-x="2482" 
d="M459 317q0 109 -90 109q-41 0 -69 -43t-21 -88q7 -57 93 -59t87 81zM453 760q0 73 -82 86q-35 2 -76 -10l-10 -50q0 -122 84 -122q31 0 57 26t27 70zM1896 1090q160 0 324 -184t164 -408t-87 -359q-99 -155 -282 -155q-246 0 -329 311q-22 -161 -116 -236t-214 -75
t-244 103t-182 292q-27 -117 -81 -200q-129 -199 -370 -199q-135 0 -215 90t-80 190q0 98 47 154t128 57q81 0 125 -45q44 -44 44 -106t-35 -106q-36 -44 -107 -44t-116 72q-3 -14 -3 -29q1 -70 61 -124t135 -54q141 0 226 157q73 135 73 310q0 528 -281 528q-71 0 -112 -34
t-53 -66t-17 -49q33 20 91 20q58 1 104 -41t47 -116q-1 -74 -47 -114t-118 -38t-132 62t-60 167t96 183t228 77q175 0 290 -119q138 -143 138 -421q117 -355 381 -355q109 0 179 66t69 174t-91 236t-274 237h-217v172h432q99 1 147 51t48 122t-86 149q47 48 47 45
q133 -128 133 -244t-60 -206t-161 -89h-207q418 -219 418 -508q0 -37 -2 -55q79 -150 340 -150q119 0 211 72t92 207q0 314 -443 436q-88 25 -88 97q0 36 26 64t66 28z" />
    <glyph glyph-name="hyphen" unicode="&#xc8e;" horiz-adv-x="1495" 
d="M1356 354q0 -150 -74 -260t-199 -110t-199 70t-110 148q-36 79 -35 97q1 -17 -35 -97t-108 -148q-72 -70 -182 -70q-148 0 -230 114q-69 95 -69 233q0 137 70 209t158 72t147 -48t59 -108q-1 -60 -31 -88t-61 -28q8 28 8 62q-1 34 -39 59q-38 26 -96 26q-58 -1 -106 -35
t-48 -104t59 -116t160 -46q267 0 344 254q0 -50 58 -129q91 -125 262 -125q107 0 173 79t66 212q0 167 -200 318t-448 151q-68 0 -110 -8t-57 -9q-88 0 -88 81q0 46 57 82t162 36q239 0 459 -172q283 -222 283 -602z" />
    <glyph glyph-name="period" unicode="&#xc8f;" horiz-adv-x="1495" 
d="M1360 469q0 -207 -85 -345t-245 -138q-217 0 -295 311q-65 -311 -297 -311q-157 0 -241 110t-84 247q0 135 74 209t160 71t140 -55t54 -126q-1 -76 -43 -116t-78 -41q-36 0 -53 26q88 18 88 111q-1 50 -39 78t-96 28t-106 -39q-46 -39 -46 -110q0 -193 241 -193t332 242
q60 -242 303 -242q130 0 194 96t65 244q0 220 -148 405q-166 208 -414 208q13 -83 13 -115q0 -83 -65 -148t-148 -65q-129 1 -208 95t-79 282v49h51q-1 -119 71 -189t147 -69t115 41t40 97t-20 87t-23 29q336 0 543 -254q182 -223 182 -510z" />
    <glyph glyph-name="slash" unicode="&#xc90;" horiz-adv-x="1495" 
d="M1352 475q0 -207 -86 -349t-244 -142q-123 0 -214 135q-67 100 -67 139q0 -14 -39 -84q-38 -70 -110 -130t-170 -60q-140 0 -222 115t-81 247q0 132 73 206q73 75 159 75q86 1 140 -45t54 -123q1 -77 -49 -115t-99 -39q-17 0 -30 17q90 22 90 108q0 55 -43 83
q-44 28 -100 28t-95 -42t-39 -110q0 -203 246 -203t315 242q12 -33 33 -85q21 -53 85 -105q65 -52 187 -52t192 89t69 241q0 152 -86 282q-99 152 -265 152q-214 0 -272 -217q-76 215 -293 215q-83 0 -144 -32t-61 -78q0 -45 21 -90q-31 0 -69 35t-38 110q0 109 82 171
t197 62q220 0 299 -243q43 243 256 243q233 0 338 -215q80 -163 80 -436z" />
    <glyph glyph-name="zero" unicode="&#xc92;" horiz-adv-x="1495" 
d="M1169 565q101 1 155 -73t54 -196t-80 -218q-80 -94 -230 -94t-248 133q-66 92 -66 137q0 -12 -44 -82t-117 -128q-73 -60 -185 -60t-198 82t-87 206q0 124 89 224q82 74 168 150t85 149q0 178 -146 178q-139 0 -139 -137q0 -90 115 -134q-37 -6 -47 -6q-66 0 -122 48
t-56 150t64 168t170 66t182 -74q75 -74 75 -188t-84 -199q-79 -67 -157 -134q-84 -82 -84 -181q0 -166 227 -166q202 0 287 251q-1 -14 21 -75q22 -62 85 -119q64 -57 180 -57t187 59t71 127t-48 110t-140 42q-10 0 10 20t53 21zM750 437q0 4 2 5q-1 -3 -2 -5z" />
    <glyph glyph-name="one" unicode="&#xc93;" horiz-adv-x="1495" 
d="M1169 565q101 1 155 -73t54 -188t-82 -218q-82 -102 -232 -102t-246 133q-64 90 -64 137q0 -12 -44 -82t-117 -128q-73 -60 -185 -60t-198 82t-87 206q0 124 89 224q82 74 168 150t85 149q0 178 -146 178q-139 0 -139 -137q0 -90 115 -134q-37 -6 -47 -6q-66 0 -122 48
t-56 141q0 161 123 219q-121 63 -121 178q0 156 196 156q63 0 127 -37q-182 -12 -182 -139q0 -99 70 -134h20q108 0 183 -74t75 -188t-84 -199q-79 -67 -157 -134q-84 -82 -84 -181q0 -166 227 -166q192 0 288 253q-1 -12 22 -76q23 -63 87 -120t178 -57t185 59t71 127
t-48 110t-140 42q-10 0 10 20t53 21zM751 439q0 2 1 3q0 -1 -1 -3z" />
    <glyph glyph-name="two" unicode="&#xc94;" horiz-adv-x="1495" 
d="M981 1479q202 -1 310 -129t108 -292q-1 -164 -85 -272q-84 -110 -230 -110t-226 87t-80 195t60 179t157 71t145 -60t48 -130t-33 -110t-90 -40q-117 0 -117 90q0 32 23 58t73 26t84 -43q0 60 -34 104t-102 44q-66 -1 -110 -61t-44 -134t63 -126t187 -52t194 83
q72 83 72 193t-82 194q-82 85 -193 85h-538q54 -57 54 -118q-1 -61 -39 -99t-97 -39q102 -74 102 -215q0 -106 -84 -191q-79 -67 -157 -134q-84 -82 -84 -181q0 -166 227 -166q197 0 288 253q-1 -12 23 -76q24 -63 88 -120t176 -57q114 0 185 59t71 127t-48 110t-140 42
q-10 0 10 20t53 21q101 1 155 -73t54 -188t-82 -218q-82 -102 -226 -102t-245 133q-71 95 -71 137q0 -11 -46 -81q-46 -69 -120 -129t-183 -60t-195 82t-87 206q0 124 89 224q82 74 168 150t85 149q0 178 -146 178q-139 0 -139 -137q0 -90 115 -134q-37 -6 -47 -6
q-66 0 -122 48t-56 157t80 176v90h313q55 1 55 77t-43 87h-325v148h831zM751 439q0 3 1 3q0 -1 -1 -3z" />
    <glyph glyph-name="three" unicode="&#xc95;" horiz-adv-x="995" 
d="M275 384q0 -98 71 -153t169 -55q97 0 167 55t70 155t-62 166t-168 66t-176 -68t-71 -166zM916 598h-219q55 -31 105 -106t50 -170q0 -162 -100 -250t-236 -88q-137 0 -236 87t-99 251q0 95 50 170t105 106h-233v135h395q37 25 37 79t-41 87h-391v172h502q221 0 221 174
q0 72 -86 148l43 45q133 -128 133 -244t-59 -206t-160 -89h-105q43 -33 43 -83t-28 -83h309v-135z" />
    <glyph glyph-name="four" unicode="&#xc96;" horiz-adv-x="1659" 
d="M406 442q-207 0 -207 -137q0 -41 36 -79t101 -38q220 0 366 109q-135 145 -296 145zM1556 469q0 -209 -92 -336q-109 -149 -325 -149q-190 0 -351 260q-179 -260 -405 -260q-121 0 -189 84t-69 184q0 100 72 174t233 74t322 -144q84 101 84 285q0 128 -76 225t-207 97
q-209 0 -209 -142q0 -50 44 -80t91 -30q-20 11 -20 53t25 63t59 21q100 0 100 -100q0 -58 -42 -90q-43 -32 -115 -33q-72 1 -142 71t-70 162t64 174q64 84 192 84q169 0 273 -161q92 -141 92 -335t-76 -298q107 -134 297 -134t286 94t97 252q0 158 -100 320t-228 186
q-88 6 -208 29q-40 23 -40 51t13 47q29 43 106 43q263 0 399 -229q115 -197 115 -512z" />
    <glyph glyph-name="five" unicode="&#xc97;" horiz-adv-x="1212" 
d="M1116 0h-170q0 455 -79 677t-257 222q-340 0 -340 -899h-170q0 380 62 544t254 355h-316v172h701q221 0 221 174q0 72 -86 148l45 45q133 -128 133 -246q0 -293 -311 -293q189 -190 251 -354t62 -545z" />
    <glyph glyph-name="six" unicode="&#xc98;" horiz-adv-x="1741" 
d="M823 -298q0 -56 -34 -86t-80 -30q-47 0 -79 30t-32 84t111 296q114 -238 114 -294zM1565 615q0 -145 -144 -146q-66 -1 -133 47q28 -64 28 -149q0 -149 -83 -266t-234 -117q-117 0 -222 118q-43 59 -85 119q-95 -235 -299 -235q-160 0 -244 132q-67 105 -67 243t72 209
t160 71q88 1 146 -53t56 -150q0 -58 -50 -98t-94 -39q-44 0 -44 29q91 26 90 104q0 50 -40 80t-96 30t-97 -41q-42 -41 -42 -122q0 -188 246 -188q174 0 253 108q46 63 46 115q0 -45 56 -114q90 -109 260 -109q217 0 217 140q0 112 -156 242q-64 54 -64 104q1 29 21 48
q57 53 163 -55q71 -72 176 -74t105 53q0 49 -80 146q-4 5 -4 15t16 20q16 12 29 12q14 0 23 -6q115 -87 115 -223zM811 691q0 -50 -35 -84t-85 -34t-84 34t-34 84t34 85t84 35t85 -35t35 -85zM1563 1192q0 -293 -312 -293h-1153v172h1153q222 0 222 174q0 72 -87 148l44 45
q133 -128 133 -246z" />
    <glyph glyph-name="seven" unicode="&#xc99;" horiz-adv-x="1460" 
d="M1169 565q101 1 155 -73t54 -188t-82 -218q-82 -102 -232 -102t-246 133q-64 90 -64 137q0 -12 -42 -82t-116 -128q-74 -60 -187 -60t-199 82t-87 206q0 124 89 224q82 74 168 150t85 149q0 178 -146 178q-139 0 -139 -137q0 -90 115 -134q-37 -6 -47 -6q-66 0 -122 48
t-56 150t64 168t168 66t182 -68t77 -177q244 243 467 243q166 0 245 -82t79 -181q0 -98 -41 -153t-99 -55q27 60 27 119q0 197 -272 197q-224 0 -418 -195q-24 -71 -108 -142q-134 -115 -137 -119q-68 -73 -68 -163q0 -164 227 -164q197 0 288 251q-1 -12 22 -75t76 -110
q73 -66 188 -66t186 58t71 126t-48 110t-140 42q-10 0 10 20t53 21zM920 690q0 -48 -34 -82t-82 -33q-48 0 -82 34q-34 33 -34 81t34 82t82 35q48 -1 82 -35t34 -82zM751 439q0 2 1 3q0 -1 -1 -3z" />
    <glyph glyph-name="eight" unicode="&#xc9a;" horiz-adv-x="1460" 
d="M1403 592h-199q42 0 108 -94t66 -181q0 -129 -82 -231t-236 -102t-246 133q-60 86 -60 137q0 -11 -44 -81q-44 -69 -118 -129t-185 -60t-197 82t-87 206q0 124 89 224q82 74 168 150t85 149q0 178 -146 178q-139 0 -139 -137q0 -90 115 -134q-37 -6 -47 -6q-66 0 -122 48
t-56 150t64 168t170 66t182 -74q75 -74 75 -188t-84 -199q-79 -67 -157 -134q-84 -82 -84 -181q0 -166 227 -166q209 0 287 250q0 -14 21 -75t85 -118t180 -57t187 59t71 122t-70 144t-96 81h-276v172h295q67 0 67 68t-59 67h-295v172h232q221 0 221 174q0 72 -86 148l43 45
q133 -128 133 -246q0 -206 -160 -268q56 -70 56 -122q0 -21 -9 -38h113v-172zM750 436q0 4 2 6z" />
    <glyph glyph-name="nine" unicode="&#xc9b;" horiz-adv-x="1460" 
d="M408 717q67 0 104 33t37 76q-1 44 -31 74t-80 30q-121 0 -153 -86q0 -127 123 -127zM846 -300q0 -54 -34 -86q-34 -31 -80 -30q-46 0 -80 30t-34 85t111 297q117 -242 117 -296zM1096 -16q-130 0 -245 134q-74 85 -91 138q-128 -272 -320 -272q-156 0 -244 170t-87 396
q0 224 78 380t221 155q94 -1 145 -77t51 -184t-51 -184q-51 -77 -133 -77q-82 -1 -118 41q-38 42 -52 92t-14 52q-78 -96 -76 -236t76 -232t219 -92q228 0 305 205l22 -54q32 -59 94 -105t186 -46t186 45t63 150q0 284 -230 429q-95 60 -229 87v172h209q221 0 221 174
q0 72 -86 148l45 45q133 -128 133 -246q0 -293 -313 -293h-41q167 -35 261 -193t93 -329q0 -173 -74 -283t-204 -110z" />
    <glyph glyph-name="colon" unicode="&#xc9c;" horiz-adv-x="1460" 
d="M1169 565q101 1 155 -73t54 -188t-82 -218q-82 -102 -226 -102t-245 133q-71 95 -71 137q0 -11 -46 -81q-46 -69 -120 -129t-183 -60t-195 82t-87 206q0 124 89 224q82 74 168 150t85 149q0 178 -146 178q-139 0 -139 -137q0 -90 115 -134q-37 -6 -47 -6q-66 0 -122 48
t-56 150t64 168t169 66q161 0 227 -143q98 -84 135 -109q121 -79 248 -79q127 1 211 89t84 186q0 40 -16 67q108 -55 108 -175t-92 -216t-215 -95q-122 0 -274 106q-33 24 -162 134q4 -10 4 -35q0 -106 -84 -191q-79 -67 -157 -134q-84 -82 -84 -181q0 -166 227 -166
q197 0 288 253q-1 -12 23 -76q24 -63 88 -120t176 -57q114 0 185 59t71 127t-48 110t-140 42q-10 0 10 20t53 21zM751 439q0 3 1 3q0 -1 -1 -3z" />
    <glyph glyph-name="semicolon" unicode="&#xc9d;" horiz-adv-x="2570" 
d="M991 540q0 154 -109 256q-108 102 -266 103q-158 -1 -266 -103t-108 -257t108 -259t265 -104t267 104q110 106 109 260zM1894 -310q0 -68 -33 -101t-80 -33t-79 34t-33 100q0 67 111 355q114 -287 114 -355zM1987 1090q159 0 322 -184t163 -408t-87 -359
q-99 -155 -282 -155q-258 0 -331 327q-73 -327 -351 -327q-153 0 -247 128q-64 88 -91 218q-48 -150 -177 -246t-292 -96q-203 0 -347 144t-144 349q0 254 225 418h-227v172h674q221 0 221 174q0 72 -86 148l43 45q133 -128 133 -246q0 -241 -236 -293q238 -117 238 -418
q0 -64 -16 -133q75 -162 346 -162q118 0 210 72t93 207q0 315 -443 436q-89 25 -89 97q1 36 27 64t67 28q159 0 323 -184t164 -419q0 -51 -12 -145q77 -156 344 -156q117 0 209 72t92 207q0 315 -443 436q-88 24 -88 97q0 36 26 64t69 28z" />
    <glyph glyph-name="less" unicode="&#xc9e;" horiz-adv-x="2060" 
d="M1032 590q-54 0 -86 -31t-33 -72q-3 -94 107 -94t192 84q-63 113 -180 113zM1679 1128q129 0 206 -92t77 -216q0 -126 -65 -220t-147 -94t-82 65q0 14 3 19q113 0 173 56t59 130q0 74 -64 126t-170 52q-190 0 -293 -213q0 -156 -94 -266q12 -26 12 -61t-38 -122
q-38 -88 -37 -126t29 -55t56 -17t64 36t37 79q33 -17 33 -23v-41q0 -59 -60 -107t-118 -48t-111 38t-53 108t100 255q-128 -98 -219 -98q-91 1 -147 49t-56 120t61 125q61 54 172 54t213 -73q32 -22 33 -25q64 98 66 179q2 80 -84 156t-189 76t-205 -59t-102 -162
q0 37 -56 110q-87 113 -239 113q-106 0 -181 -62t-75 -134q0 -154 244 -154q10 -18 10 -45q0 -61 -71 -61q-116 0 -182 88t-66 216q0 126 81 224t228 98q197 0 307 -243q0 117 113 186q92 57 202 57t214 -73t104 -183q98 258 307 258z" />
    <glyph glyph-name="equal" unicode="&#xc9f;" horiz-adv-x="1460" 
d="M373 524q60 0 93 28t34 68q0 39 -30 70t-92 31t-97 -47q-4 -16 -4 -37q0 -113 96 -113zM1153 721q101 0 161 -109t60 -250q0 -142 -91 -260t-249 -118q-99 0 -164 57t-103 134q-14 35 -28 69q-14 -34 -28 -69q-39 -77 -103 -134t-155 -57q-186 0 -274 144
q-70 116 -70 282q-1 166 53 282q54 117 145 117q-18 1 -90 65q-71 64 -71 150t58 130q58 42 135 42q78 0 105 -41q-2 1 -45 -7q-42 -8 -77 -38t-35 -92q0 -126 135 -195q129 -58 129 -211q1 -87 -45 -153t-116 -66q-70 1 -114 49t-43 115q0 67 -2 66q-67 -75 -67 -187
t69 -180t205 -68q216 0 301 228q98 -228 297 -228q134 0 206 68t73 158q0 90 -64 150t-178 61h-135v129h147q33 0 64 28t31 93t-62 116t-144 51t-98 18q-18 18 -18 56q0 80 130 80t195 -74q66 -74 66 -176q0 -104 -42 -164t-54 -61zM444 1155z" />
    <glyph glyph-name="greater" unicode="&#xca0;" horiz-adv-x="1204" 
d="M733 563q0 -47 -35 -79t-83 -33q-47 1 -81 33t-34 80t34 80q34 34 80 34q48 0 84 -34t35 -81zM991 540q0 154 -109 256q-108 102 -266 103q-158 -1 -266 -103t-108 -257t108 -259t265 -104t267 104q110 106 109 260zM1108 481q0 -205 -144 -349t-349 -144
q-204 0 -348 144t-144 349q0 254 225 418h-227v172h674q221 0 221 174q0 72 -86 148l43 45q133 -128 133 -246q0 -241 -236 -293q238 -117 238 -418z" />
    <glyph glyph-name="question" unicode="&#xca1;" horiz-adv-x="1460" 
d="M1278 389q0 52 -12 112t-33 60q-89 -147 -240 -147q-77 0 -123 42t-45 102q0 60 48 106t127 47q80 0 130 -22t50 -25q0 90 -128 162t-340 73q-211 0 -350 -116t-139 -339q0 -256 244 -256q167 0 266 213q105 -213 291 -213q254 0 254 201zM1055 655q-66 0 -104 -26
t-38 -62q1 -75 107 -75t164 122q-63 41 -129 41zM1350 344q0 -152 -74 -256t-239 -104q-164 0 -304 245q-108 -245 -291 -245q-128 0 -224 101t-95 296q0 195 104 328t260 190h-342v172h891q221 0 221 174q0 72 -86 148l46 45q133 -128 133 -246q0 -293 -303 -293
q81 -35 139 -109t59 -126q0 -52 8 -60q23 0 60 -94t37 -166z" />
    <glyph glyph-name="at" unicode="&#xca2;" horiz-adv-x="1460" 
d="M1278 389q0 52 -12 112t-33 60q-89 -147 -240 -147q-77 0 -123 42t-45 102q0 60 48 106t127 47q80 0 130 -22t50 -25q0 90 -128 162t-340 73q-211 0 -350 -116t-139 -339q0 -256 244 -256q167 0 266 213q105 -213 291 -213q254 0 254 201zM1055 655q-66 0 -104 -26
t-38 -62q1 -75 107 -75t164 122q-63 41 -129 41zM735 -4q112 -234 115 -292q2 -58 -32 -89t-82 -29t-80 32q-32 28 -31 82t110 296zM1350 344q0 -152 -74 -256t-239 -104q-164 0 -304 245q-108 -245 -291 -245q-128 0 -224 101t-95 296q0 195 104 328t260 190h-342v172h891
q221 0 221 174q0 72 -86 148l46 45q133 -128 133 -246q0 -293 -303 -293q81 -35 139 -109t59 -126q0 -52 8 -60q23 0 60 -94t37 -166z" />
    <glyph glyph-name="A" unicode="&#xca3;" horiz-adv-x="1597" 
d="M1499 518q0 -534 -346 -534q-133 0 -225 84t-92 214t65 190t153 60t140 -44q51 -44 51 -116q1 -70 -37 -100t-71 -30t-54 8q76 42 76 97t-31 81t-75 27q-142 0 -142 -170q1 -79 75 -137t167 -58q137 0 213 120t76 326t-96 296q-79 73 -242 73q-299 0 -350 -258
q-46 252 -260 252q-100 0 -180 -55t-81 -139q0 -174 250 -230q-250 -46 -250 -246q-1 -75 57 -115t139 -40t151 84q0 4 1 -6t1 -19q-42 -137 -166 -137t-214 67t-91 194q0 127 107 186q58 32 110 32q-28 12 -55 24q-61 34 -105 105t-45 197t95 201t259 75q240 0 277 -280
q69 280 362 280q204 0 302 -175q81 -144 81 -384z" />
    <glyph glyph-name="B" unicode="&#xca4;" horiz-adv-x="1229" 
d="M694 713q-72 -1 -119 -31t-51 -66t24 -66q27 -30 77 -30q116 0 187 64t62 82q-9 9 -58 28q-50 19 -122 19zM1130 389q0 -195 -146 -300t-350 -105q-203 0 -350 98t-147 264q0 121 86 168v-80q0 -122 128 -188t299 -66t278 59q127 69 127 203q0 48 -28 91t-40 49
q-147 -187 -358 -187q-103 -1 -169 53t-65 130q-1 76 69 136t204 60q70 0 142 -18t71 -19q3 10 3 22q0 49 -43 95t-106 45h-590v172h670q221 0 221 174q0 72 -86 148l45 45q133 -128 133 -246q0 -258 -254 -293q125 -88 125 -235q0 3 37 -31q94 -86 94 -244z" />
    <glyph glyph-name="C" unicode="&#xca5;" horiz-adv-x="1460" 
d="M846 614q0 -48 -34 -83t-82 -35t-82 35t-34 83t34 82t82 33q48 1 82 -33t34 -82zM1245 430q0 180 -122 313q-143 156 -383 156t-376 -147t-135 -322q1 -106 57 -174t165 -68q188 0 278 205q92 -207 275 -207q110 0 176 69t65 175zM846 -302q0 -56 -35 -84t-81 -28t-79 29
t-33 84t111 297q117 -242 117 -298zM1360 348q0 -160 -80 -262t-223 -102q-192 0 -328 258q-75 -258 -301 -258q-156 0 -236 102t-81 268q1 166 107 328t290 217h-385v172h924q221 0 221 174q0 72 -86 148l45 45q133 -128 133 -246q0 -293 -313 -293h-68q181 -81 281 -237
q100 -154 100 -314z" />
    <glyph glyph-name="D" unicode="&#xca6;" horiz-adv-x="1460" 
d="M1245 430q0 180 -122 313q-143 156 -383 156t-376 -147t-135 -322q1 -106 57 -174t165 -68q188 0 278 205q92 -207 275 -207q110 0 176 69t65 175zM1360 348q0 -160 -80 -262t-223 -102q-192 0 -328 258q-75 -258 -301 -258q-156 0 -236 102t-81 268q1 166 107 328
t290 217h-385v172h924q221 0 221 174q0 72 -86 148l45 45q133 -128 133 -246q0 -293 -313 -293h-68q181 -81 281 -237q100 -154 100 -314z" />
    <glyph glyph-name="E" unicode="&#xca7;" horiz-adv-x="1460" 
d="M1245 430q0 180 -122 313q-143 156 -383 156t-376 -147t-135 -322q1 -106 57 -174t165 -68q188 0 278 205q92 -207 275 -207q110 0 176 69t65 175zM846 -302q0 -56 -35 -84t-81 -28t-79 29t-33 84t111 297q117 -242 117 -298zM1360 348q0 -160 -80 -262t-223 -102
q-192 0 -328 258q-75 -258 -301 -258q-156 0 -236 102t-81 268q1 166 107 328t290 217h-385v172h924q221 0 221 174q0 72 -86 148l45 45q133 -128 133 -246q0 -293 -313 -293h-68q181 -81 281 -237q100 -154 100 -314z" />
    <glyph glyph-name="F" unicode="&#xca8;" horiz-adv-x="1231" 
d="M1155 348q0 -170 -82 -267q-83 -97 -205 -97t-194 111q-21 32 -92 214q-52 131 -203 131q-83 0 -149 -48t-66 -128q0 -82 67 -129q13 -10 124 -57q67 -29 67 -74q0 -63 -84 -63t-156 125t-75 258q-3 134 55 212t184 78q192 0 252 -213t276 -213q88 0 148 63t61 171
q0 174 -115 298q-84 90 -263 179h-590v172h729q221 0 221 174q0 72 -86 148l43 45q133 -128 133 -246q0 -293 -311 -293h-33q344 -199 344 -551z" />
    <glyph glyph-name="G" unicode="&#xcaa;" horiz-adv-x="1460" 
d="M1042 -16q-117 0 -224 120q-85 95 -85 125q0 -38 -67 -125q-93 -120 -241 -120t-234 137q-68 109 -68 246t71 208q72 71 160 72t148 -53t59 -152q1 -57 -51 -96t-96 -39t-45 29q94 36 94 106q0 48 -40 78q-39 30 -95 31q-56 0 -99 -40t-43 -122q0 -201 246 -201
q171 0 253 114q48 67 48 120q0 -51 50 -118q85 -116 264 -116q125 0 187 58t58 149q-5 139 -123 260q-58 60 -58 103q1 42 23 64t44 22q72 0 126 -122t56 -296t-76 -308t-242 -134zM850 696q0 -50 -34 -86t-84 -35q-50 -1 -85 35t-35 86t36 84t84 35q50 0 84 -35
q34 -34 34 -84zM1360 1192q0 -293 -313 -293h-904v172h904q221 0 221 174q0 72 -86 148l45 45q133 -128 133 -246z" />
    <glyph glyph-name="H" unicode="&#xcab;" horiz-adv-x="1460" 
d="M848 -294q0 -56 -34 -86t-80 -30t-78 31t-33 85q0 54 110 294q115 -238 115 -294zM1042 -16q-117 0 -224 120q-85 95 -85 125q0 -38 -67 -125q-93 -120 -241 -120t-234 137q-68 109 -68 246t71 208q72 71 160 72t148 -53t59 -152q1 -57 -51 -96t-96 -39t-45 29
q94 36 94 106q0 48 -40 78q-39 30 -95 31q-56 0 -99 -40t-43 -122q0 -201 246 -201q171 0 253 114q48 67 48 120q0 -51 50 -118q85 -116 264 -116q125 0 187 58t58 149q-5 139 -123 260q-58 60 -58 103q1 42 23 64t44 22q72 0 126 -122t56 -296t-76 -308t-242 -134zM850 696
q0 -50 -34 -86t-84 -35q-50 -1 -85 35t-35 86t36 84t84 35q50 0 84 -35q34 -34 34 -84zM1360 1192q0 -293 -313 -293h-904v172h904q221 0 221 174q0 72 -86 148l45 45q133 -128 133 -246z" />
    <glyph glyph-name="I" unicode="&#xcac;" horiz-adv-x="1460" 
d="M765 988q0 89 95 89q242 0 386 -183t143 -462q1 -192 -81 -320t-239 -128q-221 0 -317 270q0 -11 -46 -81q-46 -69 -118 -129q-74 -60 -183 -60t-195 82t-87 206q0 124 89 224q82 74 168 150t85 149q0 178 -146 178q-139 0 -139 -137q0 -90 115 -134q-37 -6 -47 -6
q-66 0 -122 48t-56 150t64 168t170 66t182 -74q75 -74 75 -188t-84 -199q-79 -67 -157 -134q-84 -82 -84 -181q0 -166 227 -166q196 0 289 256q66 -256 278 -256q138 0 216 107t79 248q0 141 -86 249t-240 109l-153 -2q-36 -1 -58 27t-23 64z" />
    <glyph glyph-name="J" unicode="&#xcad;" horiz-adv-x="1460" 
d="M868 -300q0 -54 -34 -85t-81 -31q-46 0 -79 30t-33 85t111 297q116 -242 116 -296zM1403 442q1 -200 -75 -329t-232 -129q-105 0 -180 59t-124 139l-38 72q0 -11 -46 -81q-46 -69 -120 -129t-183 -60t-195 82t-87 206q0 124 89 224q82 74 168 150t85 149q0 178 -146 178
q-139 0 -139 -137q0 -90 115 -134q-37 -6 -47 -6q-66 0 -122 48t-56 150t64 168t170 66t182 -74q75 -74 75 -188t-84 -199q-79 -67 -157 -134q-84 -82 -84 -181q0 -164 227 -164q198 0 289 256q75 -256 305 -256q147 0 221 74t74 197q0 195 -78 317t-168 123h-182v172h168
q221 0 221 174q0 72 -86 148l43 45q133 -128 133 -246q0 -225 -191 -279q92 -67 142 -201t49 -270z" />
    <glyph glyph-name="K" unicode="&#xcae;" horiz-adv-x="2138" 
d="M1552 1090q160 0 324 -184t164 -408t-87 -359q-99 -155 -282 -155q-233 0 -319 282q-16 -126 -94 -204t-189 -78t-178 64t-96 124q-29 62 -45 100q-89 -288 -310 -288q-140 0 -228 122t-87 254t71 198t159 67t147 -53t59 -127q0 -73 -52 -113t-97 -40t-45 30q96 25 96 96
q0 58 -35 90t-89 33q-54 0 -100 -46t-46 -126q0 -181 247 -181q188 0 267 115q43 61 43 119q9 -31 19 -62q29 -68 94 -120t179 -52t174 62q62 62 62 160q0 138 -120 278t-343 211h-702v172h929q222 0 222 174q0 72 -86 148l43 45q133 -128 133 -246q0 -293 -312 -293h-86
q196 -83 297 -241t101 -334q93 -138 334 -138q119 0 211 72t92 207q0 314 -443 436q-89 25 -89 97q1 36 27 64t66 28z" />
    <glyph glyph-name="L" unicode="&#xcaf;" horiz-adv-x="2400" 
d="M856 518q0 190 -106 298t-248 108q-140 0 -239 -97t-99 -257t92 -269q92 -108 263 -108q172 0 264 110q73 87 73 215zM1817 1090q159 0 322 -184t163 -408t-86 -359q-98 -155 -283 -155q-234 0 -321 286q-20 -126 -108 -206t-222 -80q-224 0 -352 270q-37 80 -37 98
q0 -67 -69 -187q-104 -181 -281 -181q-206 0 -327 199q-107 176 -107 401q-1 224 93 368t261 144q227 0 354 -233q96 -176 96 -367q78 -303 336 -303q119 0 180 72t62 186q3 163 -107 305t-278 143h-156v172h355q221 0 221 174q0 72 -86 148l45 45q133 -128 133 -246
q0 -293 -313 -293h-19q95 -58 163 -135q164 -184 169 -428v-12q93 -138 334 -138q117 0 209 72t92 207q0 315 -443 436q-88 24 -88 97q0 36 26 64t69 28z" />
    <glyph glyph-name="M" unicode="&#xcb0;" horiz-adv-x="1204" 
d="M991 540q0 154 -109 256q-108 102 -266 103q-158 -1 -266 -103t-108 -257t108 -259t265 -104t267 104q110 106 109 260zM1108 481q0 -205 -144 -349t-349 -144q-204 0 -348 144t-144 349q0 254 225 418h-227v172h674q221 0 221 174q0 72 -86 148l43 45q133 -128 133 -246
q0 -241 -236 -293q238 -117 238 -418z" />
    <glyph glyph-name="N" unicode="&#xcb1;" horiz-adv-x="1460" 
d="M1010 188q152 0 226 94t75 216q0 122 -49 235l-80 -94h-920l-43 121q-63 -84 -63 -222t72 -244t214 -106q208 0 291 222q88 -222 277 -222zM496 844q0 102 -105 102q-45 0 -75 -42t-37 -95q10 -94 98 -94q55 0 87 39t32 90zM1079 938q-49 0 -77 -32t-27 -76q1 -45 33 -80
t90 -35q99 0 106 92q-16 131 -125 131zM1083 1098q125 0 199 -150t74 -376t-88 -395q-100 -191 -276 -191t-259 256q-81 -258 -289 -258q-165 0 -259 198q-83 172 -83 400t76 371t199 143q174 0 174 -277v-49h373q-6 21 -6 74q0 254 165 254z" />
    <glyph glyph-name="O" unicode="&#xcb2;" horiz-adv-x="1436" 
d="M668 819q0 108 -152 111q-48 1 -100 -17q-35 -31 -35 -89q-1 -58 35 -89q36 -30 94 -30t108 31t50 83zM1366 580q0 -270 -184 -432t-450 -162q-264 0 -442 154t-177 440q1 240 107 378t247 138q107 0 181 -74t73 -198q0 -126 -62 -194t-143 -67q-80 1 -136 59t-56 155
t16 106q-26 0 -83 -70q-81 -97 -81 -235q0 -201 161 -302q143 -90 393 -90t416 103t165 278q0 175 -93 270q-92 95 -180 95t-88 85t92 85q140 0 232 -150t92 -372z" />
    <glyph glyph-name="P" unicode="&#xcb3;" horiz-adv-x="1229" 
d="M819 231q0 118 -143 140q-123 -31 -123 -142q1 -59 39 -93t92 -34t94 35q41 35 41 94zM403 778q45 0 78 22t33 64t-36 68t-92 26q-58 0 -93 -34q-2 -2 -2 -46q-1 -44 33 -72t79 -28zM1143 639q-1 -105 -77 -177t-179 -83h-92q7 -1 51 -55t43 -119q-1 -107 -67 -169
t-152 -63q-86 0 -150 54t-65 156q0 102 94 175q-93 0 -127 9q-149 35 -224 121t-75 256q0 172 82 262t184 90q74 0 125 -54t51 -152q1 -98 -47 -151t-112 -53t-111 42t-47 110q0 24 -4 47q-64 -41 -64 -153t98 -154q45 -19 170 -38q124 -19 170 -34t103 -60q54 54 130 73
q76 18 147 77t71 116t-32 112t-70 75h-267v172h131q222 0 222 174q0 72 -86 148l43 45q133 -128 133 -246q0 -189 -139 -256q139 -125 139 -297z" />
    <glyph glyph-name="Q" unicode="&#xcb5;" horiz-adv-x="1460" 
d="M1354 336q0 -162 -80 -256q-80 -96 -221 -96q-95 0 -162 64t-96 124q-29 62 -45 100q-89 -288 -310 -288q-140 0 -228 122t-87 254t71 198t159 67t147 -53t59 -127q0 -73 -52 -113t-97 -40t-45 30q96 25 96 96q0 58 -35 90t-89 33q-54 0 -100 -46t-46 -126
q0 -181 247 -181q188 0 267 115q43 61 43 119q9 -31 19 -62q29 -68 94 -120t179 -52t174 62q62 62 62 160q0 138 -120 278t-343 211h-702v172h929q222 0 222 174q0 72 -86 148l43 45q133 -128 133 -246q0 -293 -312 -293h-86q196 -81 297 -241t101 -322z" />
    <glyph glyph-name="R" unicode="&#xcb6;" horiz-adv-x="1229" 
d="M1030 545q0 145 -107 242t-237 112q34 -24 66 -81t32 -122q0 -116 -80 -192t-218 -76q-139 0 -189 -14q-78 -22 -78 -99q0 -157 287 -157q288 0 406 80t118 307zM1139 459q0 -475 -627 -475q-182 0 -292 73t-111 211q0 138 84 186q59 34 195 34h51q35 -1 53 -1
q104 0 162 69q58 68 58 150q2 82 -47 138t-135 55q-86 1 -130 -39q-46 -40 -46 -92t32 -86q32 -35 70 -35t72 45q-84 0 -84 68t68 67q92 0 92 -92q0 -49 -40 -91t-110 -42t-120 46t-51 106q0 101 75 145h-233v172h700q222 0 222 174q0 72 -86 148l45 45q133 -128 133 -246
q0 -293 -312 -293q100 -28 191 -129q121 -134 121 -311z" />
    <glyph glyph-name="S" unicode="&#xcb7;" horiz-adv-x="1460" 
d="M1446 -41q0 -24 -19 -45t-48 -21q-29 -1 -54 23t-106 125q-74 -57 -184 -57t-206 108t-96 137q0 -38 -67 -125q-93 -120 -241 -120t-234 137q-68 109 -68 246t71 208q72 71 160 72t148 -53t59 -152q1 -57 -51 -96t-96 -39t-45 29q94 36 94 106q0 48 -40 78q-39 30 -95 31
q-56 0 -99 -40t-43 -122q0 -201 246 -201q171 0 253 114q48 67 48 120q0 -51 50 -118q85 -116 264 -116q32 0 47 5l-287 348l37 24l356 -342q92 52 92 179t-123 253q-58 60 -58 103q1 42 23 64t44 22q74 0 128 -123t54 -293t-68 -295q66 -64 138 -135q16 -15 16 -39z
M850 696q0 -50 -34 -86t-84 -35q-50 -1 -85 35t-35 86t36 84t84 35q50 0 84 -35q34 -34 34 -84zM1360 1192q0 -293 -313 -293h-922v172h922q221 0 221 174q0 72 -86 148l45 45q133 -128 133 -246z" />
    <glyph glyph-name="T" unicode="&#xcb8;" horiz-adv-x="1229" 
d="M1118 368q0 -134 -64 -259t-161 -125q-59 0 -91 96q-46 142 -73 178q-70 96 -223 96q-296 0 -296 -282q0 -28 4 -58l3 -26q-92 58 -92 193t97 243q96 108 260 108t249 -92q51 -56 85 -160t56 -104q68 0 107 78t39 176q0 100 -34 217t-40 129q76 -2 125 -138t49 -270z
M643 712q0 -48 -35 -84q-34 -36 -84 -36t-86 36t-35 84q-1 48 35 84t86 35q50 1 84 -35q35 -36 35 -84zM1118 1192q0 -293 -311 -293h-662v172h662q221 0 221 174q0 72 -86 148l43 45q133 -128 133 -246zM944 776h-2q0 4 2 0z" />
    <glyph glyph-name="U" unicode="&#xcb9;" horiz-adv-x="1526" 
d="M457 625q-111 -1 -171 -69t-61 -160q0 -92 63 -162t181 -70t211 105q68 76 68 108q-75 248 -291 248zM1090 162q108 0 168 68t61 162q0 92 -61 158t-173 66q-201 0 -262 -227q0 -49 44 -115q72 -112 223 -112zM1090 676q172 0 264 -96t92 -236t-96 -250t-254 -110
q-210 0 -322 217q-88 -217 -332 -217q-158 0 -247 105t-89 245t90 242t242 102t248 -87q66 -59 66 -83q0 103 -60 217q-92 174 -272 174h-326v172h1039q221 0 221 174q0 72 -86 148l45 45q133 -128 133 -246q0 -293 -313 -293h-547q87 -1 157 -141t70 -230q0 15 65 70
q91 78 212 78z" />
    <glyph glyph-name="V" unicode="&#xcbe;" horiz-adv-x="797" 
d="M145 1071q235 -1 401 -193t167 -406q0 -214 -94 -351t-261 -137q-297 0 -297 348q0 124 67 192t157 68t134 -52t44 -112q1 -59 -31 -94t-86 -35q-96 0 -96 90q0 31 22 53t52 23q30 0 48 -8q19 -8 19 -6q9 79 -96 79q-67 0 -121 -50t-55 -132q0 -81 45 -138
q62 -79 202 -79q140 -1 218 93q80 94 80 244t-132 290t-309 141h-692v172h614z" />
    <glyph glyph-name="W" unicode="&#xcbf;" horiz-adv-x="838" 
d="M-379 1389q-61 -1 -99 -39t-38 -86q0 -88 113 -88t157 141q-41 72 -133 72zM-418 1503q130 1 206 -107t75 -230q0 -122 -60 -196q-60 -73 -176 -73q-69 -1 -125 31t-57 84q0 30 23 45q37 -76 161 -76q85 -1 129 51t45 126q0 74 -12 91q5 -9 -55 -70t-146 -61t-139 60
t-53 138t48 133q48 54 136 54z" />
    <glyph glyph-name="X" unicode="&#xcc0;" horiz-adv-x="838" 
d="M-379 1389q-61 -1 -99 -39t-38 -86q0 -88 113 -88t157 141q-41 72 -133 72zM612 836q0 122 -149 122q-72 0 -141 -45q0 -202 155 -202q59 0 97 38t38 87zM-418 1503q130 1 206 -107t75 -230q0 -122 -60 -196q-60 -73 -176 -73q-69 -1 -125 31t-57 84q0 30 23 45
q37 -76 161 -76q85 -1 129 51t45 126q0 74 -12 91q5 -9 -55 -70t-146 -61t-139 60t-53 138t48 133q48 54 136 54zM109 623q-1 195 85 333t238 138q118 0 176 -74t58 -178q0 -105 -59 -187q-57 -82 -149 -82q-92 -1 -139 69t-47 171q0 23 2 64q-104 -105 -104 -277t146 -346
q146 -175 423 -254h-338q-143 91 -217 260t-75 363z" />
    <glyph glyph-name="v" unicode="&#xcc1;" horiz-adv-x="750" 
d="M82 1090q160 0 324 -184t164 -408t-87 -359q-99 -155 -287 -155t-285 204q-39 85 -56 205q10 -27 21 -54q33 -61 113 -107t214 -46t226 72t92 207q0 314 -443 436q-89 25 -89 97q1 36 27 64t66 28z" />
    <glyph glyph-name="Z" unicode="&#xcc2;" horiz-adv-x="1425" 
d="M784 1126q222 0 370 -176t149 -454q-1 -280 -89 -396t-280 -116q-135 0 -219 121t-84 257t58 195q57 59 131 61t126 -40q52 -44 52 -106t-32 -92t-74 -29q-89 0 -89 83q0 50 49 84q-18 14 -55 14t-74 -35t-37 -111t74 -140t182 -64q109 0 210 88t101 217q-1 237 -129 361
t-321 125q-149 -1 -257 -111t-108 -271q0 -30 20 -176t21 -149q0 -118 -62 -199t-186 -81q-157 0 -257 130t-99 251q102 -185 289 -185q124 0 184 36t60 137q0 43 -14 117t-15 160q0 226 115 360t290 134z" />
    <glyph glyph-name="bracketleft" unicode="&#xcc3;" horiz-adv-x="406" 
d="M-16 -305q0 35 -26 61t-72 27q-46 0 -80 -31q-34 -32 -35 -54q0 -22 30 -56t78 -33q105 0 105 86zM332 -232q0 -198 -74 -322q-86 -146 -262 -146q-142 0 -220 96t-79 206q1 110 53 180q52 68 128 68t114 -40t37 -98q1 -58 -35 -106t-108 -48t-132 82q0 -108 64 -170
t147 -62q145 0 219 114t74 292q0 306 -174 522q22 23 37 23t22 -3q71 -36 130 -212q59 -178 59 -376z" />
    <glyph glyph-name="backslash" unicode="&#xcc4;" horiz-adv-x="279" 
d="M-519 -553q1 78 -87 78t-117 -86q37 -78 93 -78q56 -1 84 25t27 61zM127 -291h-92q-48 -51 -48 -128q0 -132 122 -132q59 0 89 39q30 40 30 92t-28 90t-73 39zM84 -680q-162 0 -162 191q0 93 70 196q-195 1 -387 0q160 -96 164 -385q1 -125 -66 -208t-200 -83
q-133 -1 -211 97t-80 212t44 184t122 70t111 -44q36 -44 36 -104q-1 -60 -37 -104t-110 -44t-119 90q-12 -238 233 -238q102 0 161 60t60 151q2 248 -209 365v122q2 2 482 0q144 0 216 -80t72 -186t-54 -184t-136 -78z" />
    <glyph glyph-name="bracketright" unicode="&#xcc6;" horiz-adv-x="20" 
d="M-496 1294q0 84 59 128t147 44t156 -70t68 -205q0 -136 -91 -214t-195 -78h-144v172h144q88 1 144 47t56 124t-48 124t-110 47q-62 0 -106 -30q-43 -29 -43 -91t58 -59q0 86 59 86q59 1 59 -71q-1 -72 -107 -72t-106 118z" />
    <glyph glyph-name="asciicircum" unicode="&#xcc7;" horiz-adv-x="838" 
d="M612 836q0 122 -149 122q-72 0 -141 -45q0 -202 155 -202q59 0 97 38t38 87zM-496 1294q0 84 59 128t147 44t156 -70t68 -205q0 -136 -91 -214t-195 -78h-144v172h144q88 1 144 47t56 124t-48 124t-110 47q-62 0 -106 -30q-43 -29 -43 -91t58 -59q0 86 59 86q59 1 59 -71
q-1 -72 -107 -72t-106 118zM109 623q-1 195 85 333t238 138q118 0 176 -74t58 -178q0 -105 -59 -187q-57 -82 -149 -82q-92 -1 -139 69t-47 171q0 23 2 64q-104 -105 -104 -277t146 -346q146 -175 423 -254h-338q-143 91 -217 260t-75 363z" />
    <glyph glyph-name="underscore" unicode="&#xcc8;" horiz-adv-x="377" 
d="M27 -315q0 35 -27 63t-74 27q-83 0 -112 -90q0 -32 38 -53t70 -21q105 0 105 74zM303 -398q0 -130 -67 -233q-67 -102 -195 -102q-127 0 -205 105q-78 104 -78 222t46 187t120 69t110 -46t36 -107t-40 -107t-108 -45q-69 0 -129 82q0 -106 65 -182q64 -76 148 -76
q84 1 154 79t71 185q0 203 -233 371q75 99 76 183t-60 167q66 -4 101 -50t35 -111q0 -131 -72 -183q5 2 65 -47t110 -140t50 -221zM-496 1294q0 84 59 128t147 44t156 -70t68 -205q0 -136 -91 -214t-195 -78h-144v172h144q88 1 144 47t56 124t-48 124t-110 47
q-62 0 -106 -30q-43 -29 -43 -91t58 -59q0 86 59 86q59 1 59 -71q-1 -72 -107 -72t-106 118z" />
    <glyph glyph-name="grave" unicode="&#xcca;" horiz-adv-x="1425" 
d="M-496 1294q0 84 59 128t147 44t156 -70t68 -205q0 -136 -91 -214t-195 -78h-144v172h144q88 1 144 47t56 124t-48 124t-110 47q-62 0 -106 -30q-43 -29 -43 -91t58 -59q0 86 59 86q59 1 59 -71q-1 -72 -107 -72t-106 118zM784 1126q222 0 370 -176t149 -454
q-1 -280 -89 -396t-280 -116q-135 0 -219 121t-84 257t58 195q57 59 131 61t126 -40q52 -44 52 -106t-32 -92t-74 -29q-89 0 -89 83q0 50 49 84q-18 14 -55 14t-74 -35t-37 -111t74 -140t182 -64q109 0 210 88t101 217q-1 237 -129 361t-321 125q-149 -1 -257 -111
t-108 -271q0 -30 20 -176t21 -149q0 -118 -62 -199t-186 -81q-157 0 -257 130t-99 251q102 -185 289 -185q124 0 184 36t60 137q0 43 -14 117t-15 160q0 226 115 360t290 134z" />
    <glyph glyph-name="a" unicode="&#xccb;" horiz-adv-x="2200" 
d="M1974 836q0 122 -151 122q-71 0 -140 -45q0 -202 156 -202q59 0 97 38t38 87zM-496 1294q0 84 59 128t147 44t156 -70t68 -205q0 -136 -91 -214t-195 -78h-144v172h144q88 1 144 47t56 124t-48 124t-110 47q-62 0 -106 -30q-43 -29 -43 -91t58 -59q0 86 59 86
q59 1 59 -71q-1 -72 -107 -72t-106 118zM784 1126q222 0 370 -176t149 -454q-1 -280 -89 -396t-280 -116q-135 0 -219 121t-84 257t58 195q57 59 131 61t126 -40q52 -44 52 -106t-32 -92t-74 -29q-89 0 -89 83q0 50 49 84q-18 14 -55 14t-74 -35t-37 -111t74 -140t182 -64
q109 0 210 88t101 217q-1 237 -129 361t-321 125q-149 -1 -257 -111t-108 -271q0 -30 20 -176t21 -149q0 -118 -62 -199t-186 -81q-157 0 -257 130t-99 251q102 -185 289 -185q124 0 184 36t60 137q0 43 -14 117t-15 160q0 226 115 360t290 134zM1470 623q0 195 86 333
t238 138q114 0 174 -74t60 -178t-60 -186q-58 -82 -150 -83t-138 69t-46 171q0 23 2 64q-104 -105 -104 -277t146 -346q146 -175 423 -254h-340q-143 91 -217 260t-74 363z" />
    <glyph glyph-name="b" unicode="&#xccc;" horiz-adv-x="1044" 
d="M-279 1253v172h631q258 -1 414 -157t156 -467q0 -242 -104 -406t-230 -164q-166 -1 -253 115t-87 258t68 219q68 76 173 76q67 0 125 -64t58 -161q0 -58 -39 -98t-84 -39q-94 1 -94 90q0 84 73 84q31 0 66 -21q-4 133 -105 133q-70 0 -126 -59t-56 -145q1 -86 71 -162
t188 -76t210 110t92 273q0 487 -526 487h-236q0 -158 -77 -255t-209 -97h-205v172h205q202 0 202 141l-2 41h-299z" />
    <glyph glyph-name="c" unicode="&#xccd;" horiz-adv-x="827" 
d="M336 651q76 1 118 35t42 84t-50 90t-141 39h-133q-1 -14 -1 -33q0 -215 165 -215zM764 1069q0 -46 -39 -74q0 58 -64 113t-174 55q-213 0 -270 -92q142 0 230 -61q114 -79 114 -246q0 -116 -65 -192q-64 -76 -156 -76t-160 92t-69 272q0 29 2 39h-539v172h565
q0 117 96 177t220 59q125 -1 217 -67t92 -171z" />
    <glyph glyph-name="d" unicode="&#xcd5;" horiz-adv-x="838" 
d="M612 836q0 122 -149 122q-72 0 -141 -45q0 -202 155 -202q59 0 97 38t38 87zM109 623q-1 195 85 333t238 138q118 0 176 -74t58 -178q0 -105 -59 -187q-57 -82 -149 -82q-92 -1 -139 69t-47 171q0 23 2 64q-104 -105 -104 -277t146 -346q146 -175 423 -254h-338
q-143 91 -217 260t-75 363z" />
    <glyph glyph-name="e" unicode="&#xcd6;" horiz-adv-x="377" 
d="M27 -315q0 35 -27 63t-74 27q-83 0 -112 -90q0 -32 38 -53t70 -21q105 0 105 74zM303 -398q0 -130 -67 -233q-67 -102 -195 -102q-127 0 -205 105q-78 104 -78 222t46 187t120 69t110 -46t36 -107t-40 -107t-108 -45q-69 0 -129 82q0 -106 65 -182q64 -76 148 -76
q84 1 154 79t71 185q0 203 -233 371q75 99 76 183t-60 167q66 -4 101 -50t35 -111q0 -131 -72 -183q5 2 65 -47t110 -140t50 -221z" />
    <glyph glyph-name="f" unicode="&#xcde;" horiz-adv-x="1460" 
d="M516 825q0 95 -115 95q-89 0 -120 -111q36 -86 102 -86q65 1 99 31t34 71zM1090 920q-51 0 -81 -26t-30 -64t33 -70t96 -31q99 0 106 84q-16 107 -124 107zM1094 1079q128 -1 206 -149t78 -371t-88 -386q-102 -187 -294 -187t-261 247q-77 -249 -280 -249
q-165 0 -262 203q-84 178 -84 398t74 356t202 136q92 1 140 -67t48 -166t-55 -175t-145 -77q-120 0 -140 143q-69 -92 -69 -228q0 -135 72 -227t219 -92q228 0 286 240q37 -240 279 -240q157 0 230 88t73 219t-53 226q-36 -111 -152 -111q-90 0 -148 81t-57 175q0 94 46 153
q46 60 135 60z" />
    <glyph glyph-name="g" unicode="&#xce0;" horiz-adv-x="3217" 
d="M459 317q0 109 -90 109q-41 0 -69 -43t-21 -88q7 -57 93 -59t87 81zM453 760q0 73 -82 86q-35 2 -76 -10l-10 -50q0 -122 84 -122q31 0 57 26t27 70zM2576 1126q222 0 370 -176t149 -454q0 -278 -89 -395t-280 -117q-136 0 -220 121t-83 257q-1 136 57 195t132 61
t126 -40q52 -44 52 -106t-32 -92t-74 -29q-89 0 -89 83q0 50 49 84q-18 14 -56 14t-74 -35t-36 -111t73 -140t182 -64t211 88t101 217q-1 237 -129 361t-321 125q-149 -1 -257 -111t-108 -271q0 -30 20 -176t21 -149q0 -118 -62 -199t-187 -81t-215 86t-124 198
q-28 -150 -119 -218t-210 -68q-118 0 -242 103t-182 292q-27 -117 -81 -200q-129 -199 -370 -199q-135 0 -215 90t-80 190q0 98 47 154t128 57q81 0 125 -45q44 -44 44 -106t-35 -106q-36 -44 -107 -44t-116 72q-3 -14 -3 -29q1 -70 61 -124t135 -54q141 0 226 157
q73 135 73 310q0 528 -281 528q-71 0 -112 -34t-53 -66t-17 -49q33 20 91 20q58 1 104 -41t47 -116q-1 -74 -47 -114t-118 -38t-132 62t-60 167t96 183t228 77q175 0 290 -119q138 -143 138 -421q117 -355 381 -355q109 0 179 66t69 174t-91 236t-274 237h-217v172h432
q99 1 147 51t48 122t-86 149q47 48 47 45q133 -128 133 -244t-60 -205t-161 -90l-207 -2q418 -217 418 -506q0 -45 -2 -63q102 -146 264 -146q124 0 184 36t60 137q0 43 -14 117t-15 160q0 226 115 360t290 134z" />
    <glyph glyph-name="h" unicode="&#xce6;" horiz-adv-x="1229" 
d="M1044 530q0 140 -99 257q-124 147 -332 147q-207 0 -319 -122t-112 -290q0 -166 125 -266t301 -100t306 100t130 274zM598 1102q234 0 367 -166t133 -414t-146 -392t-344 -144t-342 150t-145 396q1 244 139 407t338 163z" />
    <glyph glyph-name="i" unicode="&#xce7;" horiz-adv-x="1229" 
d="M1159 514q0 -186 -106 -352t-164 -166q-101 0 -101 74q0 -5 88 74q88 78 160 180q70 102 70 208q0 171 -144 267t-346 96t-348 -96q-145 -96 -145 -274t237 -387q82 -73 82 -68q0 -74 -100 -74q-58 0 -164 166t-106 352q0 264 160 412t384 147q223 0 383 -147t160 -412z
" />
    <glyph glyph-name="j" unicode="&#xce8;" horiz-adv-x="1229" 
d="M764 1102q181 0 279 -146t98 -372t-97 -393q-111 -191 -309 -191h-651v188h690q138 0 222 122t83 270q-1 150 -87 247t-253 97q-107 0 -165 -52t-58 -110t34 -92t93 -33q98 0 98 72q0 26 -26 88h39q38 0 61 -36t23 -92q0 -57 -47 -103t-139 -46t-143 70t-53 185t84 221
q84 106 224 106z" />
    <glyph glyph-name="k" unicode="&#xce9;" horiz-adv-x="1229" 
d="M385 426q-87 0 -137 -40t-51 -93q1 -109 165 -109t244 140q-88 102 -221 102zM1110 153q0 -63 -52 -115t-124 -52q-124 0 -195 157q-31 71 -84 136q-109 -242 -303 -242q-120 0 -182 61t-61 154q1 94 75 168t200 74t253 -103q35 118 35 182q0 199 -105 289
q-78 68 -202 68q-79 0 -132 -32t-53 -83t31 -78t70 -28q65 -2 65 55q0 32 -6 63q86 -9 86 -98q0 -104 -119 -104q-72 1 -130 55t-58 156t75 185t175 83q136 0 248 -135t112 -369q0 -127 -41 -260q25 -21 96 -111q42 -62 82 -77t111 -15q72 0 104 82q7 18 9 55
q20 -57 20 -121z" />
    <glyph glyph-name="l" unicode="&#xcea;" horiz-adv-x="1229" 
d="M813 231q0 128 -151 170q-119 -58 -119 -180q0 -53 40 -87q39 -34 93 -34t96 35t41 96zM1145 772q0 -216 -197 -305q-82 -37 -196 -45q120 -84 120 -211q0 -101 -60 -161t-143 -60q-84 0 -147 54t-63 164t73 175q-38 2 -57 2q-165 -1 -269 79t-104 236q0 194 77 300
t200 106q95 0 165 -75t70 -177t-51 -152t-115 -49t-107 38q-42 37 -42 101t55 91q0 -61 34 -93t81 -30q96 2 96 88q0 119 -137 119q-100 0 -186 -70t-86 -186t81 -166q61 -37 193 -37t217 -43q112 2 195 33q194 72 194 262q0 102 -63 141q-60 19 -121 39t-61 82q1 86 121 86
t182 -117q51 -95 51 -219z" />
    <glyph glyph-name="m" unicode="&#xceb;" horiz-adv-x="1229" 
d="M164 223q0 -110 129 -110q56 0 157 87q138 118 138 289l-51 -2q-137 -1 -255 -75t-118 -189zM1096 790q0 74 -50 115t-112 41t-106 -42t-44 -118q0 -112 99 -211q7 -3 63 21t103 72t47 122zM932 1106q83 0 148 -80t65 -186q-1 -108 -53 -171t-114 -97t-67 -33
q83 -59 155 -171t73 -200q-1 -90 -39 -137t-94 -47t-95 34q-40 34 -30 39q104 49 104 159t-53 211q-53 100 -62 91q-66 -16 -146 -22t-81 -7q-1 -242 -107 -369t-243 -128q-89 -1 -149 53t-60 148q0 137 139 238t316 101h52q-1 10 -1 93q0 171 -80 245t-191 74
q-72 0 -128 -42t-56 -92q1 -50 37 -86t90 -36q108 0 108 123q0 14 -1 25q5 -4 33 -36t28 -59q0 -61 -43 -105t-113 -44t-130 62t-60 178t70 194q70 80 170 80q126 0 224 -131t99 -369v-69q0 -5 85 5t104 19q-107 126 -107 299q0 114 60 180t143 66z" />
    <glyph glyph-name="n" unicode="&#xcec;" horiz-adv-x="1229" 
d="M489 506q65 0 101 28t35 68q0 42 -48 76t-118 33q-71 1 -105 -15t-39 -24q5 -166 174 -166zM1096 0h-643q-171 0 -261 110t-90 286t140 315q-2 36 30 149q13 28 13 49q0 44 -59 55q-18 3 -103 3q-2 0 -2 30q0 93 115 93q55 0 96 -39t41 -95q1 -56 -37 -113
q-38 -58 -33 -98q1 1 49 21t94 20q108 0 165 -52t57 -126t-49 -128t-132 -54q-190 0 -231 211q-98 -75 -98 -221q0 -96 64 -162t192 -66h682v-188z" />
    <glyph glyph-name="o" unicode="&#xced;" horiz-adv-x="1229" 
d="M1118 0h-825q-211 0 -211 201q0 147 144 237q133 64 267 129q144 80 144 203q0 58 -43 92q-44 34 -98 35t-90 -31t-37 -86q0 -54 65 -100l-24 -6q-129 38 -129 190q0 104 65 162q64 58 156 58t162 -68q70 -66 71 -182q0 -171 -140 -273q-16 -11 -260 -133
q-140 -69 -140 -162q0 -78 100 -78h823v-188z" />
    <glyph glyph-name="p" unicode="&#xcee;" horiz-adv-x="1229" 
d="M551 788q0 148 -209 148q-37 -78 -33 -127q12 -131 119 -131q50 0 86 31t37 79zM1114 899h-184q-117 0 -117 -80q0 -46 76 -123q123 -123 141 -146q76 -97 76 -194q0 -168 -134 -270t-317 -102q-221 0 -373 150q-176 173 -176 482q0 226 83 346t183 121t164 -79
q62 -80 62 -203t-54 -187t-124 -63q-70 0 -116 52q-87 97 -21 304q-125 -91 -125 -299t136 -330q136 -120 306 -120q168 0 278 72t109 196q0 87 -65 159q-61 63 -121 125q-66 82 -66 176q1 94 51 140t125 45h203v-172z" />
    <glyph glyph-name="q" unicode="&#xcef;" horiz-adv-x="1229" 
d="M438 477q82 -1 130 29t48 70t-38 70t-111 30q-175 0 -250 -133q65 -66 221 -66zM1106 899h-725q-75 0 -146 -55q-71 -56 -71 -124t29 -120q110 129 266 129q109 1 168 -53t59 -127t-60 -127t-161 -53q-150 0 -277 125q-20 -57 -20 -103q0 -117 74 -179t184 -62
q109 0 152 26q26 -32 26 -74t-56 -80t-128 -38q-120 0 -214 84t-93 245q0 162 49 224q-64 96 -64 202q0 141 107 237t284 95h617v-172z" />
    <glyph glyph-name="glyph32" horiz-adv-x="1782" 
d="M362 0q-62 0 -102 34t-39 100q1 64 43 101t100 37t98 -38q42 -38 42 -101q0 -65 -40 -99t-102 -34zM750 134q0 64 42 101t100 37q56 0 98 -38t42 -101q0 -65 -40 -99t-102 -34t-101 34q-39 36 -39 100zM1278 134q0 64 42 101t100 37q57 0 99 -38t42 -101q-1 -65 -41 -99
t-102 -34t-101 34q-39 36 -39 100z" />
    <glyph glyph-name="glyph33" horiz-adv-x="1548" 
d="M1475 811l-111 -149h-1290l112 149h1289z" />
    <glyph glyph-name="glyph34" horiz-adv-x="3101" 
d="M3027 811l-111 -149h-2842l112 149h2841z" />
    <glyph glyph-name="glyph35" horiz-adv-x="1108" 
d="M555 272q57 0 99 -38t42 -101q0 -65 -41 -99t-102 -34t-100 34t-39 100q0 64 42 101t99 37zM1049 432h-990v131h990v-131zM555 995q57 0 99 -38q42 -39 42 -103t-40 -98t-103 -33q-139 0 -139 129q0 68 42 106t99 37z" />
    <glyph glyph-name="exclam" horiz-adv-x="860" 
d="M786 811l-110 -149h-602l112 149h600z" />
    <glyph glyph-name="quotedbl" horiz-adv-x="1108" 
d="M463 500l-307 303l92 94l305 -307l305 305l90 -94l-305 -301l307 -307l-92 -93l-305 306l-305 -306l-90 95z" />
    <glyph glyph-name="comma" 
 />
    <glyph glyph-name="Y" horiz-adv-x="324" 
d="M-12 942q88 0 150 -180t63 -444q0 -264 -97 -453q-114 -225 -335 -225q-143 0 -263 120t-174 289q185 -246 385 -246q168 0 283 141t115 351q0 264 -189 520q-15 21 -15 48q0 79 77 79z" />
    <glyph glyph-name="r" 
 />
    <glyph glyph-name="s" horiz-adv-x="901" 
d="M590 500q0 -225 -87 -361q-99 -155 -287 -155t-285 204q-39 85 -56 205q10 -27 21 -54q33 -61 113 -107t214 -46t226 72t92 207q0 210 -191 335q-128 84 -260 99v172h295v-172q205 -174 205 -399z" />
    <glyph glyph-name="t" horiz-adv-x="324" 
d="M-12 942q88 0 150 -180t63 -444q0 -264 -97 -453q-114 -225 -335 -225q-143 0 -263 120t-174 289q185 -246 385 -246q168 0 283 141t115 351q0 264 -189 520q-15 21 -15 48q0 79 77 79z" />
    <glyph glyph-name="u" 
 />
    <glyph glyph-name="w" horiz-adv-x="1065" 
d="M942 440q0 -218 -95 -336t-222 -118q-157 0 -235 139q-60 110 -60 272q0 103 68 165t144 63q76 0 124 -40q49 -41 49 -111q1 -70 -27 -95t-74 -25t-70 26q-22 26 -22 60q0 68 68 68h35q1 14 -31 28t-82 15q-49 1 -91 -36t-42 -113t60 -148q60 -70 161 -70q285 0 285 269
q-1 218 -129 369t-276 151q-148 1 -247 -109q-98 -110 -98 -309q-1 -85 25 -235t26 -250q0 -190 -116 -316t-262 -125t-279 113t-209 328q206 -275 412 -275q128 0 256 118t127 267q1 54 -21 170t-22 236q0 268 98 404t250 136q196 0 359 -194t163 -492z" />
    <glyph glyph-name="x" horiz-adv-x="1622" 
d="M932 1071q234 -1 400 -193t167 -406t-93 -351t-261 -137q-297 0 -297 348q0 124 67 192t157 68t134 -52t43 -112q0 -59 -31 -94t-85 -35q-97 0 -97 90q0 31 22 53t52 23q30 0 48 -8q20 -8 20 -6q8 79 -97 79q-66 0 -121 -50t-55 -132q0 -81 45 -138q62 -79 202 -79
q140 -1 218 93q80 94 80 244t-132 290t-308 141h-625q205 -174 205 -399t-87 -361q-99 -155 -287 -155t-285 204q-39 85 -56 205q10 -27 21 -54q33 -61 113 -107t214 -46t226 72t92 207q0 210 -191 335q-128 84 -260 99v172h842z" />
    <glyph glyph-name="y" 
 />
    <glyph glyph-name="z" horiz-adv-x="274" 
d="M-115 -305q0 35 -26 61q-25 26 -71 27q-46 0 -81 -31q-35 -32 -35 -54t30 -56t79 -33q104 0 104 86zM233 -232q0 -198 -73 -322q-87 -146 -262 -146q-142 0 -220 96t-79 206q1 110 53 180q52 68 128 68t113 -40t37 -98t-35 -106t-107 -48t-132 82q0 -108 64 -170t147 -62
q145 0 219 114t74 292q0 306 -174 522q22 23 37 23t22 -3q71 -36 129 -212q58 -178 59 -376z" />
    <glyph glyph-name="braceleft" horiz-adv-x="279" 
d="M-519 -553q1 78 -87 78t-117 -86q37 -78 93 -78q56 -1 84 25t27 61zM127 -291h-92q-48 -51 -48 -128q0 -132 122 -132q59 0 89 39q30 40 30 92t-28 90t-73 39zM84 -680q-162 0 -162 191q0 93 70 196q-195 1 -387 0q160 -96 164 -385q1 -125 -66 -208t-200 -83
q-133 -1 -211 97t-80 212t44 184t122 70t111 -44q36 -44 36 -104q-1 -60 -37 -104t-110 -44t-119 90q-12 -238 233 -238q102 0 161 60t60 151q2 248 -209 365v122q2 2 482 0q144 0 216 -80t72 -186t-54 -184t-136 -78z" />
    <glyph glyph-name="bar" horiz-adv-x="260" 
d="M162 623q0 -152 -142 -154q-66 -1 -133 47l-51 113q50 -28 140 -31t90 49t-80 150q-4 5 -4 15t15 20q15 12 29 12t23 -6q113 -85 113 -215zM-496 1294q0 84 59 128t147 44t156 -70t68 -205q0 -136 -91 -214t-195 -78h-144v172h144q88 1 144 47t56 124t-48 124t-110 47
q-62 0 -106 -30q-43 -29 -43 -91t58 -59q0 86 59 86q59 1 59 -71q-1 -72 -107 -72t-106 118z" />
    <glyph glyph-name="braceright" horiz-adv-x="377" 
d="M27 -315q0 35 -27 63t-74 27q-83 0 -112 -90q0 -32 38 -53t70 -21q105 0 105 74zM303 -398q0 -130 -67 -233q-67 -102 -195 -102q-127 0 -205 105q-78 104 -78 222t46 187t120 69t110 -46t36 -107t-40 -107t-108 -45q-69 0 -129 82q0 -106 65 -182q64 -76 148 -76
q84 1 154 79t71 185q0 203 -233 371q75 99 76 183t-60 167q66 -4 101 -50t35 -111q0 -131 -72 -183q5 2 65 -47t110 -140t50 -221zM162 623q0 -152 -142 -154q-66 -1 -133 47l-51 113q50 -28 140 -31t90 49t-80 150q-4 5 -4 15t15 20q15 12 29 12t23 -6q113 -85 113 -215z
M-496 1294q0 84 59 128t147 44t156 -70t68 -205q0 -136 -91 -214t-195 -78h-144v172h144q88 1 144 47t56 124t-48 124t-110 47q-62 0 -106 -30q-43 -29 -43 -91t58 -59q0 86 59 86q59 1 59 -71q-1 -72 -107 -72t-106 118z" />
    <glyph glyph-name="asciitilde" horiz-adv-x="1425" 
d="M162 623q0 -152 -142 -154q-66 -1 -133 47l-51 113q50 -28 140 -31t90 49t-80 150q-4 5 -4 15t15 20q15 12 29 12t23 -6q113 -85 113 -215zM-496 1294q0 84 59 128t147 44t156 -70t68 -205q0 -136 -91 -214t-195 -78h-144v172h144q88 1 144 47t56 124t-48 124t-110 47
q-62 0 -106 -30q-43 -29 -43 -91t58 -59q0 86 59 86q59 1 59 -71q-1 -72 -107 -72t-106 118zM784 1126q222 0 370 -176t149 -454q-1 -280 -89 -396t-280 -116q-135 0 -219 121t-84 257t58 195q57 59 131 61t126 -40q52 -44 52 -106t-32 -92t-74 -29q-89 0 -89 83q0 50 49 84
q-18 14 -55 14t-74 -35t-37 -111t74 -140t182 -64q109 0 210 88t101 217q-1 237 -129 361t-321 125q-149 -1 -257 -111t-108 -271q0 -30 20 -176t21 -149q0 -118 -62 -199t-186 -81q-157 0 -257 130t-99 251q102 -185 289 -185q124 0 184 36t60 137q0 43 -14 117t-15 160
q0 226 115 360t290 134z" />
    <glyph glyph-name="M_c.rphf" horiz-adv-x="1251" 
d="M1128 899h-714q-76 -1 -140 -53t-63 -108q-1 -56 41 -98t96 -42h320v-178h-299q-64 0 -114 -48t-50 -99q0 -53 34 -85t93 -32q98 0 98 -86q0 -32 -26 -55t-64 -23q-68 0 -144 67t-75 177q0 216 221 276q-219 56 -219 279q1 108 93 194t212 86h700v-172z" />
    <glyph glyph-name="glyph131" horiz-adv-x="1008" 
d="M295 384q0 -98 71 -153t169 -55q97 0 167 55t70 155t-62 166t-168 66t-176 -68t-71 -166zM936 598h-219q55 -31 105 -106t50 -170q0 -162 -100 -250t-236 -88q-137 0 -236 87t-99 251q0 95 50 170t105 106h-233v135h395q37 25 37 79t-41 87h-391v172h612v-172h-123
q43 -33 43 -83t-28 -83h309v-135z" />
    <glyph glyph-name="glyph132" horiz-adv-x="1683" 
d="M406 442q-207 0 -207 -137q0 -41 36 -79t101 -38q220 0 366 109q-135 145 -296 145zM1556 469q0 -209 -92 -336q-109 -149 -325 -149q-190 0 -351 260q-179 -260 -405 -260q-121 0 -189 84t-69 184q0 100 72 174t233 74t322 -144q84 101 84 285q0 128 -76 225t-207 97
q-209 0 -209 -142q0 -50 44 -80t91 -30q-20 11 -20 53t25 63t59 21q100 0 100 -100q0 -58 -42 -90q-43 -32 -115 -33q-72 1 -142 71t-70 162t64 174q64 84 192 84q169 0 273 -161q92 -141 92 -335t-76 -298q107 -134 297 -134t286 94t97 248q0 154 -111 262t-266 107h-178
v172h455v-172h-27q72 -41 128 -171t56 -259z" />
    <glyph glyph-name="glyph133" horiz-adv-x="1237" 
d="M1116 0h-170q0 455 -79 677t-257 222q-340 0 -340 -899h-170q0 380 62 544t254 355h-316v172h830v-172h-127q189 -190 251 -354t62 -545z" />
    <glyph glyph-name="glyph134" horiz-adv-x="1765" 
d="M823 -298q0 -56 -34 -86t-80 -30q-47 0 -79 30t-32 84t111 296q114 -238 114 -294zM1564 614q0 -144 -143 -145q-66 -1 -133 47q28 -64 28 -149q0 -149 -83 -266t-234 -117q-117 0 -222 118q-43 59 -85 119q-95 -235 -299 -235q-160 0 -244 132q-67 105 -67 243t72 209
t160 71q88 1 146 -53t56 -150q0 -58 -50 -98t-94 -39q-44 0 -44 29q91 26 90 104q0 50 -40 80t-96 30t-97 -41q-42 -41 -42 -122q0 -188 246 -188q174 0 253 108q46 63 46 115q0 -45 56 -114q90 -109 260 -109q217 0 217 140q0 112 -156 242q-64 54 -64 104q1 29 21 48
q57 53 163 -55q71 -72 176 -74t105 50t-80 149q-2 3 19 23t31 20t14 -2q114 -80 114 -224zM811 691q0 -50 -35 -84t-85 -34t-84 34t-34 84t34 85t84 35t85 -35t35 -85zM1438 899h-1340v172h1340v-172z" />
    <glyph glyph-name="glyph135" horiz-adv-x="1460" 
d="M1169 565q101 1 155 -73t54 -188t-82 -218q-82 -102 -232 -102t-246 133q-64 90 -64 137q0 -12 -42 -82t-116 -128q-74 -60 -187 -60t-199 82t-87 206q0 124 89 224q82 74 168 150t85 149q0 178 -146 178q-139 0 -139 -137q0 -90 115 -134q-37 -6 -47 -6q-66 0 -122 48
t-56 150t64 168t168 66t182 -68t77 -177q244 243 467 243q166 0 245 -82t79 -181q0 -98 -41 -153t-99 -55q27 60 27 119q0 197 -272 197q-224 0 -418 -195q-24 -71 -108 -142q-134 -115 -137 -119q-68 -73 -68 -163q0 -164 227 -164q197 0 288 251q-1 -12 22 -75t76 -110
q73 -66 188 -66t186 58t71 126t-48 110t-140 42q-10 0 10 20t53 21zM920 690q0 -48 -34 -82t-82 -33q-48 0 -82 34q-34 33 -34 81t34 82t82 35q48 -1 82 -35t34 -82zM751 439q0 2 1 3q0 -1 -1 -3z" />
    <glyph glyph-name="glyph136" horiz-adv-x="1460" 
d="M1403 592h-199q42 0 108 -94t66 -181q0 -129 -82 -231t-236 -102t-246 133q-60 86 -60 137q0 -11 -44 -81q-44 -69 -118 -129t-185 -60t-197 82t-87 206q0 124 89 224q82 74 168 150t85 149q0 178 -146 178q-139 0 -139 -137q0 -90 115 -134q-37 -6 -47 -6q-66 0 -122 48
t-56 150t64 168t170 66t182 -74q75 -74 75 -188t-84 -199q-79 -67 -157 -134q-84 -82 -84 -181q0 -166 227 -166q209 0 287 250q0 -14 21 -75t85 -118t180 -57t187 59t71 122t-70 144t-96 81h-276v172h295q67 0 67 68t-59 67h-295v172h223q58 -37 137 -119t79 -151
q0 -20 -9 -37h113v-172zM750 436q0 4 2 6z" />
    <glyph glyph-name="glyph137" horiz-adv-x="1485" 
d="M408 717q67 0 104 33t37 76q-1 44 -31 74t-80 30q-121 0 -153 -86q0 -127 123 -127zM846 -300q0 -54 -34 -86q-34 -31 -80 -30q-46 0 -80 30t-34 85t111 297q117 -242 117 -296zM1096 -16q-130 0 -245 134q-74 85 -91 138q-128 -272 -320 -272q-156 0 -244 170t-87 396
q0 224 78 380t221 155q94 -1 145 -77t51 -184t-51 -184q-51 -77 -133 -77q-82 -1 -118 41q-38 42 -52 92t-14 52q-78 -96 -76 -236t76 -232t219 -92q228 0 305 205l22 -54q32 -59 94 -105t186 -46t186 45t63 150q0 284 -230 429q-95 60 -229 87v172h254l65 -172h-151
q167 -35 261 -193t93 -329q0 -173 -74 -283t-204 -110z" />
    <glyph glyph-name="glyph138" horiz-adv-x="1509" 
d="M1169 565q101 1 155 -73t54 -188t-82 -218q-82 -102 -226 -102t-245 133q-71 95 -71 137q0 -11 -46 -81q-46 -69 -120 -129t-183 -60t-195 82t-87 206q0 124 89 224q82 74 168 150t85 149q0 178 -146 178q-139 0 -139 -137q0 -90 115 -134l-47 -6q-66 0 -122 48t-56 150
t64 168t169 66q161 0 227 -143q68 -66 135 -131q122 -103 230 -106q145 -5 225 36t80 115h-254v172h281q166 -308 -38 -419q-89 -48 -203 -48t-267 131l-162 158q4 -10 4 -35q0 -106 -84 -191q-79 -67 -157 -134q-84 -82 -84 -181q0 -166 227 -166q197 0 288 253
q-1 -12 23 -76q24 -63 88 -120t176 -57q114 0 185 59t71 127t-48 110t-140 42q-10 0 10 20t53 21zM751 439q0 3 1 3q0 -1 -1 -3z" />
    <glyph glyph-name="glyph139" horiz-adv-x="2595" 
d="M991 540q0 154 -109 256q-108 102 -266 103q-158 -1 -266 -103t-108 -257t108 -259t265 -104t267 104q110 106 109 260zM1894 -310q0 -68 -33 -101t-80 -33t-79 34t-33 100q0 67 111 355q114 -287 114 -355zM2472 501q0 -226 -87 -362q-99 -155 -282 -155
q-257 0 -331 325q-72 -325 -351 -325q-153 0 -247 128q-64 88 -91 218q-48 -150 -177 -246t-292 -96q-203 0 -347 144t-144 349q0 254 225 418h-227v172h674q221 0 221 174q0 72 -86 148l43 45q133 -128 133 -246q0 -241 -236 -293q238 -117 238 -418q0 -64 -16 -133
q75 -162 346 -162q118 0 210 72t93 207q0 315 -443 436q-89 25 -89 97q1 36 27 64t67 28q159 0 323 -184t164 -419q0 -51 -12 -145q77 -156 344 -156q117 0 209 72t92 207q0 210 -191 335q-127 84 -258 99v172h295v-172q203 -172 203 -398z" />
    <glyph glyph-name="glyph140" horiz-adv-x="2060" 
d="M1032 590q-54 0 -86 -31t-33 -72q-3 -94 107 -94t192 84q-63 113 -180 113zM1679 1128q129 0 206 -92t77 -216q0 -126 -65 -220t-147 -94t-82 65q0 14 3 19q113 0 173 56t59 130q0 74 -64 126t-170 52q-190 0 -293 -213q0 -156 -94 -266q12 -26 12 -61t-38 -122
q-38 -88 -37 -126t29 -55t56 -17t64 36t37 79q33 -17 33 -23v-41q0 -59 -60 -107t-118 -48t-111 38t-53 108t100 255q-128 -98 -219 -98q-91 1 -147 49t-56 120t61 125q61 54 172 54t213 -73q32 -22 33 -25q64 98 66 179q2 80 -84 156t-189 76t-205 -59t-102 -162
q0 37 -56 110q-87 113 -239 113q-106 0 -181 -62t-75 -134q0 -154 244 -154q10 -18 10 -45q0 -61 -71 -61q-116 0 -182 88t-66 216q0 126 81 224t228 98q197 0 307 -243q0 117 113 186q92 57 202 57t214 -73t104 -183q98 258 307 258z" />
    <glyph glyph-name="glyph141" horiz-adv-x="1460" 
d="M373 518q59 0 93 29t34 69t-31 71q-31 30 -95 30t-93 -49q-4 -13 -4 -36q0 -114 96 -114zM1188 698q90 0 140 -111t50 -249t-90 -246t-229 -108q-99 0 -173 62t-122 143q-18 37 -37 73q-13 -36 -37 -96t-84 -121q-61 -61 -153 -61q-183 0 -271 139q-72 115 -73 279
t53 285q54 120 145 120q-24 0 -98 51q-100 70 -100 158q1 88 57 134t131 46t113 -49q-2 1 -46 -8t-79 -39t-35 -90q0 -128 172 -191q25 1 77 -57t52 -152q-1 -94 -47 -156t-115 -63q-69 0 -113 47q-44 46 -43 114q0 68 -2 64q-67 -74 -67 -184t68 -177t206 -67
q219 0 287 222q91 -222 336 -222q129 0 191 58t63 144q0 88 -56 152t-155 64h-158v144h193q71 0 71 60q0 34 -25 62t-63 27h-395v172h338q227 -205 227 -256q0 -66 -54 -98q-31 -19 -50 -19zM410 1147z" />
    <glyph glyph-name="glyph142" horiz-adv-x="1253" 
d="M733 563q0 -47 -35 -79t-83 -33q-47 1 -81 33t-34 80t34 80q34 34 80 34q48 0 84 -34t35 -81zM991 540q0 154 -109 256q-108 102 -266 103q-158 -1 -266 -103t-108 -257t108 -259t265 -104t267 104q110 106 109 260zM1108 481q0 -205 -144 -349t-349 -144
q-204 0 -348 144t-144 349q0 254 225 418h-227v172h805v-172h-56q238 -117 238 -418z" />
    <glyph glyph-name="glyph143" horiz-adv-x="1485" 
d="M1278 389q0 52 -12 112t-33 60q-89 -147 -240 -147q-77 0 -123 42t-45 102q0 60 48 106t127 47q80 0 130 -22t50 -25q0 90 -128 162t-340 73q-211 0 -350 -116t-139 -339q0 -256 244 -256q167 0 266 213q105 -213 291 -213q254 0 254 201zM1055 655q-66 0 -104 -26
t-38 -62q1 -75 107 -75t164 122q-63 41 -129 41zM1350 344q0 -152 -74 -256t-239 -104q-164 0 -304 245q-108 -245 -291 -245q-128 0 -224 101t-95 296q0 195 104 328t260 190h-342v172h1024v-172h-122q81 -35 139 -109t59 -126q0 -52 8 -60q23 0 60 -94t37 -166z" />
    <glyph glyph-name="glyph144" horiz-adv-x="1485" 
d="M1278 389q0 52 -12 112t-33 60q-89 -147 -240 -147q-77 0 -123 42t-45 102q0 60 48 106t127 47q80 0 130 -22t50 -25q0 90 -128 162t-340 73q-211 0 -350 -116t-139 -339q0 -256 244 -256q167 0 266 213q105 -213 291 -213q254 0 254 201zM1055 655q-66 0 -104 -26
t-38 -62q1 -75 107 -75t164 122q-63 41 -129 41zM735 -4q112 -234 115 -292q2 -58 -32 -89t-82 -29t-80 32q-32 28 -31 82t110 296zM1350 344q0 -152 -74 -256t-239 -104q-164 0 -304 245q-108 -245 -291 -245q-128 0 -224 101t-95 296q0 195 104 328t260 190h-342v172h1024
v-172h-122q81 -35 139 -109t59 -126q0 -52 8 -60q23 0 60 -94t37 -166z" />
    <glyph glyph-name="glyph145" horiz-adv-x="1536" 
d="M1065 819q179 0 275 -129t96 -299q0 -171 -92 -289t-238 -118t-220 82t-73 186t57 174t148 70t144 -56t52 -125q0 -135 -104 -135q-23 0 -41 17q65 0 65 85q0 50 -31 89t-92 39t-101 -40t-40 -103t58 -115t184 -52q124 0 198 80t74 192q0 114 -89 200t-253 87
q-270 0 -333 -192q-93 192 -318 192q-69 0 -109 -36t-40 -86q0 -113 184 -160q-195 -35 -195 -164q0 -48 41 -76q41 -29 103 -27t124 20t62 34l2 -58q2 -58 -59 -90q-62 -32 -154 -32t-174 62t-82 147q0 171 191 190q-185 44 -185 190q0 94 73 167t198 73q268 0 329 -223
q74 229 365 229zM1141 899h-1041v172h1041v-172z" />
    <glyph glyph-name="glyph146" horiz-adv-x="1229" 
d="M694 713q-72 -1 -119 -31t-51 -66t24 -66q27 -30 77 -30q116 0 187 64t62 82q-9 9 -58 28q-50 19 -122 19zM1130 389q0 -195 -146 -300t-350 -105q-203 0 -350 98t-147 264q0 121 86 168v-80q0 -122 128 -188t299 -66t278 59q127 69 127 203q0 48 -28 91t-40 49
q-147 -187 -358 -187q-103 -1 -169 53t-65 130q-1 76 69 136t204 60q70 0 142 -18t71 -19q3 10 3 22q0 49 -43 95t-106 45h-590v172h760v-172h-31q125 -88 125 -235q0 3 37 -31q94 -86 94 -244z" />
    <glyph glyph-name="glyph147" horiz-adv-x="1460" 
d="M846 614q0 -48 -34 -83t-82 -35t-82 35t-34 83t34 82t82 33q48 1 82 -33t34 -82zM1245 430q0 180 -122 313q-143 156 -383 156t-376 -147t-135 -322q1 -106 57 -174t165 -68q188 0 278 205q92 -207 275 -207q110 0 176 69t65 175zM846 -302q0 -56 -35 -84t-81 -28t-79 29
t-33 84t111 297q117 -242 117 -298zM1360 348q0 -160 -80 -262t-223 -102q-192 0 -328 258q-75 -258 -301 -258q-156 0 -236 102t-81 268q1 166 107 328t290 217h-385v172h1010v-172h-154q181 -81 281 -237q100 -154 100 -314z" />
    <glyph glyph-name="glyph148" horiz-adv-x="1460" 
d="M1245 430q0 180 -122 313q-143 156 -383 156t-376 -147t-135 -322q1 -106 57 -174t165 -68q188 0 278 205q92 -207 275 -207q110 0 176 69t65 175zM1360 348q0 -160 -80 -262t-223 -102q-192 0 -328 258q-75 -258 -301 -258q-156 0 -236 102t-81 268q1 166 107 328
t290 217h-385v172h1010v-172h-154q181 -81 281 -237q100 -154 100 -314z" />
    <glyph glyph-name="glyph149" horiz-adv-x="1460" 
d="M1245 430q0 180 -122 313q-143 156 -383 156t-376 -147t-135 -322q1 -106 57 -174t165 -68q188 0 278 205q92 -207 275 -207q110 0 176 69t65 175zM846 -302q0 -56 -35 -84t-81 -28t-79 29t-33 84t111 297q117 -242 117 -298zM1360 348q0 -160 -80 -262t-223 -102
q-192 0 -328 258q-75 -258 -301 -258q-156 0 -236 102t-81 268q1 166 107 328t290 217h-385v172h1010v-172h-154q181 -81 281 -237q100 -154 100 -314z" />
    <glyph glyph-name="glyph150" horiz-adv-x="1231" 
d="M1155 348q0 -170 -82 -267q-83 -97 -205 -97t-194 111q-21 32 -92 214q-52 131 -203 131q-83 0 -149 -48t-66 -128q0 -82 67 -129q13 -10 124 -57q67 -29 67 -74q0 -63 -84 -63t-156 125t-75 258q-3 134 55 212t184 78q192 0 252 -213t276 -213q88 0 148 63t61 171
q0 174 -115 298q-84 90 -263 179h-590v172h805v-172h-109q344 -199 344 -551z" />
    <glyph glyph-name="glyph151" horiz-adv-x="1460" 
d="M1042 -16q-117 0 -224 120q-85 95 -85 125q0 -38 -67 -125q-93 -120 -241 -120t-234 137q-68 109 -68 246t71 208q72 71 160 72t148 -53t59 -152q1 -57 -51 -96t-96 -39t-45 29q94 36 94 106q0 48 -40 78q-39 30 -95 31q-56 0 -99 -40t-43 -122q0 -201 246 -201
q171 0 253 114q48 67 48 120q0 -51 50 -118q85 -116 264 -116q125 0 187 58t58 149q-5 139 -123 260q-58 60 -58 103q1 42 23 64t44 22q72 0 126 -122t56 -296t-76 -308t-242 -134zM850 696q0 -50 -34 -86t-84 -35q-50 -1 -85 35t-35 86t36 84t84 35q50 0 84 -35
q34 -34 34 -84zM1102 899h-959v172h959v-172z" />
    <glyph glyph-name="glyph152" horiz-adv-x="1460" 
d="M848 -294q0 -56 -34 -86t-80 -30t-78 31t-33 85q0 54 110 294q115 -238 115 -294zM1042 -16q-117 0 -224 120q-85 95 -85 125q0 -38 -67 -125q-93 -120 -241 -120t-234 137q-68 109 -68 246t71 208q72 71 160 72t148 -53t59 -152q1 -57 -51 -96t-96 -39t-45 29
q94 36 94 106q0 48 -40 78q-39 30 -95 31q-56 0 -99 -40t-43 -122q0 -201 246 -201q171 0 253 114q48 67 48 120q0 -51 50 -118q85 -116 264 -116q125 0 187 58t58 149q-5 139 -123 260q-58 60 -58 103q1 42 23 64t44 22q72 0 126 -122t56 -296t-76 -308t-242 -134zM850 696
q0 -50 -34 -86t-84 -35q-50 -1 -85 35t-35 86t36 84t84 35q50 0 84 -35q34 -34 34 -84zM1102 899h-959v172h959v-172z" />
    <glyph glyph-name="glyph153" horiz-adv-x="1509" 
d="M1403 442q1 -200 -75 -329t-232 -129q-105 0 -180 59t-124 139l-38 72q0 -11 -46 -81q-46 -69 -120 -129t-183 -60t-195 82t-87 206q0 124 89 224q82 74 168 150t85 149q0 178 -146 178q-139 0 -139 -137q0 -90 115 -134q-37 -6 -47 -6q-66 0 -122 48t-56 150t64 168
t170 66t182 -74q75 -74 75 -188t-84 -199q-79 -67 -157 -134q-84 -82 -84 -181q0 -164 227 -164q198 0 289 256q75 -256 305 -256q147 0 221 74t74 197q0 195 -78 317t-168 123h-182v172h290v-172q88 -52 138 -187t51 -270z" />
    <glyph glyph-name="glyph154" horiz-adv-x="1509" 
d="M868 -300q0 -54 -34 -85t-81 -31q-46 0 -79 30t-33 85t111 297q116 -242 116 -296zM1403 442q1 -200 -75 -329t-232 -129q-105 0 -180 59t-124 139l-38 72q0 -11 -46 -81q-46 -69 -120 -129t-183 -60t-195 82t-87 206q0 124 89 224q82 74 168 150t85 149q0 178 -146 178
q-139 0 -139 -137q0 -90 115 -134q-37 -6 -47 -6q-66 0 -122 48t-56 150t64 168t170 66t182 -74q75 -74 75 -188t-84 -199q-79 -67 -157 -134q-84 -82 -84 -181q0 -164 227 -164q198 0 289 256q75 -256 305 -256q147 0 221 74t74 197q0 195 -78 317t-168 123h-182v172h290
v-172q88 -52 138 -187t51 -270z" />
    <glyph glyph-name="glyph155" horiz-adv-x="2163" 
d="M2040 500q0 -225 -87 -361q-99 -155 -282 -155q-233 0 -319 282q-16 -126 -94 -204t-189 -78t-178 64t-96 124q-29 62 -45 100q-89 -288 -310 -288q-140 0 -228 122t-87 254t71 198t159 67t147 -53t59 -127q0 -73 -52 -113t-97 -40t-45 30q96 25 96 96q0 58 -35 90
t-89 33q-54 0 -100 -46t-46 -126q0 -181 247 -181q188 0 267 115q43 61 43 119q9 -31 19 -62q29 -68 94 -120t179 -52t174 62q62 62 62 160q0 138 -120 278t-343 211h-702v172h929q222 0 222 174q0 72 -86 148l43 45q133 -128 133 -246q0 -293 -312 -293h-86
q196 -83 297 -241t101 -334q93 -138 334 -138q119 0 211 72t92 207q0 210 -191 335q-128 84 -260 99v172h295v-172q205 -174 205 -399z" />
    <glyph glyph-name="glyph156" horiz-adv-x="2400" 
d="M856 518q0 190 -106 298t-248 108q-140 0 -239 -97t-99 -257t92 -269q92 -108 263 -108q172 0 264 110q73 87 73 215zM2302 500q0 -226 -86 -361q-98 -155 -283 -155q-234 0 -321 286q-20 -126 -108 -206t-222 -80q-224 0 -352 270q-37 80 -37 98q0 -67 -69 -187
q-104 -181 -281 -181q-206 0 -327 199q-107 176 -107 401q-1 224 93 368t261 144q227 0 354 -233q96 -176 96 -367q78 -303 336 -303q119 0 180 72t62 186q3 163 -107 305t-278 143h-156v172h355q221 0 221 174q0 72 -86 148l45 45q133 -128 133 -246q0 -293 -313 -293h-19
q95 -58 163 -135q164 -184 169 -428v-12q93 -138 334 -138q117 0 209 72t92 207q0 210 -191 337q-134 88 -258 97v172h295v-172q203 -173 203 -399z" />
    <glyph glyph-name="glyph157" horiz-adv-x="1253" 
d="M991 540q0 154 -109 256q-108 102 -266 103q-158 -1 -266 -103t-108 -257t108 -259t265 -104t267 104q110 106 109 260zM1108 481q0 -205 -144 -349t-349 -144q-204 0 -348 144t-144 349q0 254 225 418h-227v172h805v-172h-56q238 -117 238 -418z" />
    <glyph glyph-name="glyph158" horiz-adv-x="1460" 
d="M1010 188q152 0 226 94t75 216q0 122 -49 235l-80 -94h-920l-43 121q-63 -84 -63 -222t72 -244t214 -106q208 0 291 222q88 -222 277 -222zM496 844q0 102 -105 102q-45 0 -75 -42t-37 -95q10 -94 98 -94q55 0 87 39t32 90zM1079 938q-49 0 -77 -32t-27 -76q1 -45 33 -80
t90 -35q99 0 106 92q-16 131 -125 131zM1083 1098q125 0 199 -150t74 -376t-88 -395q-100 -191 -276 -191t-259 256q-81 -258 -289 -258q-165 0 -259 198q-83 172 -83 400t76 371t199 143q174 0 174 -277v-49h373q-6 21 -6 74q0 254 165 254z" />
    <glyph glyph-name="glyph159" horiz-adv-x="1626" 
d="M668 819q0 108 -152 111q-48 1 -100 -17q-35 -31 -35 -89q-1 -58 35 -89q36 -30 94 -30t108 31t50 83zM1366 580q0 -270 -184 -432t-450 -162q-264 0 -442 154t-177 440q1 240 107 378t247 138q107 0 181 -74t73 -198q0 -126 -62 -194t-143 -67q-80 1 -136 59t-56 155
t16 106q-26 0 -83 -70q-81 -97 -81 -235q0 -201 161 -302q143 -90 393 -90t416 103t165 289q-1 112 -97 216t-229 105v172h313v-172h-71q139 -149 139 -319z" />
    <glyph glyph-name="glyph160" horiz-adv-x="1253" 
d="M819 231q0 118 -143 140q-123 -31 -123 -142q1 -59 39 -93t92 -34t94 35q41 35 41 94zM403 778q45 0 78 22t33 64t-36 68t-92 26q-58 0 -93 -34q-2 -2 -2 -46q-1 -44 33 -72t79 -28zM1143 652q-1 -118 -77 -190t-179 -83h-92q7 -1 51 -55t43 -119q-1 -107 -67 -169
t-152 -63q-86 0 -150 54t-65 156q0 102 94 175q-93 0 -127 9q-149 35 -224 121t-75 256q0 172 82 262t184 90q74 0 125 -54t51 -152q1 -98 -47 -151t-112 -53t-111 42t-47 110q0 24 -4 47q-64 -41 -64 -153t98 -154q45 -19 170 -38q124 -19 170 -34t103 -60q54 54 130 73
q76 18 147 77t71 116t-32 112t-70 75h-267v172h119q175 -107 249 -203q74 -98 75 -216z" />
    <glyph glyph-name="glyph161" horiz-adv-x="1460" 
d="M1354 336q0 -158 -80 -256q-80 -96 -221 -96q-95 0 -162 64t-96 124q-29 62 -45 100q-89 -288 -310 -288q-140 0 -228 122t-87 254t71 198t159 67t147 -53t59 -127q0 -73 -52 -113t-97 -40t-45 30q96 25 96 96q0 58 -35 90t-89 33q-54 0 -100 -46t-46 -126
q0 -181 247 -181q188 0 267 115q43 61 43 119q9 -31 19 -62q29 -68 94 -120t179 -52t174 62q62 62 62 160q0 138 -120 278t-343 211h-702v172h970v-172h-127q194 -81 296 -243t102 -320z" />
    <glyph glyph-name="glyph162" horiz-adv-x="1229" 
d="M1030 545q0 145 -107 242t-237 112q34 -24 66 -81t32 -122q0 -116 -80 -192t-218 -76q-139 0 -189 -14q-78 -22 -78 -99q0 -157 287 -157q288 0 406 80t118 307zM1139 459q0 -475 -627 -475q-182 0 -292 73t-111 211q0 138 84 186q59 34 195 34h51q35 -1 53 -1
q104 0 162 69q58 68 58 150q2 82 -47 138t-135 55q-86 1 -130 -39q-46 -40 -46 -92t32 -86q32 -35 70 -35t72 45q-84 0 -84 68t68 67q92 0 92 -92q0 -49 -40 -91t-110 -42t-120 46t-51 106q0 101 75 145h-233v172h702v-172q100 -28 191 -129q121 -134 121 -311z" />
    <glyph glyph-name="glyph163" horiz-adv-x="1460" 
d="M1446 -41q0 -24 -19 -45t-48 -21q-29 -1 -54 23t-106 125q-74 -57 -184 -57t-206 108t-96 137q0 -38 -67 -125q-93 -120 -241 -120t-234 137q-68 109 -68 246t71 208q72 71 160 72t148 -53t59 -152q1 -57 -51 -96t-96 -39t-45 29q94 36 94 106q0 48 -40 78q-39 30 -95 31
q-56 0 -99 -40t-43 -122q0 -201 246 -201q171 0 253 114q48 67 48 120q0 -51 50 -118q85 -116 264 -116q32 0 47 5l-287 348l37 24l356 -342q92 52 92 179t-123 253q-58 60 -58 103q1 42 23 64t44 22q74 0 128 -123t54 -293t-68 -295q66 -64 138 -135q16 -15 16 -39z
M850 696q0 -50 -34 -86t-84 -35q-50 -1 -85 35t-35 86t36 84t84 35q50 0 84 -35q34 -34 34 -84zM1116 899h-991v172h991v-172z" />
    <glyph glyph-name="exclamdown" horiz-adv-x="1229" 
d="M942 776q76 0 126 -138t50 -270q0 -134 -64 -259t-161 -125q-59 0 -91 96q-46 142 -73 178q-70 96 -223 96q-295 0 -295 -289q0 -29 6 -77q-92 58 -92 193t97 243q96 108 260 108t249 -92q51 -56 85 -160t56 -104q68 0 107 78t39 176t-36 222t-40 124zM643 712
q0 -48 -35 -84q-34 -36 -84 -36t-86 36t-35 84q-1 48 35 84t86 35q50 1 84 -35q35 -36 35 -84zM877 899h-732v172h732v-172z" />
    <glyph glyph-name="cent" horiz-adv-x="1526" 
d="M457 625q-111 -1 -171 -69t-61 -160q0 -92 63 -162t181 -70t211 105q68 76 68 108q-75 248 -291 248zM1090 162q108 0 168 68t61 162q0 92 -61 158t-173 66q-201 0 -262 -227q0 -49 44 -115q72 -112 223 -112zM1090 676q172 0 264 -96t92 -236t-96 -250t-254 -110
q-210 0 -322 217q-88 -217 -332 -217q-158 0 -247 105t-89 245t90 242t242 102t248 -87q66 -59 66 -83q0 103 -60 217q-92 174 -272 174h-326v172h1020v-172h-528q87 -1 157 -141t70 -230q0 15 65 70q91 78 212 78z" />
    <glyph glyph-name="sterling" horiz-adv-x="1460" 
d="M516 825q0 95 -115 95q-89 0 -120 -111q36 -86 102 -86q65 1 99 31t34 71zM1090 920q-51 0 -81 -26t-30 -64t33 -70t96 -31q99 0 106 84q-16 107 -124 107zM1094 1079q128 -1 206 -149t78 -371t-88 -386q-102 -187 -294 -187t-261 247q-77 -249 -280 -249
q-165 0 -262 203q-84 178 -84 398t74 356t202 136q92 1 140 -67t48 -166t-55 -175t-145 -77q-120 0 -140 143q-69 -92 -69 -228q0 -135 72 -227t219 -92q228 0 286 240q37 -240 279 -240q157 0 230 88t73 219t-53 226q-36 -111 -152 -111q-90 0 -148 81t-57 175q0 94 46 153
q46 60 135 60z" />
    <glyph glyph-name="currency" horiz-adv-x="422" 
d="M-187 -454q-1 -70 49 -112t116 -41t116 43t49 113q0 71 -49 117q-48 46 -116 46t-116 -48t-49 -118zM255 -316h-127q30 -18 59 -70t29 -98q0 -110 -71 -170t-163 -60t-162 62t-69 173q0 111 74 163h-137v116h254q90 85 88 240q-1 118 -47 172h18q47 0 95 -48t46 -137
t-126 -227h239v-116z" />
    <glyph glyph-name="yen" horiz-adv-x="248" 
d="M-546 -463q-90 0 -132 -27q-44 -27 -44 -57q0 -66 142 -66q91 1 150 35t59 47q-85 68 -175 68zM204 -296q0 -176 -60 -302t-188 -126q-127 0 -278 156q-83 -156 -258 -156q-99 0 -154 45t-55 108q-1 63 57 109t171 46t220 -76q43 69 43 148t-41 126t-89 47
q-48 -1 -77 -21q-30 -20 -30 -54q0 -10 4 -21q32 28 49 25q50 -10 50 -53q0 -60 -70 -60q-43 -1 -68 33t-23 76q7 112 136 127q75 8 139 -52q64 -61 65 -165q0 -104 -45 -187q95 -90 204 -90t175 85q65 86 67 216t-60 290t-154 206q13 9 69 39q33 1 117 -171t84 -348z" />
    <glyph glyph-name="brokenbar" horiz-adv-x="190" 
d="M164 -732h-161q0 176 -66 319q-78 170 -209 170q-262 0 -262 -489h-152q0 196 104 355q119 183 317 183q197 0 313 -162t116 -376z" />
    <glyph glyph-name="section" horiz-adv-x="259" 
d="M-341 -696q0 -32 -20 -54t-45 -22q-70 0 -70 76q0 15 70 151q65 -140 65 -151zM196 -133q0 -141 -109 -141q-59 0 -108 55q12 -86 12 -111q0 -256 -164 -256q-146 0 -233 232q-74 -232 -234 -232q-76 0 -116 60t-40 136t42 128q40 52 100 53q60 0 90 -30t30 -74t-33 -58
q-14 -7 -34 -6q22 17 22 49q0 66 -69 66q-40 0 -64 -30t-24 -68q-4 -45 26 -78t97 -33t113 52t67 110q20 58 21 69q61 -231 206 -231q64 0 104 47t40 115q0 116 -86 196q-16 15 -16 34q0 30 36 30t68 -57q30 -57 44 -67t32 -23t44 -13q86 0 86 90q0 53 -34 119t-86 66
q23 12 39 12q51 0 91 -68t40 -143zM-412 -240q-1 2 -1 4q1 -1 1 -4z" />
    <glyph glyph-name="dieresis" horiz-adv-x="144" 
d="M-140 -748q-175 0 -231 172q-72 -170 -261 -170q-69 0 -129 44t-59 109q2 67 76 125t79 64q46 44 48 90q1 46 -25 69t-57 23q-58 0 -59 -73q-1 -35 29 -57t32 -21q-14 -10 -44 -10q-29 -1 -59 27t-30 83t42 92t93 37t90 -36t41 -84q2 -49 -4 -60q86 88 158 126t177 38
q103 0 175 -48t72 -116q0 -77 -79 -77q-16 0 -30 3q12 25 12 49q0 47 -46 79t-144 32t-168 -38t-145 -113l-88 -76q-43 -43 -41 -94q2 -86 119 -86t231 133q90 -125 213 -125t123 65q0 48 -72 105q81 -1 125 -47t46 -108t-60 -94q-63 -32 -150 -32zM-360 -456q-64 0 -65 64
q0 64 66 64q72 0 67 -66q-4 -62 -68 -62zM-697 -373z" />
    <glyph glyph-name="copyright" horiz-adv-x="289" 
d="M220 -617q0 -71 -42 -119t-122 -47q-156 0 -284 176q0 -76 -78 -129t-168 -53t-156 42q-66 41 -65 109t109 158t108 157t-73 73t-73 -72q0 -38 26 -52t28 -12q-16 -12 -40 -12q-89 0 -89 102q-1 53 37 82t91 31q53 1 97 -37t45 -109q-1 -71 -71 -139t-70 -112
q0 -106 147 -101q71 3 127 47t55 107q112 -154 228 -154q140 0 135 127q-5 120 -115 170h-149v117h141q27 73 27 117q0 98 -92 98q9 59 73 59q99 0 99 -133q0 -64 -52 -141h160v-119h-102q108 -125 108 -231z" />
    <glyph glyph-name="ordfeminine" horiz-adv-x="250" 
d="M-172 -819q0 -70 -66 -70t-67 78q0 13 61 147q72 -144 72 -155zM172 -281q0 -190 -24 -263q-39 -124 -155 -124t-187 116q-50 81 -50 120q-77 -230 -233 -230q-81 0 -141 59t-60 131t44 126q44 53 116 53q110 0 110 -101q0 -57 -34 -57q-8 105 -88 105q-88 0 -88 -82
q0 -123 165 -123q156 0 207 229q51 -229 211 -229q148 0 148 279q-1 128 -35 268t-66 178q25 12 45 2q115 -54 115 -457z" />
    <glyph glyph-name="guillemotleft" horiz-adv-x="128" 
d="M54 -600q0 -56 -42 -105t-103 -49q-156 0 -297 182q0 -76 -74 -132t-161 -56q-88 0 -154 42t-66 110q1 68 109 158t108 156t-71 72q-74 7 -74 -71q0 -38 25 -52t28 -12q-16 -12 -40 -12q-89 0 -89 102q0 53 38 83t87 30q87 2 125 -68q164 -96 270 -96q213 0 213 126
q0 30 -14 65q108 -17 111 -116q2 -69 -68 -113t-156 -42q-171 6 -337 127q2 -10 2 -24q0 -75 -71 -143t-71 -118t32 -73t109 -23t133 45t56 109q111 -154 227 -154q135 0 135 127q0 42 -36 72q60 0 88 -45q28 -46 28 -102zM-718 -357z" />
    <glyph glyph-name="logicalnot" horiz-adv-x="447" 
d="M-847 -397q0 -73 53 -111q54 -38 126 -37q72 0 123 39t51 106q0 68 -48 114t-128 46t-129 -42q-48 -42 -48 -115zM10 -790q0 -20 -22 -42t-48 -22q-62 0 -62 73q0 14 62 148q70 -137 70 -157zM155 -658q-73 0 -121 40t-66 80t-28 65q-48 -185 -215 -185q-87 0 -147 80
q-8 10 -44 82l-44 -82q-62 -80 -166 -80t-161 74q-58 74 -58 178t61 184q61 78 177 78t171 -103q33 -63 33 -119t24 -98q45 -81 143 -81q98 1 142 47q45 46 45 110t-41 111q-40 47 -104 47t-64 43t66 43q88 0 145 -100q43 -77 43 -145q0 -28 43 -80q63 -76 157 -76t140 47
q46 48 43 110q-2 62 -42 108t-107 46t-67 44q1 44 81 44t129 -72t51 -173q2 -103 -54 -185q-58 -82 -165 -82z" />
    <glyph glyph-name="less_c.blwf" horiz-adv-x="382" 
d="M-314 -590q68 0 122 37t54 49t-43 36t-123 24q-133 0 -131 -73t121 -73zM188 -487q-19 0 -43 12q94 0 96 82q1 47 -35 89t-88 42q-165 0 -190 -225q32 -49 32 -105t-31 -94t-73 -39q-42 0 -31 6q77 29 80 115q1 23 -14 57q2 -6 -58 -55q-59 -49 -145 -49t-135 39t-49 92
t49 92t146 39t179 -55q7 18 7 37q0 57 -50 101t-128 44t-146 -70q0 14 -42 42t-117 28q-74 0 -110 -33t-36 -76q0 -84 96 -84q-6 -26 -56 -26q-50 1 -82 43q-33 42 -32 112q0 70 52 128t136 59q84 0 145 -76q33 -42 46 -80q11 34 50 80q63 76 151 76t144 -76q36 -49 36 -80
q60 156 182 156q88 0 136 -58q48 -59 48 -129t-32 -116q-33 -46 -88 -45z" />
    <glyph glyph-name="registered" horiz-adv-x="244" 
d="M-484 -234q0 59 -70 59q-26 1 -60 -13t-34 -34q8 -84 86 -84t78 72zM161 -382q0 -106 -68 -185t-174 -79q-131 0 -211 129q-58 -129 -188 -129t-198 92q-66 92 -66 201q0 108 51 176t139 68q127 0 127 -123q0 -56 -36 -98t-99 -41q-24 0 -60 43t-61 43q-12 -49 -12 -68
q0 -81 54 -129t128 -49q156 0 225 176q56 -176 215 -176q83 0 129 48t45 120q0 131 -176 227q140 87 140 258q0 101 -66 191q73 1 117 -77t45 -159q0 -148 -137 -215q137 -105 137 -244z" />
    <glyph glyph-name="overscore" horiz-adv-x="50" 
d="M-230 -400q0 -28 -22 -48q-22 -21 -49 -21q-28 0 -49 21q-21 20 -21 48q1 28 21 48t48 20t50 -20t22 -48zM-79 -406q0 94 -65 160q-66 66 -158 66t-158 -66t-65 -160q-1 -93 65 -159t159 -66t157 66t65 159zM-5 -436q0 -122 -87 -210t-209 -87q-122 0 -210 88
q-88 87 -88 209t88 210t210 87q122 0 209 -87q87 -88 87 -210z" />
    <glyph glyph-name="degree" horiz-adv-x="300" 
d="M30 -632q80 0 118 52t39 111q0 60 -16 105t-39 45q6 -20 6 -41q0 -135 -123 -135q-55 0 -91 42t-36 95q0 121 127 121q7 0 -21 13q-75 34 -210 34q-186 0 -292 -92t-105 -199q-1 -65 37 -108t106 -43q131 0 254 202q101 -202 246 -202zM89 -350q0 29 -18 62
q-21 12 -55 12t-60 -26t-27 -58q0 -82 84 -82q76 0 76 92zM95 -260q73 0 115 -73t41 -166q1 -93 -55 -165t-156 -71q-186 0 -258 232q-64 -232 -258 -232q-101 1 -161 71t-58 167q3 137 125 243t340 105q218 0 301 -82q29 -29 24 -29z" />
    <glyph glyph-name="plusminus" horiz-adv-x="300" 
d="M30 -632q80 0 118 52t39 111q0 60 -16 105t-39 45q6 -20 6 -41q0 -135 -123 -135q-55 0 -91 42t-36 95q0 121 127 121q7 0 -21 13q-75 34 -210 34q-186 0 -292 -92t-105 -199q-1 -65 37 -108t106 -43q131 0 254 202q101 -202 246 -202zM89 -350q0 29 -18 62
q-21 12 -55 12t-60 -26t-27 -58q0 -82 84 -82q76 0 76 92zM-155 -862q0 -84 -61 -84q-25 0 -44 24t-19 52t63 184q61 -157 61 -176zM95 -260q73 0 115 -73t41 -166q1 -93 -55 -165t-156 -71q-186 0 -258 232q-64 -232 -258 -232q-101 1 -161 71t-58 167q3 137 125 243
t340 105q218 0 301 -82q29 -29 24 -29z" />
    <glyph glyph-name="twosuperior" horiz-adv-x="162" 
d="M-165 -169q135 1 207 -97t72 -226t-68 -216t-178 -88t-164 62t-55 140t41 130t112 51q70 0 109 -42t39 -95q0 -91 -76 -91q-17 0 -33 5q48 0 48 64q0 38 -24 68t-69 30q-44 0 -74 -31t-30 -72q0 -133 176 -133q96 0 152 60t55 144q-1 86 -67 151t-189 65
q-152 0 -250 -141q-106 141 -238 141q-52 0 -82 -28t-30 -70q1 -42 35 -79q34 -36 102 -36q-147 -31 -147 -121q0 -36 32 -56q60 -39 174 -5q45 13 45 24v-45q0 -42 -46 -66t-114 -24t-130 48t-62 106q0 60 44 98t106 45q-68 -1 -105 41t-37 108t53 122t148 55
q167 0 246 -168q102 172 272 172z" />
    <glyph glyph-name="threesuperior" horiz-adv-x="250" 
d="M70 -434q56 0 86 38t30 88t-31 87t-85 37q-121 0 -121 -135q0 -42 31 -115h90zM51 -49q80 0 131 -77q51 -78 51 -186t-59 -186t-184 -77h-756v141h707q-57 77 -56 175t43 154t123 56z" />
    <glyph glyph-name="acute" horiz-adv-x="140" 
d="M-294 -346q0 -32 -22 -54t-52 -21q-73 1 -73 75t73 74q30 0 52 -22q22 -20 22 -52zM5 -483q0 102 -97 183q-98 81 -276 81q-178 1 -278 -81t-100 -183q0 -61 36 -102t103 -41q129 0 239 172q121 -172 248 -172q59 0 92 41t33 102zM-300 -827q0 -104 -68 -104
q-29 1 -50 29t-21 75q0 14 71 193q68 -181 68 -193zM91 -516q-1 -96 -59 -164t-150 -67q-163 0 -250 186q-74 -186 -251 -186q-100 0 -159 67t-59 164q0 139 111 239q129 118 361 118t355 -118q101 -96 101 -239z" />
    <glyph glyph-name="mu1" horiz-adv-x="140" 
d="M5 -473q0 102 -97 183q-98 81 -276 81q-178 1 -278 -81t-100 -183q0 -61 36 -102t103 -41q129 0 239 172q121 -172 248 -172q59 0 92 41t33 102zM91 -506q-1 -96 -59 -164t-150 -67q-163 0 -250 186q-74 -186 -251 -186q-100 0 -159 67t-59 164q0 139 111 239
q129 118 361 118t355 -118q101 -96 101 -239z" />
    <glyph glyph-name="paragraph" horiz-adv-x="140" 
d="M5 -473q0 102 -97 183q-98 81 -276 81q-178 1 -278 -81t-100 -183q0 -61 36 -102t103 -41q129 0 239 172q121 -172 248 -172q59 0 92 41t33 102zM-300 -817q0 -104 -68 -104q-29 1 -50 29t-21 75q0 14 71 193q68 -181 68 -193zM91 -506q-1 -96 -59 -164t-150 -67
q-163 0 -250 186q-74 -186 -251 -186q-100 0 -159 67t-59 164q0 139 111 239q129 118 361 118t355 -118q101 -96 101 -239z" />
    <glyph glyph-name="middot" horiz-adv-x="250" 
d="M-270 -163q-91 0 -142 -32t-51 -76q0 -45 46 -81t124 -36q145 0 244 94q-83 131 -221 131zM299 -547q0 -47 -37 -87t-98 -41q-61 0 -116 39q-71 49 -71 143q0 13 -2 37t-2 33q-141 -94 -271 -94t-198 67q-68 68 -67 146t67 134t185 56q197 0 295 -147q25 19 45 89t20 164
t-45 154q135 -36 135 -194q-1 -76 -31 -182t-69 -144q35 -29 35 -119q0 -63 125 -63q27 0 55 26t29 56q16 -26 16 -73z" />
    <glyph glyph-name="cedilla" horiz-adv-x="246" 
d="M172 -111q0 -190 -24 -264q-39 -125 -155 -125t-187 117q-50 82 -50 121q0 -34 -54 -116q-75 -114 -168 -114q-92 0 -152 58t-60 132q0 72 44 126t116 53q110 0 110 -101q0 -57 -34 -57q-8 105 -88 105q-40 0 -64 -24t-24 -58q0 -123 165 -123q156 0 207 229
q51 -229 211 -229q148 0 148 279q-1 126 -35 266t-66 180q25 12 45 2q115 -54 115 -457z" />
    <glyph glyph-name="onesuperior" horiz-adv-x="246" 
d="M-172 -659q0 -40 -22 -63t-50 -23q-61 0 -61 94q0 15 61 176q72 -169 72 -184zM172 -111q0 -190 -24 -264q-39 -125 -155 -125t-187 117q-50 82 -50 121q0 -34 -54 -116q-75 -114 -168 -114q-92 0 -152 58t-60 132q0 72 44 126t116 53q110 0 110 -101q0 -57 -34 -57
q-8 105 -88 105q-40 0 -64 -24t-24 -58q0 -123 165 -123q156 0 207 229q51 -229 211 -229q148 0 148 279q-1 126 -35 266t-66 180q25 12 45 2q115 -54 115 -457z" />
    <glyph glyph-name="ordmasculine" horiz-adv-x="326" 
d="M253 -357q0 -328 -190 -328q-215 0 -279 217q0 -66 -48 -131q-64 -86 -164 -86q-100 1 -161 43t-61 112t100 140t99 121q0 75 -75 73t-75 -65q0 -55 62 -70q-1 -10 -25 -10q-24 -1 -55 25t-31 78t38 82q38 32 88 32t86 -37t36 -109t-73 -124t-73 -94q0 -82 132 -82
q94 0 155 94q45 69 45 115q58 -209 262 -209q164 0 164 230t-192 511q-3 5 15 16t48 11q82 0 127 -166t45 -389z" />
    <glyph glyph-name="guillemotright" horiz-adv-x="326" 
d="M-130 -804q0 -84 -71 -84q-64 0 -64 96q0 14 64 177q71 -176 71 -189zM253 -347q0 -328 -190 -328q-215 0 -279 217q0 -66 -48 -131q-64 -86 -164 -86q-100 1 -161 43t-61 112t100 140t99 121q0 75 -75 73t-75 -65q0 -55 62 -70q-1 -10 -25 -10q-24 -1 -55 25t-31 78
t38 82q38 32 88 32t86 -37t36 -109t-73 -124t-73 -94q0 -82 132 -82q94 0 155 94q45 69 45 115q58 -209 262 -209q164 0 164 230t-192 511q-3 5 15 16t48 11q82 0 127 -166t45 -389z" />
    <glyph glyph-name="onequarter" horiz-adv-x="328" 
d="M57 -225q-51 0 -115 -14t-65 -19q0 -145 189 -145q70 1 114 31t43 65q-2 82 -166 82zM54 -762q-190 0 -305 82q-116 82 -116 238t193 221q0 35 30 79t29 81q0 76 -41 110q25 17 45 17q82 0 82 -99q0 -43 -41 -93t-41 -73q81 31 183 31t167 -44q64 -44 64 -106
q0 -60 -61 -108q-62 -48 -166 -49t-177 71t-73 130q-131 -55 -131 -146q0 -229 364 -229q152 0 275 65t123 178l22 -28q1 -160 -117 -244t-308 -84z" />
    <glyph glyph-name="onehalf" horiz-adv-x="381" 
d="M330 -596q0 -120 -87 -194t-223 -74t-236 68t-101 196q0 89 56 136q53 30 108 64t55 97q0 115 -113 115q-49 0 -87 -36t-38 -86t27 -122q-28 2 -64 58t-37 120t49 122q49 58 139 58t144 -54t53 -144q0 -111 -145 -217q-51 -52 -51 -99q0 -71 73 -112t172 -41q98 0 160 51
q62 50 62 154t-125 303t-125 285t46 138t106 52t109 -42q50 -42 50 -96q1 -55 -21 -92t-59 -37q-9 0 -18 2q37 29 37 76q0 72 -94 72q-32 0 -57 -32q-25 -31 -25 -83t65 -156t127 -205q68 -126 68 -245z" />
    <glyph glyph-name="threequarters" horiz-adv-x="242" 
d="M-548 -567q-272 -1 -480 145t-311 373h49q104 -149 315 -251t426 -103t412 99t280 255h50q-81 -232 -275 -375t-466 -143z" />
    <glyph glyph-name="questiondown" horiz-adv-x="74" 
d="M-696 -268q78 0 78 76t-77 77q-77 0 -93 -71q29 -82 92 -82zM-205 -514q61 0 121 56t59 120q0 64 -20 105q-65 -95 -117 -95q-80 0 -112 60h-314q-36 -51 -116 -51t-115 100q-17 -47 -17 -92q0 -85 56 -144t127 -59q137 0 223 168q75 -168 225 -168zM-162 -115
q-86 0 -86 -73q0 -86 82 -86t96 81q-62 78 -92 78zM-152 -74q77 0 127 -76t50 -188q1 -112 -59 -196t-167 -84q-148 0 -229 188q-89 -188 -236 -188q-113 0 -168 76t-55 184q0 110 54 197t137 87q58 0 94 -38t35 -97h278q0 39 26 78q36 57 113 57z" />
    <glyph glyph-name="Agrave" horiz-adv-x="320" 
d="M37 -234q102 0 165 -76t63 -172q-1 -96 -47 -165q-46 -68 -116 -68t-104 35q-36 35 -36 80q34 -35 98 -35q64 -1 104 37q38 38 40 91t-46 95q-46 42 -133 41q-191 0 -235 -106q-36 104 -236 104q-82 0 -126 -45q-44 -46 -44 -98t36 -86t98 -33q61 0 112 35
q0 -115 -123 -115q-86 0 -135 72t-49 169q0 96 58 168t176 72t188 -84q45 -54 45 -88q9 23 17 47q62 125 230 125z" />
    <glyph glyph-name="Aacute" horiz-adv-x="214" 
d="M-189 -604q0 44 -30 68t-44 24q-80 -36 -80 -90q0 -74 77 -74t77 72zM-476 -183q-17 0 -33 -3q-12 -27 -12 -51q0 -63 61 -60q54 3 56 55q2 59 -72 59zM140 -94q0 -356 -220 -403q-50 -7 -101 -13q39 -75 39 -92q0 -61 -36 -95t-88 -34q-52 1 -92 33t-40 90t45 96
q-35 -7 -70 -7q-95 -1 -161 45t-66 138q0 197 172 197q123 0 123 -104q0 -41 -29 -73q-30 -32 -78 -32t-77 32t-23 83q0 9 -18 -19t-17 -61q0 -119 217 -119q57 0 123 -37l152 20q83 18 122 86q50 88 50 294t-68 264q17 2 27 2q54 1 84 -85t30 -206z" />
    <glyph glyph-name="Acircumflex" horiz-adv-x="469" 
d="M397 -477q0 -112 -55 -184t-158 -72q-139 0 -211 205q-61 -205 -217 -205q-98 1 -160 87t-61 178q-1 92 49 138t112 47t104 -37t42 -88t-36 -78t-68 -28t-33 20q66 32 66 66q0 88 -82 88q-41 0 -74 -33t-33 -90q0 -125 174 -125q131 0 187 81q30 44 30 85q0 -35 35 -84
q57 -82 172 -82q78 0 120 46t42 128q0 83 -84 179t-238 145q-108 2 -110 0v119h287q137 0 137 127q0 47 -62 100q33 35 33 31q92 -89 92 -171q-1 -82 -41 -144t-112 -62h-125q133 -56 205 -166t73 -221z" />
    <glyph glyph-name="Atilde" horiz-adv-x="285" 
d="M197 -394q0 50 -25 96t-49 63q-17 -103 -85 -141t-196 -37q-128 0 -129 -69q0 -63 58 -97q59 -34 157 -34q98 -1 184 57t85 162zM260 -419q0 -147 -96 -226t-222 -79t-218 61t-91 166q0 140 195 140q231 0 231 167q-47 27 -101 27t-67 -2q27 -18 27 -61q0 -71 -72 -71
q-82 0 -82 83q0 104 162 104q79 0 137 -30q7 37 7 71q0 254 -97 312q17 16 50 16q40 0 78 -117t38 -239q0 -43 -6 -80q127 -95 127 -242z" />
    <glyph glyph-name="Adieresis" horiz-adv-x="250" 
d="M233 -455q0 -86 -65 -86q-84 0 -84 158q0 57 -16 96t-17 25q-1 -91 -69 -148t-168 -57t-165 98q-44 65 -44 101q-44 -199 -228 -199q-87 0 -139 73t-53 163q0 145 137 145q123 0 123 -100q0 -78 -73 -80q19 1 19 56q0 77 -77 77q-32 0 -52 -33t-20 -65q0 -123 142 -123
q118 0 182 96q27 41 39 96q50 -192 225 -192q74 0 124 66t50 165q0 158 -106 381q67 4 69 0q266 -585 266 -713zM-628 -266h-1h1z" />
    <glyph glyph-name="Aring" horiz-adv-x="263" 
d="M190 -227q0 -399 -199 -399q-51 0 -90 44t-39 101q0 182 -233 182q-97 -1 -167 -53t-71 -118q1 -66 25 -108t28 -42q-34 0 -73 42t-39 126q0 128 82 203t203 75t207 -54t85 -174q0 -118 88 -118q99 0 99 250q0 520 -68 645q4 -4 35 -4q43 0 85 -205t42 -393z" />
    <glyph glyph-name="AE" horiz-adv-x="366" 
d="M-492 -713q101 0 161 65q60 64 60 156q-1 92 -63 154t-160 63q-98 0 -156 -65q-58 -66 -57 -154q0 -88 57 -154t158 -65zM31 -713q94 -1 152 65t58 158t-58 160t-165 65q-207 -4 -209 -241q0 -92 64 -150t158 -57zM32 -224q126 0 206 -88t79 -210q0 -120 -79 -208
t-204 -88t-205 64q-32 34 -63 67q-17 -33 -61 -70q-81 -67 -205 -67t-204 92q-79 92 -79 212q-1 120 77 204t204 84t206 -66q43 -35 60 -69q0 21 70 82q72 61 198 61z" />
    <glyph glyph-name="Ccedilla" horiz-adv-x="98" 
d="M-672 -268q78 0 78 76t-77 77q-77 0 -93 -71q29 -82 92 -82zM-137 -115q-86 0 -86 -73q0 -86 82 -86t96 81q-62 78 -92 78zM-137 -74q86 0 136 -76t50 -188t-59 -196t-166 -84q-148 0 -230 188q-89 -188 -235 -188q-113 0 -168 76t-55 184q0 110 54 197t136 87
q58 0 94 -40t35 -91q-1 -52 -35 -83t-92 -31q-87 0 -123 100q-16 -47 -16 -92q-1 -85 55 -144t127 -59q137 0 223 168q76 -168 226 -168q60 0 120 56t60 120t-20 105q-65 -95 -117 -95q-129 0 -129 119q0 55 37 95t92 40z" />
    <glyph glyph-name="Egrave" horiz-adv-x="418" 
d="M147 -838q51 0 87 32t36 84t-37 88q-37 34 -87 34t-87 -36q-36 -36 -36 -88t37 -84q37 -30 87 -30zM369 -623h-86q59 -76 59 -127q0 -88 -58 -136t-134 -48q-74 0 -130 50t-55 128q0 78 45 133h-94v105l199 2q69 70 65 170t-41 151h25q40 -1 80 -39t38 -108t-96 -176h183
v-105z" />
    <glyph glyph-name="Eacute" horiz-adv-x="444" 
d="M-229 -727q-117 0 -117 -57q0 -47 96 -47t168 55q-62 49 -147 49zM385 -591q1 -137 -49 -239t-148 -102t-225 121q-70 -121 -201 -121q-82 0 -126 38t-44 90t46 90t131 38t178 -53q30 82 30 123q0 40 -29 74t-70 34q-9 0 -17 -2q-51 -4 -62 -51q19 14 41 14q42 -9 42 -49
q0 -55 -64 -55q-34 1 -54 29t-20 65t32 69t87 36q56 4 109 -44t53 -126t-29 -150q89 -69 141 -69q89 0 141 64q52 63 52 165t-48 224t-126 169l57 35q49 -49 111 -164t61 -253z" />
    <glyph glyph-name="Ecircumflex" horiz-adv-x="285" 
d="M-96 -528q-199 0 -199 -383h-127q2 160 90 295t244 135q156 -1 250 -129t96 -301h-135q-2 143 -60 263t-159 120z" />
    <glyph glyph-name="Edieresis" horiz-adv-x="551" 
d="M74 -844q0 -67 -62 -67t-63 67q0 10 63 142q62 -132 62 -142zM492 -406q0 -122 -95 -122q-36 0 -67 26q4 -33 4 -55q0 -209 -139 -209q-103 0 -183 160q-66 -160 -182 -160q-61 0 -96 48t-33 112q1 63 35 107t84 44t78 -27q28 -26 28 -66q1 -60 -88 -54q27 22 27 49
q0 35 -39 35q-59 0 -62 -68q0 -28 22 -52t62 -24q66 0 119 73l53 73q3 0 5 -2q35 -144 145 -144q100 0 100 119q0 84 -63 146q-16 15 -16 33q0 32 35 32t60 -44q26 -44 36 -53q34 -26 55 -26q57 0 57 62q0 39 -29 86t-86 47q47 29 62 29q43 1 77 -57t34 -118z" />
    <glyph glyph-name="Igrave" horiz-adv-x="463" 
d="M229 -911q-129 0 -182 116q-66 -114 -203 -114q-58 0 -108 36t-47 89q2 53 55 104q33 22 68 50t36 65q3 57 -57 57q-35 0 -37 -38t21 -55q22 -18 24 -17q-13 -9 -34 -9q-84 0 -84 86q0 53 35 83t80 30q46 0 78 -29t32 -80q0 -10 -12 -26q120 121 262 121q84 0 142 -39
t58 -94q0 -67 -78 -67q-17 0 -32 3q12 22 12 43q0 78 -123 78q-87 0 -135 -28t-96 -72t-81 -73q-32 -29 -32 -67q0 -55 85 -55t185 117q0 -28 48 -70t122 -43q74 0 74 45q0 32 -45 86q68 0 106 -38t38 -89t-52 -79t-123 -27zM57 -686q-59 0 -59 58t62 59q62 0 59 -62
q-3 -55 -62 -55zM-201 -618z" />
    <glyph glyph-name="Iacute" horiz-adv-x="569" 
d="M512 -770q0 -135 -133 -135q-123 0 -219 143q0 -62 -64 -106t-138 -43q-72 -1 -124 35t-53 90q0 54 85 126q85 71 85 122q-1 51 -51 51t-50 -52q0 -30 17 -42t21 -12q-14 -8 -34 -8q-77 -1 -77 85t102 94q47 4 84 -28t37 -91t-54 -111t-55 -87q0 -78 109 -76q52 1 96 35
t43 82q93 -117 188 -117q95 -1 95 95t-86 128q-109 0 -123 -10l6 113l105 2q22 37 22 84q0 73 -65 73q-2 56 59 56q38 0 62 -31t24 -81t-47 -110q32 2 125 7l4 -105h-74q78 -106 78 -176zM-112 -593q1 0 1 1z" />
    <glyph glyph-name="Icircumflex" horiz-adv-x="446" 
d="M113 -844q0 -65 -62 -65q-53 0 -53 71q0 12 49 127q66 -123 66 -133zM383 -444q0 -151 -21 -214q-34 -102 -137 -102q-127 0 -176 174q-19 -56 -65 -111t-116 -55q-68 0 -116 48t-49 107q-1 60 35 103t94 43q92 0 92 -83q0 -52 -30 -52q-4 82 -68 82t-64 -57
q0 -92 125 -92q116 0 154 174h10q42 -174 162 -174q111 0 111 213q0 100 -26 212t-54 144q26 14 43 6q96 -45 96 -366z" />
    <glyph glyph-name="Idieresis" horiz-adv-x="440" 
d="M-119 -551q0 -59 -53 -111t-53 -88q0 -75 106 -75q53 1 96 35t43 81q0 -8 60 -62t121 -54q104 0 104 96q0 28 -39 61q62 0 88 -36t27 -82q1 -48 -35 -88t-86 -39q-122 0 -227 149q0 -64 -60 -111q-61 -47 -133 -47t-124 36t-52 90q0 55 84 126q84 70 84 122t-51 52
t-51 -53q0 -30 18 -42t22 -12q-14 -8 -34 -8q-78 0 -78 85q0 44 32 69t72 25q74 7 105 -55q123 -76 207 -76q163 0 163 106q0 21 -8 43q91 -10 93 -90q0 -58 -56 -94t-123 -33q-136 6 -262 88v-8zM-230 -603q1 0 1 1q0 -1 -1 -1z" />
    </font>
</defs>
</svg>
